M48
;Layer_Color=9474304
;FILE_FORMAT=2:5
INCH,TZ
;TYPE=PLATED
T01F00S00C0.00787
T02F00S00C0.00800
T03F00S00C0.04016
T04F00S00C0.04921
T05F00S00C0.05118
T06F00S00C0.12205
%
T01
X94095Y90669
X98425
X102756
Y95000
Y99331
X98425
Y95000
X94095
Y99331
T02
X19000Y55100
X25300Y54700
X12300Y80400
X89800Y75100
X93800Y76500
X101413Y76000
X101625Y86901
X106700Y99600
X97600Y103099
X85300Y108400
X81700Y108500
X93900Y117700
X111400Y110400
X123700Y112100
X123200Y107600
X127600Y105000
X56800Y136700
Y140700
X97800Y178525
X100989Y178492
T03
X88583Y7874
X98583
X108583
X45000Y130400
Y140400
X137700Y187900
X147700
T04
X6890Y97795
Y107795
Y117795
Y127795
Y137795
X189600Y138500
Y128500
Y118500
Y108500
Y98500
X190000Y79370
Y69370
Y59370
Y49370
Y39370
T05
X85433Y184232
X111417
T06
X38386Y38386
X158465
Y158465
X38386
M30
