<svg width="40.00000128mm" height="40.00000128mm" viewBox="0 0 15748032 15748032"  version="1.1" xmlns="http://www.w3.org/2000/svg" xmlns:xlink="http://www.w3.org/1999/xlink">
<desc>
Origin 92800005 44040005 Bound 92810000 44045984 15748032 15748032
</desc>
<g fill-rule="evenodd" fill="rgb(0, 0, 255)" stroke="black" stroke-width="1" transform="translate(0, 15748032) scale(1, -1) translate(-92810000, -44045984)">
<path id="N" d="M 94009999.36 29119995.74 m -372289.53 0 a 372289.53 372289.53 0 1 1 744579.06 0a 372289.53 372289.53 0 1 1 -744579.06 0M 94010003.81 29120006.80 m -250882.20 0 a 250882.20 250882.20 0 1 1 501764.39 0a 250882.20 250882.20 0 1 1 -501764.39 0"/>
<path id="N" d="M 71239993.98 30939986.45 m -307772.16 0 a 307772.16 307772.16 0 1 1 615544.33 0a 307772.16 307772.16 0 1 1 -615544.33 0M 71240004.24 30940004.93 m -204721.07 0 a 204721.07 204721.07 0 1 1 409442.13 0a 204721.07 204721.07 0 1 1 -409442.13 0"/>
<path id="N" d="M 75209999.36 30119995.74 m -372289.53 0 a 372289.53 372289.53 0 1 1 744579.06 0a 372289.53 372289.53 0 1 1 -744579.06 0M 75210003.81 30120006.80 m -250882.20 0 a 250882.20 250882.20 0 1 1 501764.39 0a 250882.20 250882.20 0 1 1 -501764.39 0"/>
<path id="N" d="M 97715123.00 29944887.00 L 97104887.00 29944887.00 L 97104887.00 30555123.00 L 97715123.00 30555123.00 L 97715123.00 29944887.00  zM 97410004.24 30250004.93 m -204721.07 0 a 204721.07 204721.07 0 1 1 409442.13 0a 204721.07 204721.07 0 1 1 -409442.13 0"/>
<path id="N" d="M 73775123.00 29944887.00 L 73164887.00 29944887.00 L 73164887.00 30555123.00 L 73775123.00 30555123.00 L 73775123.00 29944887.00  zM 73470004.24 30250004.93 m -204721.07 0 a 204721.07 204721.07 0 1 1 409442.13 0a 204721.07 204721.07 0 1 1 -409442.13 0"/>
<path id="N" d="M 75209999.36 31119995.74 m -372289.53 0 a 372289.53 372289.53 0 1 1 744579.06 0a 372289.53 372289.53 0 1 1 -744579.06 0M 75210003.81 31120006.80 m -250882.20 0 a 250882.20 250882.20 0 1 1 501764.39 0a 250882.20 250882.20 0 1 1 -501764.39 0"/>
<path id="N" d="M 94379099.00 26750911.00 L 93640911.00 26750911.00 L 93640911.00 27489099.00 L 94379099.00 27489099.00 L 94379099.00 26750911.00  zM 94010003.81 27120006.80 m -250882.20 0 a 250882.20 250882.20 0 1 1 501764.39 0a 250882.20 250882.20 0 1 1 -501764.39 0"/>
<path id="N" d="M 150580783.15 30193847.00 m -387188.24 0 a 387188.24 387188.24 0 1 1 774376.48 0a 387188.24 387188.24 0 1 1 -774376.48 0M 150580791.02 30193867.48 m -258108.52 0 a 258108.52 258108.52 0 1 1 516217.04 0a 258108.52 258108.52 0 1 1 -516217.04 0"/>
<path id="N" d="M 153179209.15 30193847.00 m -387188.24 0 a 387188.24 387188.24 0 1 1 774376.48 0a 387188.24 387188.24 0 1 1 -774376.48 0M 153179217.02 30193867.48 m -258108.52 0 a 258108.52 258108.52 0 1 1 516217.04 0a 258108.52 258108.52 0 1 1 -516217.04 0"/>
<path id="N" d="M 75209999.36 29119995.74 m -372289.53 0 a 372289.53 372289.53 0 1 1 744579.06 0a 372289.53 372289.53 0 1 1 -744579.06 0M 75210003.81 29120006.80 m -250882.20 0 a 250882.20 250882.20 0 1 1 501764.39 0a 250882.20 250882.20 0 1 1 -501764.39 0"/>
<path id="N" d="M 69149999.36 28119995.74 m -372289.53 0 a 372289.53 372289.53 0 1 1 744579.06 0a 372289.53 372289.53 0 1 1 -744579.06 0M 69150003.81 28120006.80 m -250882.20 0 a 250882.20 250882.20 0 1 1 501764.39 0a 250882.20 250882.20 0 1 1 -501764.39 0"/>
<path id="N" d="M 71239993.98 29939986.45 m -307772.16 0 a 307772.16 307772.16 0 1 1 615544.33 0a 307772.16 307772.16 0 1 1 -615544.33 0M 71240004.24 29940004.93 m -204721.07 0 a 204721.07 204721.07 0 1 1 409442.13 0a 204721.07 204721.07 0 1 1 -409442.13 0"/>
<path id="N" d="M 73469993.98 31249986.45 m -307772.16 0 a 307772.16 307772.16 0 1 1 615544.33 0a 307772.16 307772.16 0 1 1 -615544.33 0M 73470004.24 31250004.93 m -204721.07 0 a 204721.07 204721.07 0 1 1 409442.13 0a 204721.07 204721.07 0 1 1 -409442.13 0"/>
<path id="N" d="M 69149999.36 29119995.74 m -372289.53 0 a 372289.53 372289.53 0 1 1 744579.06 0a 372289.53 372289.53 0 1 1 -744579.06 0M 69150003.81 29120006.80 m -250882.20 0 a 250882.20 250882.20 0 1 1 501764.39 0a 250882.20 250882.20 0 1 1 -501764.39 0"/>
<path id="N" d="M 97409993.98 31249986.45 m -307772.16 0 a 307772.16 307772.16 0 1 1 615544.33 0a 307772.16 307772.16 0 1 1 -615544.33 0M 97410004.24 31250004.93 m -204721.07 0 a 204721.07 204721.07 0 1 1 409442.13 0a 204721.07 204721.07 0 1 1 -409442.13 0"/>
<path id="N" d="M 94009999.36 28119995.74 m -372289.53 0 a 372289.53 372289.53 0 1 1 744579.06 0a 372289.53 372289.53 0 1 1 -744579.06 0M 94010003.81 28120006.80 m -250882.20 0 a 250882.20 250882.20 0 1 1 501764.39 0a 250882.20 250882.20 0 1 1 -501764.39 0"/>
<path id="N" d="M 69149999.36 30119995.74 m -372289.53 0 a 372289.53 372289.53 0 1 1 744579.06 0a 372289.53 372289.53 0 1 1 -744579.06 0M 69150003.81 30120006.80 m -250882.20 0 a 250882.20 250882.20 0 1 1 501764.39 0a 250882.20 250882.20 0 1 1 -501764.39 0"/>
<path id="N" d="M 117653074.47 30733073.47 m -100354.75 0 a 100354.75 100354.75 0 1 1 200709.51 0a 100354.75 100354.75 0 1 1 -200709.51 0"/>
<path id="N" d="M 117653074.47 30300003.47 m -100354.75 0 a 100354.75 100354.75 0 1 1 200709.51 0a 100354.75 100354.75 0 1 1 -200709.51 0"/>
<path id="N" d="M 116786933.47 30733073.47 m -100354.75 0 a 100354.75 100354.75 0 1 1 200709.51 0a 100354.75 100354.75 0 1 1 -200709.51 0"/>
<path id="N" d="M 117220003.47 30733073.47 m -100354.75 0 a 100354.75 100354.75 0 1 1 200709.51 0a 100354.75 100354.75 0 1 1 -200709.51 0"/>
<path id="N" d="M 117220003.47 29866932.47 m -100354.75 0 a 100354.75 100354.75 0 1 1 200709.51 0a 100354.75 100354.75 0 1 1 -200709.51 0"/>
<path id="N" d="M 117220003.47 30300003.47 m -100354.75 0 a 100354.75 100354.75 0 1 1 200709.51 0a 100354.75 100354.75 0 1 1 -200709.51 0"/>
<path id="N" d="M 116786933.47 30300003.47 m -100354.75 0 a 100354.75 100354.75 0 1 1 200709.51 0a 100354.75 100354.75 0 1 1 -200709.51 0"/>
<path id="N" d="M 116786933.47 29866932.47 m -100354.75 0 a 100354.75 100354.75 0 1 1 200709.51 0a 100354.75 100354.75 0 1 1 -200709.51 0"/>
<path id="N" d="M 117653074.47 29866932.47 m -100354.75 0 a 100354.75 100354.75 0 1 1 200709.51 0a 100354.75 100354.75 0 1 1 -200709.51 0"/>
<path id="N" d="M 94009999.36 30119995.74 m -372289.53 0 a 372289.53 372289.53 0 1 1 744579.06 0a 372289.53 372289.53 0 1 1 -744579.06 0M 94010003.81 30120006.80 m -250882.20 0 a 250882.20 250882.20 0 1 1 501764.39 0a 250882.20 250882.20 0 1 1 -501764.39 0"/>
<path id="N" d="M 71239993.98 28939986.45 m -307772.16 0 a 307772.16 307772.16 0 1 1 615544.33 0a 307772.16 307772.16 0 1 1 -615544.33 0M 71240004.24 28940004.93 m -204721.07 0 a 204721.07 204721.07 0 1 1 409442.13 0a 204721.07 204721.07 0 1 1 -409442.13 0"/>
<path id="N" d="M 69149999.36 31119995.74 m -372289.53 0 a 372289.53 372289.53 0 1 1 744579.06 0a 372289.53 372289.53 0 1 1 -744579.06 0M 69150003.81 31120006.80 m -250882.20 0 a 250882.20 250882.20 0 1 1 501764.39 0a 250882.20 250882.20 0 1 1 -501764.39 0"/>
<path id="N" d="M 94009999.36 31119995.74 m -372289.53 0 a 372289.53 372289.53 0 1 1 744579.06 0a 372289.53 372289.53 0 1 1 -744579.06 0M 94010003.81 31120006.80 m -250882.20 0 a 250882.20 250882.20 0 1 1 501764.39 0a 250882.20 250882.20 0 1 1 -501764.39 0"/>
<path id="N" d="M 75209999.36 28119995.74 m -372289.53 0 a 372289.53 372289.53 0 1 1 744579.06 0a 372289.53 372289.53 0 1 1 -744579.06 0M 75210003.81 28120006.80 m -250882.20 0 a 250882.20 250882.20 0 1 1 501764.39 0a 250882.20 250882.20 0 1 1 -501764.39 0"/>
<path id="N" d="M 69519099.00 26750911.00 L 68780911.00 26750911.00 L 68780911.00 27489099.00 L 69519099.00 27489099.00 L 69519099.00 26750911.00  zM 69150003.81 27120006.80 m -250882.20 0 a 250882.20 250882.20 0 1 1 501764.39 0a 250882.20 250882.20 0 1 1 -501764.39 0"/>
<path id="N" d="M 75579099.00 26750911.00 L 74840911.00 26750911.00 L 74840911.00 27489099.00 L 75579099.00 27489099.00 L 75579099.00 26750911.00  zM 75210003.81 27120006.80 m -250882.20 0 a 250882.20 250882.20 0 1 1 501764.39 0a 250882.20 250882.20 0 1 1 -501764.39 0"/>
</g>
</svg>
