<svg width="40.00000128mm" height="40.00000128mm" viewBox="0 0 15748032 15748032"  version="1.1" xmlns="http://www.w3.org/2000/svg" xmlns:xlink="http://www.w3.org/1999/xlink">
<desc>
Origin 92800005 44040005 Bound 92810000 44045984 15748032 15748032
</desc>
<g fill-rule="evenodd" fill="rgb(255, 255, 0)" stroke="black" stroke-width="1" transform="translate(0, 15748032) scale(1, -1) translate(-92810000, -44045984)">
<path id="N" d="M 133649677.00 32775686.00 L 133303926.00 32775686.00 L 133303926.00 32617470.89 L 133425537.00 32678277.00 L 133438102.07 32679170.16 L 133449741.00 32683991.00 L 133549709.00 32683992.00 L 133587978.00 32668140.00 L 133687946.00 32568172.00 L 133703797.00 32529903.00 L 133703798.00 32329968.00 L 133687946.00 32291699.00 L 133587978.00 32191731.00 L 133549709.00 32175880.00 L 133349774.00 32175879.00 L 133311505.00 32191731.00 L 133211537.00 32291699.00 A 54121.84 54121.84 0 0 0 133288075.00 32368237.00 L 133372192.00 32284120.00 L 133527291.00 32284120.00 L 133595557.00 32352386.00 L 133595557.00 32507485.00 L 133527291.00 32575751.00 L 133462517.94 32575751.00 L 133274009.00 32481497.00 L 133261445.08 32480603.90 L 133249806.00 32475783.00 L 133241576.71 32479191.57 L 133232692.00 32478560.00 L 133223176.51 32486812.92 L 133211537.00 32491634.00 L 133208127.76 32499864.92 L 133201400.00 32505700.00 L 133200506.90 32518263.92 L 133195686.00 32529903.00 L 133195686.00 32829806.00 L 133211537.00 32868075.00 L 133249806.00 32883926.00 L 133649677.00 32883926.00 A 54121.84 54121.84 0 0 0 133649677.00 32775686.00  z"/>
<path id="N" d="M 92769515.00 32775686.00 L 92423764.00 32775686.00 L 92423764.00 32617470.89 L 92545375.00 32678277.00 L 92557940.07 32679170.16 L 92569579.00 32683991.00 L 92669547.00 32683992.00 L 92707816.00 32668140.00 L 92807784.00 32568172.00 L 92823635.00 32529903.00 L 92823636.00 32329968.00 L 92807784.00 32291699.00 L 92707816.00 32191731.00 L 92669547.00 32175880.00 L 92469612.00 32175879.00 L 92431343.00 32191731.00 L 92331375.00 32291699.00 A 54121.84 54121.84 0 0 0 92407913.00 32368237.00 L 92492030.00 32284120.00 L 92647129.00 32284120.00 L 92715395.00 32352386.00 L 92715395.00 32507485.00 L 92647129.00 32575751.00 L 92582355.94 32575751.00 L 92393847.00 32481497.00 L 92381283.08 32480603.90 L 92369644.00 32475783.00 L 92361414.71 32479191.57 L 92352530.00 32478560.00 L 92343014.51 32486812.92 L 92331375.00 32491634.00 L 92327965.76 32499864.92 L 92321238.00 32505700.00 L 92320344.90 32518263.92 L 92315524.00 32529903.00 L 92315524.00 32829806.00 L 92331375.00 32868075.00 L 92369644.00 32883926.00 L 92769515.00 32883926.00 A 54121.84 54121.84 0 1 0 92769515.00 32775686.00  z"/>
<path id="N" d="M 112509677.00 32775686.00 L 112163926.00 32775686.00 L 112163926.00 32617470.89 L 112285537.00 32678277.00 L 112298102.07 32679170.16 L 112309741.00 32683991.00 L 112409709.00 32683992.00 L 112447978.00 32668140.00 L 112547946.00 32568172.00 L 112563797.00 32529903.00 L 112563798.00 32329968.00 L 112547946.00 32291699.00 L 112447978.00 32191731.00 L 112409709.00 32175880.00 L 112209774.00 32175879.00 L 112171505.00 32191731.00 L 112071537.00 32291699.00 A 54121.84 54121.84 0 0 0 112148075.00 32368237.00 L 112232192.00 32284120.00 L 112387291.00 32284120.00 L 112455557.00 32352386.00 L 112455557.00 32507485.00 L 112387291.00 32575751.00 L 112322517.94 32575751.00 L 112134009.00 32481497.00 L 112121445.08 32480603.90 L 112109806.00 32475783.00 L 112101576.71 32479191.57 L 112092692.00 32478560.00 L 112083176.51 32486812.92 L 112071537.00 32491634.00 L 112068127.76 32499864.92 L 112061400.00 32505700.00 L 112060506.90 32518263.92 L 112055686.00 32529903.00 L 112055686.00 32829806.00 L 112071537.00 32868075.00 L 112109806.00 32883926.00 L 112509677.00 32883926.00 A 54121.84 54121.84 0 0 0 112509677.00 32775686.00  z"/>
<path id="N" d="M 71359677.00 32765686.00 L 71013926.00 32765686.00 L 71013926.00 32607470.89 L 71135537.00 32668277.00 L 71148102.07 32669170.16 L 71159741.00 32673991.00 L 71259709.00 32673992.00 L 71297978.00 32658140.00 L 71397946.00 32558172.00 L 71413797.00 32519903.00 L 71413798.00 32319968.00 L 71397946.00 32281699.00 L 71297978.00 32181731.00 L 71259709.00 32165880.00 L 71059774.00 32165879.00 L 71021505.00 32181731.00 L 70921537.00 32281699.00 A 54121.84 54121.84 0 1 0 70998075.00 32358237.00 L 71082192.00 32274120.00 L 71237291.00 32274120.00 L 71305557.00 32342386.00 L 71305557.00 32497485.00 L 71237291.00 32565751.00 L 71172517.94 32565751.00 L 70984009.00 32471497.00 L 70971445.08 32470603.90 L 70959806.00 32465783.00 L 70951576.71 32469191.57 L 70942692.00 32468560.00 L 70933176.51 32476812.92 L 70921537.00 32481634.00 L 70918127.76 32489864.92 L 70911400.00 32495700.00 L 70910506.90 32508263.92 L 70905686.00 32519903.00 L 70905686.00 32819806.00 L 70921537.00 32858075.00 L 70959806.00 32873926.00 L 71359677.00 32873926.00 A 54121.84 54121.84 0 0 0 71359677.00 32765686.00  z"/>
<path id="N" d="M 77847816.00 32868075.00 L 77947784.00 32768107.00 L 77963635.00 32729838.00 L 77963636.00 32629871.00 L 77947784.00 32591602.00 L 77886085.00 32529903.00 L 77947784.00 32468204.00 L 77963635.00 32429935.00 L 77963636.00 32329968.00 L 77947784.00 32291699.00 L 77847816.00 32191731.00 L 77809547.00 32175880.00 L 77609612.00 32175879.00 L 77571343.00 32191731.00 L 77471375.00 32291699.00 L 77455524.00 32329968.00 L 77455523.00 32429935.00 L 77471375.00 32468204.00 L 77533074.00 32529903.00 L 77471375.00 32591602.00 L 77455524.00 32629871.00 L 77455523.00 32729838.00 L 77471375.00 32768107.00 L 77571343.00 32868075.00 L 77609612.00 32883926.00 L 77809547.00 32883927.00 L 77847816.00 32868075.00  zM 77787129.00 32475783.00 L 77632030.00 32475783.00 L 77563764.00 32407517.00 L 77563764.00 32352386.00 L 77632030.00 32284120.00 L 77787129.00 32284120.00 L 77855395.00 32352386.00 L 77855395.00 32407517.00 L 77787129.00 32475783.00  zM 77787129.00 32775686.00 L 77632030.00 32775686.00 L 77563764.00 32707420.00 L 77563764.00 32652289.00 L 77632030.00 32584023.00 L 77787129.00 32584023.00 L 77855395.00 32652289.00 L 77855395.00 32707420.00 L 77787129.00 32775686.00  z"/>
<path id="N" d="M 140387978.00 32868075.00 L 140487946.00 32768107.00 L 140503797.00 32729838.00 L 140503798.00 32629871.00 L 140487946.00 32591602.00 L 140426247.00 32529903.00 L 140487946.00 32468204.00 L 140503797.00 32429935.00 L 140503798.00 32329968.00 L 140487946.00 32291699.00 L 140387978.00 32191731.00 L 140349709.00 32175880.00 L 140149774.00 32175879.00 L 140111505.00 32191731.00 L 140011537.00 32291699.00 A 54121.84 54121.84 0 0 0 140088075.00 32368237.00 L 140172192.00 32284120.00 L 140327291.00 32284120.00 L 140395557.00 32352386.00 L 140395557.00 32407517.00 L 140327291.00 32475783.00 L 140249741.00 32475783.00 A 54118.70 54118.70 0 0 0 140249741.00 32584023.00 L 140327291.00 32584023.00 L 140395557.00 32652289.00 L 140395557.00 32707420.00 L 140327291.00 32775686.00 L 140172192.00 32775686.00 L 140088075.00 32691569.00 A 54119.43 54119.43 0 1 0 140011537.00 32768107.00 L 140111505.00 32868075.00 L 140149774.00 32883926.00 L 140349709.00 32883927.00 L 140387978.00 32868075.00  z"/>
<path id="N" d="M 138687978.00 32868075.00 L 138787946.00 32768107.00 L 138803797.00 32729838.00 L 138803798.00 32629871.00 L 138787946.00 32591602.00 L 138726247.00 32529903.00 L 138787946.00 32468204.00 L 138803797.00 32429935.00 L 138803798.00 32329968.00 L 138787946.00 32291699.00 L 138687978.00 32191731.00 L 138649709.00 32175880.00 L 138449774.00 32175879.00 L 138411505.00 32191731.00 L 138311537.00 32291699.00 L 138295686.00 32329968.00 L 138295685.00 32429935.00 L 138311537.00 32468204.00 L 138373236.00 32529903.00 L 138311537.00 32591602.00 L 138295686.00 32629871.00 L 138295685.00 32729838.00 L 138311537.00 32768107.00 L 138411505.00 32868075.00 L 138449774.00 32883926.00 L 138649709.00 32883927.00 L 138687978.00 32868075.00  zM 138627291.00 32475783.00 L 138472192.00 32475783.00 L 138403926.00 32407517.00 L 138403926.00 32352386.00 L 138472192.00 32284120.00 L 138627291.00 32284120.00 L 138695557.00 32352386.00 L 138695557.00 32407517.00 L 138627291.00 32475783.00  zM 138627291.00 32775686.00 L 138472192.00 32775686.00 L 138403926.00 32707420.00 L 138403926.00 32652289.00 L 138472192.00 32584023.00 L 138627291.00 32584023.00 L 138695557.00 32652289.00 L 138695557.00 32707420.00 L 138627291.00 32775686.00  z"/>
<path id="N" d="M 96137978.00 32868075.00 L 96237946.00 32768107.00 L 96253797.00 32729838.00 L 96253798.00 32629871.00 L 96237946.00 32591602.00 L 96176247.00 32529903.00 L 96237946.00 32468204.00 L 96253797.00 32429935.00 L 96253798.00 32329968.00 L 96237946.00 32291699.00 L 96137978.00 32191731.00 L 96099709.00 32175880.00 L 95899774.00 32175879.00 L 95861505.00 32191731.00 L 95761537.00 32291699.00 L 95745686.00 32329968.00 L 95745685.00 32429935.00 L 95761537.00 32468204.00 L 95823236.00 32529903.00 L 95761537.00 32591602.00 L 95745686.00 32629871.00 L 95745685.00 32729838.00 L 95761537.00 32768107.00 L 95861505.00 32868075.00 L 95899774.00 32883926.00 L 96099709.00 32883927.00 L 96137978.00 32868075.00  zM 96077291.00 32475783.00 L 95922192.00 32475783.00 L 95853926.00 32407517.00 L 95853926.00 32352386.00 L 95922192.00 32284120.00 L 96077291.00 32284120.00 L 96145557.00 32352386.00 L 96145557.00 32407517.00 L 96077291.00 32475783.00  zM 96077291.00 32775686.00 L 95922192.00 32775686.00 L 95853926.00 32707420.00 L 95853926.00 32652289.00 L 95922192.00 32584023.00 L 96077291.00 32584023.00 L 96145557.00 32652289.00 L 96145557.00 32707420.00 L 96077291.00 32775686.00  z"/>
<path id="N" d="M 99547978.00 32858075.00 L 99647946.00 32758107.00 L 99663797.00 32719838.00 L 99663798.00 32619871.00 L 99647946.00 32581602.00 L 99586247.00 32519903.00 L 99647946.00 32458204.00 L 99663797.00 32419935.00 L 99663798.00 32319968.00 L 99647946.00 32281699.00 L 99547978.00 32181731.00 L 99509709.00 32165880.00 L 99309774.00 32165879.00 L 99271505.00 32181731.00 L 99171537.00 32281699.00 A 54121.84 54121.84 0 0 0 99248075.00 32358237.00 L 99332192.00 32274120.00 L 99487291.00 32274120.00 L 99555557.00 32342386.00 L 99555557.00 32397517.00 L 99487291.00 32465783.00 L 99409741.00 32465783.00 A 54118.70 54118.70 0 0 0 99409741.00 32574023.00 L 99487291.00 32574023.00 L 99555557.00 32642289.00 L 99555557.00 32697420.00 L 99487291.00 32765686.00 L 99332192.00 32765686.00 L 99248075.00 32681569.00 A 54119.43 54119.43 0 0 0 99171537.00 32758107.00 L 99271505.00 32858075.00 L 99309774.00 32873926.00 L 99509709.00 32873927.00 L 99547978.00 32858075.00  z"/>
<path id="N" d="M 94417978.00 32868075.00 L 94517946.00 32768107.00 L 94533797.00 32729838.00 L 94533798.00 32629871.00 L 94517946.00 32591602.00 L 94456247.00 32529903.00 L 94517946.00 32468204.00 L 94533797.00 32429935.00 L 94533798.00 32329968.00 L 94517946.00 32291699.00 L 94417978.00 32191731.00 L 94379709.00 32175880.00 L 94179774.00 32175879.00 L 94141505.00 32191731.00 L 94041537.00 32291699.00 A 54121.84 54121.84 0 1 0 94118075.00 32368237.00 L 94202192.00 32284120.00 L 94357291.00 32284120.00 L 94425557.00 32352386.00 L 94425557.00 32407517.00 L 94357291.00 32475783.00 L 94279741.00 32475783.00 A 54118.70 54118.70 0 0 0 94279741.00 32584023.00 L 94357291.00 32584023.00 L 94425557.00 32652289.00 L 94425557.00 32707420.00 L 94357291.00 32775686.00 L 94202192.00 32775686.00 L 94118075.00 32691569.00 A 54119.43 54119.43 0 1 0 94041537.00 32768107.00 L 94141505.00 32868075.00 L 94179774.00 32883926.00 L 94379709.00 32883927.00 L 94417978.00 32868075.00  z"/>
<path id="N" d="M 130187978.00 32868075.00 L 130287946.00 32768107.00 L 130303797.00 32729838.00 L 130303798.00 32629871.00 L 130287946.00 32591602.00 L 130226247.00 32529903.00 L 130287946.00 32468204.00 L 130303797.00 32429935.00 L 130303798.00 32329968.00 L 130287946.00 32291699.00 L 130187978.00 32191731.00 L 130149709.00 32175880.00 L 129949774.00 32175879.00 L 129911505.00 32191731.00 L 129811537.00 32291699.00 A 54121.84 54121.84 0 0 0 129888075.00 32368237.00 L 129972192.00 32284120.00 L 130127291.00 32284120.00 L 130195557.00 32352386.00 L 130195557.00 32407517.00 L 130127291.00 32475783.00 L 130049741.00 32475783.00 A 54118.70 54118.70 0 0 0 130049741.00 32584023.00 L 130127291.00 32584023.00 L 130195557.00 32652289.00 L 130195557.00 32707420.00 L 130127291.00 32775686.00 L 129972192.00 32775686.00 L 129888075.00 32691569.00 A 54119.43 54119.43 0 0 0 129811537.00 32768107.00 L 129911505.00 32868075.00 L 129949774.00 32883926.00 L 130149709.00 32883927.00 L 130187978.00 32868075.00  z"/>
<path id="N" d="M 114757784.00 32858075.00 L 114857752.00 32758107.00 L 114873603.00 32719838.00 L 114873604.00 32619871.00 L 114857752.00 32581602.00 L 114796053.00 32519903.00 L 114857752.00 32458204.00 L 114873603.00 32419935.00 L 114873604.00 32319968.00 L 114857752.00 32281699.00 L 114757784.00 32181731.00 L 114719515.00 32165880.00 L 114519580.00 32165879.00 L 114481311.00 32181731.00 L 114381343.00 32281699.00 A 54121.84 54121.84 0 0 0 114457881.00 32358237.00 L 114541998.00 32274120.00 L 114697097.00 32274120.00 L 114765363.00 32342386.00 L 114765363.00 32397517.00 L 114697097.00 32465783.00 L 114619547.00 32465783.00 A 54118.70 54118.70 0 0 0 114619547.00 32574023.00 L 114697097.00 32574023.00 L 114765363.00 32642289.00 L 114765363.00 32697420.00 L 114697097.00 32765686.00 L 114541998.00 32765686.00 L 114457881.00 32681569.00 A 54119.43 54119.43 0 0 0 114381343.00 32758107.00 L 114481311.00 32858075.00 L 114519580.00 32873926.00 L 114719515.00 32873927.00 L 114757784.00 32858075.00  z"/>
<path id="N" d="M 110747816.00 32868075.00 L 110847784.00 32768107.00 L 110863635.00 32729838.00 L 110863636.00 32629871.00 L 110847784.00 32591602.00 L 110786085.00 32529903.00 L 110847784.00 32468204.00 L 110863635.00 32429935.00 L 110863636.00 32329968.00 L 110847784.00 32291699.00 L 110747816.00 32191731.00 L 110709547.00 32175880.00 L 110509612.00 32175879.00 L 110471343.00 32191731.00 L 110371375.00 32291699.00 A 54121.84 54121.84 0 0 0 110447913.00 32368237.00 L 110532030.00 32284120.00 L 110687129.00 32284120.00 L 110755395.00 32352386.00 L 110755395.00 32407517.00 L 110687129.00 32475783.00 L 110609579.00 32475783.00 A 54118.70 54118.70 0 0 0 110609579.00 32584023.00 L 110687129.00 32584023.00 L 110755395.00 32652289.00 L 110755395.00 32707420.00 L 110687129.00 32775686.00 L 110532030.00 32775686.00 L 110447913.00 32691569.00 A 54119.43 54119.43 0 1 0 110371375.00 32768107.00 L 110471343.00 32868075.00 L 110509612.00 32883926.00 L 110709547.00 32883927.00 L 110747816.00 32868075.00  z"/>
<path id="N" d="M 69557978.00 32868075.00 L 69657946.00 32768107.00 L 69673797.00 32729838.00 L 69673798.00 32629871.00 L 69657946.00 32591602.00 L 69596247.00 32529903.00 L 69657946.00 32468204.00 L 69673797.00 32429935.00 L 69673798.00 32329968.00 L 69657946.00 32291699.00 L 69557978.00 32191731.00 L 69519709.00 32175880.00 L 69319774.00 32175879.00 L 69281505.00 32191731.00 L 69181537.00 32291699.00 L 69165686.00 32329968.00 L 69165685.00 32429935.00 L 69181537.00 32468204.00 L 69243236.00 32529903.00 L 69181537.00 32591602.00 L 69165686.00 32629871.00 L 69165685.00 32729838.00 L 69181537.00 32768107.00 L 69281505.00 32868075.00 L 69319774.00 32883926.00 L 69519709.00 32883927.00 L 69557978.00 32868075.00  zM 69497291.00 32475783.00 L 69342192.00 32475783.00 L 69273926.00 32407517.00 L 69273926.00 32352386.00 L 69342192.00 32284120.00 L 69497291.00 32284120.00 L 69565557.00 32352386.00 L 69565557.00 32407517.00 L 69497291.00 32475783.00  zM 69497291.00 32775686.00 L 69342192.00 32775686.00 L 69273926.00 32707420.00 L 69273926.00 32652289.00 L 69342192.00 32584023.00 L 69497291.00 32584023.00 L 69565557.00 32652289.00 L 69565557.00 32707420.00 L 69497291.00 32775686.00  z"/>
<path id="N" d="M 82679776.41 32883926.00 L 82879709.00 32883926.00 L 82917978.00 32868075.00 L 83017946.00 32768107.00 L 83033797.00 32729835.59 L 83033797.00 32329968.00 L 83017946.00 32291699.00 L 82917978.00 32191731.00 L 82879706.59 32175880.00 L 82679774.00 32175880.00 L 82641505.00 32191731.00 L 82541537.00 32291699.00 A 54119.43 54119.43 0 0 0 82618075.00 32368237.00 L 82702192.00 32284120.00 L 82857291.00 32284120.00 L 82925557.00 32352386.00 L 82925557.00 32475783.00 L 82679774.00 32475783.00 L 82641505.00 32491634.00 L 82541537.00 32591602.00 L 82525686.00 32629873.41 L 82525686.00 32729838.00 L 82541537.00 32768107.00 L 82641505.00 32868075.00 L 82679776.41 32883926.00  zM 82857291.00 32775686.00 L 82702192.00 32775686.00 L 82633926.00 32707420.00 L 82633926.00 32652289.00 L 82702192.00 32584023.00 L 82925557.00 32584023.00 L 82925557.00 32707420.00 L 82857291.00 32775686.00  z"/>
<path id="N" d="M 126049776.41 32883926.00 L 126249709.00 32883926.00 L 126287978.00 32868075.00 L 126387946.00 32768107.00 L 126403797.00 32729835.59 L 126403797.00 32329968.00 L 126387946.00 32291699.00 L 126287978.00 32191731.00 L 126249706.59 32175880.00 L 126049774.00 32175880.00 L 126011505.00 32191731.00 L 125911537.00 32291699.00 A 54119.43 54119.43 0 1 0 125988075.00 32368237.00 L 126072192.00 32284120.00 L 126227291.00 32284120.00 L 126295557.00 32352386.00 L 126295557.00 32475783.00 L 126049774.00 32475783.00 L 126011505.00 32491634.00 L 125911537.00 32591602.00 L 125895686.00 32629873.41 L 125895686.00 32729838.00 L 125911537.00 32768107.00 L 126011505.00 32868075.00 L 126049776.41 32883926.00  zM 126227291.00 32775686.00 L 126072192.00 32775686.00 L 126003926.00 32707420.00 L 126003926.00 32652289.00 L 126072192.00 32584023.00 L 126295557.00 32584023.00 L 126295557.00 32707420.00 L 126227291.00 32775686.00  z"/>
<path id="N" d="M 106333880.00 32781400.00 L 106141801.94 32685360.97 L 106040463.46 32584023.00 L 106209709.00 32584023.00 L 106247978.00 32568172.00 L 106347946.00 32468204.00 L 106363797.00 32429932.59 L 106363797.00 32329968.00 L 106347946.00 32291699.00 L 106247978.00 32191731.00 L 106209706.59 32175880.00 L 106009774.00 32175880.00 L 105971505.00 32191731.00 L 105871537.00 32291699.00 L 105855686.00 32329970.41 L 105855685.00 32529903.00 L 105871538.71 32568172.71 L 106071472.00 32768107.00 L 106079701.86 32771516.02 L 106085538.00 32778245.00 L 106285474.00 32878212.00 A 54118.07 54118.07 0 1 0 106333880.00 32781400.00  zM 106187291.00 32475783.00 L 105963926.00 32475783.00 L 105963926.00 32352386.00 L 106032192.00 32284120.00 L 106187291.00 32284120.00 L 106255557.00 32352386.00 L 106255557.00 32407517.00 L 106187291.00 32475783.00  z"/>
<path id="N" d="M 73993880.00 32771400.00 L 73801801.94 32675360.97 L 73700463.46 32574023.00 L 73869709.00 32574023.00 L 73907978.00 32558172.00 L 74007946.00 32458204.00 L 74023797.00 32419932.59 L 74023797.00 32319968.00 L 74007946.00 32281699.00 L 73907978.00 32181731.00 L 73869706.59 32165880.00 L 73669774.00 32165880.00 L 73631505.00 32181731.00 L 73531537.00 32281699.00 L 73515686.00 32319970.41 L 73515685.00 32519903.00 L 73531538.71 32558172.71 L 73731472.00 32758107.00 L 73739701.86 32761516.02 L 73745538.00 32768245.00 L 73945474.00 32868212.00 A 54118.07 54118.07 0 0 0 73993880.00 32771400.00  zM 73847291.00 32465783.00 L 73623926.00 32465783.00 L 73623926.00 32342386.00 L 73692192.00 32274120.00 L 73847291.00 32274120.00 L 73915557.00 32342386.00 L 73915557.00 32397517.00 L 73847291.00 32465783.00  z"/>
<path id="N" d="M 135373880.00 32781400.00 L 135181801.94 32685360.97 L 135080463.46 32584023.00 L 135249709.00 32584023.00 L 135287978.00 32568172.00 L 135387946.00 32468204.00 L 135403797.00 32429932.59 L 135403797.00 32329968.00 L 135387946.00 32291699.00 L 135287978.00 32191731.00 L 135249706.59 32175880.00 L 135049774.00 32175880.00 L 135011505.00 32191731.00 L 134911537.00 32291699.00 L 134895686.00 32329970.41 L 134895685.00 32529903.00 L 134911538.71 32568172.71 L 135111472.00 32768107.00 L 135119701.86 32771516.02 L 135125538.00 32778245.00 L 135325474.00 32878212.00 A 54118.07 54118.07 0 1 0 135373880.00 32781400.00  zM 135227291.00 32475783.00 L 135003926.00 32475783.00 L 135003926.00 32352386.00 L 135072192.00 32284120.00 L 135227291.00 32284120.00 L 135295557.00 32352386.00 L 135295557.00 32407517.00 L 135227291.00 32475783.00  z"/>
<path id="N" d="M 90593718.00 32781400.00 L 90401639.94 32685360.97 L 90300301.46 32584023.00 L 90469547.00 32584023.00 L 90507816.00 32568172.00 L 90607784.00 32468204.00 L 90623635.00 32429932.59 L 90623635.00 32329968.00 L 90607784.00 32291699.00 L 90507816.00 32191731.00 L 90469544.59 32175880.00 L 90269612.00 32175880.00 L 90231343.00 32191731.00 L 90131375.00 32291699.00 L 90115524.00 32329970.41 L 90115523.00 32529903.00 L 90131376.71 32568172.71 L 90331310.00 32768107.00 L 90339539.86 32771516.02 L 90345376.00 32778245.00 L 90545312.00 32878212.00 A 54118.07 54118.07 0 0 0 90593718.00 32781400.00  zM 90447129.00 32475783.00 L 90223764.00 32475783.00 L 90223764.00 32352386.00 L 90292030.00 32284120.00 L 90447129.00 32284120.00 L 90515395.00 32352386.00 L 90515395.00 32407517.00 L 90447129.00 32475783.00  z"/>
<path id="N" d="M 141488172.00 32868075.00 L 141588140.00 32768107.00 L 141603991.00 32729838.00 L 141603992.00 32529903.00 L 141588140.00 32491634.00 L 141488172.00 32391666.00 L 141471604.32 32384803.68 L 141588139.00 32268269.00 A 54118.22 54118.22 0 1 0 141511602.00 32191732.00 L 141327517.16 32375815.00 L 141204120.00 32375815.00 L 141204120.00 32230000.00 A 54118.70 54118.70 0 1 0 141095880.00 32230000.00 L 141095880.00 32829806.00 L 141111731.00 32868075.00 L 141150000.00 32883926.00 L 141449903.00 32883927.00 L 141488172.00 32868075.00  zM 141427485.00 32775686.00 L 141204120.00 32775686.00 L 141204120.00 32484055.00 L 141427485.00 32484055.00 L 141495751.00 32552321.00 L 141495751.00 32707420.00 L 141427485.00 32775686.00  z"/>
<path id="N" d="M 139788172.00 32868075.00 L 139888140.00 32768107.00 L 139903991.00 32729838.00 L 139903992.00 32529903.00 L 139888140.00 32491634.00 L 139788172.00 32391666.00 L 139771604.32 32384803.68 L 139888139.00 32268269.00 A 54118.22 54118.22 0 1 0 139811602.00 32191732.00 L 139627517.16 32375815.00 L 139504120.00 32375815.00 L 139504120.00 32230000.00 A 54118.70 54118.70 0 0 0 139395880.00 32230000.00 L 139395880.00 32829806.00 L 139411731.00 32868075.00 L 139450000.00 32883926.00 L 139749903.00 32883927.00 L 139788172.00 32868075.00  zM 139727485.00 32775686.00 L 139504120.00 32775686.00 L 139504120.00 32484055.00 L 139727485.00 32484055.00 L 139795751.00 32552321.00 L 139795751.00 32707420.00 L 139727485.00 32775686.00  z"/>
<path id="N" d="M 111848172.00 32868075.00 L 111948140.00 32768107.00 L 111963991.00 32729838.00 L 111963992.00 32529903.00 L 111948140.00 32491634.00 L 111848172.00 32391666.00 L 111831604.32 32384803.68 L 111948139.00 32268269.00 A 54118.22 54118.22 0 0 0 111871602.00 32191732.00 L 111687517.16 32375815.00 L 111564120.00 32375815.00 L 111564120.00 32230000.00 A 54118.70 54118.70 0 0 0 111455880.00 32230000.00 L 111455880.00 32829806.00 L 111471731.00 32868075.00 L 111510000.00 32883926.00 L 111809903.00 32883927.00 L 111848172.00 32868075.00  zM 111787485.00 32775686.00 L 111564120.00 32775686.00 L 111564120.00 32484055.00 L 111787485.00 32484055.00 L 111855751.00 32552321.00 L 111855751.00 32707420.00 L 111787485.00 32775686.00  z"/>
<path id="N" d="M 143188172.00 32868075.00 L 143288140.00 32768107.00 L 143303991.00 32729838.00 L 143303992.00 32529903.00 L 143288140.00 32491634.00 L 143188172.00 32391666.00 L 143171604.32 32384803.68 L 143288139.00 32268269.00 A 54118.22 54118.22 0 1 0 143211602.00 32191732.00 L 143027517.16 32375815.00 L 142904120.00 32375815.00 L 142904120.00 32230000.00 A 54118.70 54118.70 0 1 0 142795880.00 32230000.00 L 142795880.00 32829806.00 L 142811731.00 32868075.00 L 142850000.00 32883926.00 L 143149903.00 32883927.00 L 143188172.00 32868075.00  zM 143127485.00 32775686.00 L 142904120.00 32775686.00 L 142904120.00 32484055.00 L 143127485.00 32484055.00 L 143195751.00 32552321.00 L 143195751.00 32707420.00 L 143127485.00 32775686.00  z"/>
<path id="N" d="M 121978172.00 32868075.00 L 122078140.00 32768107.00 L 122093991.00 32729838.00 L 122093992.00 32529903.00 L 122078140.00 32491634.00 L 121978172.00 32391666.00 L 121961604.32 32384803.68 L 122078139.00 32268269.00 A 54118.22 54118.22 0 1 0 122001602.00 32191732.00 L 121817517.16 32375815.00 L 121694120.00 32375815.00 L 121694120.00 32230000.00 A 54118.70 54118.70 0 0 0 121585880.00 32230000.00 L 121585880.00 32829806.00 L 121601731.00 32868075.00 L 121640000.00 32883926.00 L 121939903.00 32883927.00 L 121978172.00 32868075.00  zM 121917485.00 32775686.00 L 121694120.00 32775686.00 L 121694120.00 32484055.00 L 121917485.00 32484055.00 L 121985751.00 32552321.00 L 121985751.00 32707420.00 L 121917485.00 32775686.00  z"/>
<path id="N" d="M 105648172.00 32868075.00 L 105748140.00 32768107.00 L 105763991.00 32729838.00 L 105763992.00 32529903.00 L 105748140.00 32491634.00 L 105648172.00 32391666.00 L 105631604.32 32384803.68 L 105748139.00 32268269.00 A 54118.22 54118.22 0 1 0 105671602.00 32191732.00 L 105487517.16 32375815.00 L 105364120.00 32375815.00 L 105364120.00 32230000.00 A 54118.70 54118.70 0 0 0 105255880.00 32230000.00 L 105255880.00 32829806.00 L 105271731.00 32868075.00 L 105310000.00 32883926.00 L 105609903.00 32883927.00 L 105648172.00 32868075.00  zM 105587485.00 32775686.00 L 105364120.00 32775686.00 L 105364120.00 32484055.00 L 105587485.00 32484055.00 L 105655751.00 32552321.00 L 105655751.00 32707420.00 L 105587485.00 32775686.00  z"/>
<path id="N" d="M 101738172.00 32868075.00 L 101838140.00 32768107.00 L 101853991.00 32729838.00 L 101853992.00 32529903.00 L 101838140.00 32491634.00 L 101738172.00 32391666.00 L 101721604.32 32384803.68 L 101838139.00 32268269.00 A 54118.22 54118.22 0 0 0 101761602.00 32191732.00 L 101577517.16 32375815.00 L 101454120.00 32375815.00 L 101454120.00 32230000.00 A 54118.70 54118.70 0 1 0 101345880.00 32230000.00 L 101345880.00 32829806.00 L 101361731.00 32868075.00 L 101400000.00 32883926.00 L 101699903.00 32883927.00 L 101738172.00 32868075.00  zM 101677485.00 32775686.00 L 101454120.00 32775686.00 L 101454120.00 32484055.00 L 101677485.00 32484055.00 L 101745751.00 32552321.00 L 101745751.00 32707420.00 L 101677485.00 32775686.00  z"/>
<path id="N" d="M 82318172.00 32868075.00 L 82418140.00 32768107.00 L 82433991.00 32729838.00 L 82433992.00 32529903.00 L 82418140.00 32491634.00 L 82318172.00 32391666.00 L 82301604.32 32384803.68 L 82418139.00 32268269.00 A 54118.22 54118.22 0 1 0 82341602.00 32191732.00 L 82157517.16 32375815.00 L 82034120.00 32375815.00 L 82034120.00 32230000.00 A 54118.70 54118.70 0 1 0 81925880.00 32230000.00 L 81925880.00 32829806.00 L 81941731.00 32868075.00 L 81980000.00 32883926.00 L 82279903.00 32883927.00 L 82318172.00 32868075.00  zM 82257485.00 32775686.00 L 82034120.00 32775686.00 L 82034120.00 32484055.00 L 82257485.00 32484055.00 L 82325751.00 32552321.00 L 82325751.00 32707420.00 L 82257485.00 32775686.00  z"/>
<path id="N" d="M 95538172.00 32868075.00 L 95638140.00 32768107.00 L 95653991.00 32729838.00 L 95653992.00 32529903.00 L 95638140.00 32491634.00 L 95538172.00 32391666.00 L 95521604.32 32384803.68 L 95638139.00 32268269.00 A 54118.22 54118.22 0 1 0 95561602.00 32191732.00 L 95377517.16 32375815.00 L 95254120.00 32375815.00 L 95254120.00 32230000.00 A 54118.70 54118.70 0 1 0 95145880.00 32230000.00 L 95145880.00 32829806.00 L 95161731.00 32868075.00 L 95200000.00 32883926.00 L 95499903.00 32883927.00 L 95538172.00 32868075.00  zM 95477485.00 32775686.00 L 95254120.00 32775686.00 L 95254120.00 32484055.00 L 95477485.00 32484055.00 L 95545751.00 32552321.00 L 95545751.00 32707420.00 L 95477485.00 32775686.00  z"/>
<path id="N" d="M 76509970.41 32883926.00 L 76709903.00 32883926.00 L 76748172.00 32868075.00 L 76848140.00 32768107.00 A 54119.43 54119.43 0 1 0 76771602.00 32691569.00 L 76687485.00 32775686.00 L 76532386.00 32775686.00 L 76464120.00 32707420.00 L 76464120.00 32352386.00 L 76532386.00 32284120.00 L 76687485.00 32284120.00 L 76771602.00 32368237.00 A 54121.84 54121.84 0 0 0 76848140.00 32291699.00 L 76748172.00 32191731.00 L 76709900.59 32175880.00 L 76509968.00 32175880.00 L 76471699.00 32191731.00 L 76371731.00 32291699.00 L 76355880.00 32329970.41 L 76355880.00 32729838.00 L 76371731.00 32768107.00 L 76471699.00 32868075.00 L 76509970.41 32883926.00  z"/>
<path id="N" d="M 83789970.41 32883926.00 L 83989903.00 32883926.00 L 84028172.00 32868075.00 L 84128140.00 32768107.00 A 54119.43 54119.43 0 0 0 84051602.00 32691569.00 L 83967485.00 32775686.00 L 83812386.00 32775686.00 L 83744120.00 32707420.00 L 83744120.00 32352386.00 L 83812386.00 32284120.00 L 83967485.00 32284120.00 L 84051602.00 32368237.00 A 54121.84 54121.84 0 0 0 84128140.00 32291699.00 L 84028172.00 32191731.00 L 83989900.59 32175880.00 L 83789968.00 32175880.00 L 83751699.00 32191731.00 L 83651731.00 32291699.00 L 83635880.00 32329970.41 L 83635880.00 32729838.00 L 83651731.00 32768107.00 L 83751699.00 32868075.00 L 83789970.41 32883926.00  z"/>
<path id="N" d="M 119539970.41 32883926.00 L 119739903.00 32883926.00 L 119778172.00 32868075.00 L 119878140.00 32768107.00 A 54119.43 54119.43 0 0 0 119801602.00 32691569.00 L 119717485.00 32775686.00 L 119562386.00 32775686.00 L 119494120.00 32707420.00 L 119494120.00 32352386.00 L 119562386.00 32284120.00 L 119717485.00 32284120.00 L 119801602.00 32368237.00 A 54121.84 54121.84 0 0 0 119878140.00 32291699.00 L 119778172.00 32191731.00 L 119739900.59 32175880.00 L 119539968.00 32175880.00 L 119501699.00 32191731.00 L 119401731.00 32291699.00 L 119385880.00 32329970.41 L 119385880.00 32729838.00 L 119401731.00 32768107.00 L 119501699.00 32868075.00 L 119539970.41 32883926.00  z"/>
<path id="N" d="M 91369970.41 32883926.00 L 91569903.00 32883926.00 L 91608172.00 32868075.00 L 91708140.00 32768107.00 A 54119.43 54119.43 0 0 0 91631602.00 32691569.00 L 91547485.00 32775686.00 L 91392386.00 32775686.00 L 91324120.00 32707420.00 L 91324120.00 32352386.00 L 91392386.00 32284120.00 L 91547485.00 32284120.00 L 91631602.00 32368237.00 A 54121.84 54121.84 0 0 0 91708140.00 32291699.00 L 91608172.00 32191731.00 L 91569900.59 32175880.00 L 91369968.00 32175880.00 L 91331699.00 32191731.00 L 91231731.00 32291699.00 L 91215880.00 32329970.41 L 91215880.00 32729838.00 L 91231731.00 32768107.00 L 91331699.00 32868075.00 L 91369970.41 32883926.00  z"/>
<path id="N" d="M 89169970.41 32883926.00 L 89369903.00 32883926.00 L 89408172.00 32868075.00 L 89508140.00 32768107.00 A 54119.43 54119.43 0 0 0 89431602.00 32691569.00 L 89347485.00 32775686.00 L 89192386.00 32775686.00 L 89124120.00 32707420.00 L 89124120.00 32352386.00 L 89192386.00 32284120.00 L 89347485.00 32284120.00 L 89431602.00 32368237.00 A 54121.84 54121.84 0 0 0 89508140.00 32291699.00 L 89408172.00 32191731.00 L 89369900.59 32175880.00 L 89169968.00 32175880.00 L 89131699.00 32191731.00 L 89031731.00 32291699.00 L 89015880.00 32329970.41 L 89015880.00 32729838.00 L 89031731.00 32768107.00 L 89131699.00 32868075.00 L 89169970.41 32883926.00  z"/>
<path id="N" d="M 134449970.41 32883926.00 L 134649903.00 32883926.00 L 134688172.00 32868075.00 L 134788140.00 32768107.00 A 54119.43 54119.43 0 0 0 134711602.00 32691569.00 L 134627485.00 32775686.00 L 134472386.00 32775686.00 L 134404120.00 32707420.00 L 134404120.00 32352386.00 L 134472386.00 32284120.00 L 134627485.00 32284120.00 L 134711602.00 32368237.00 A 54121.84 54121.84 0 0 0 134788140.00 32291699.00 L 134688172.00 32191731.00 L 134649900.59 32175880.00 L 134449968.00 32175880.00 L 134411699.00 32191731.00 L 134311731.00 32291699.00 L 134295880.00 32329970.41 L 134295880.00 32729838.00 L 134311731.00 32768107.00 L 134411699.00 32868075.00 L 134449970.41 32883926.00  z"/>
<path id="N" d="M 137849970.41 32883926.00 L 138049903.00 32883926.00 L 138088172.00 32868075.00 L 138188140.00 32768107.00 A 54119.43 54119.43 0 1 0 138111602.00 32691569.00 L 138027485.00 32775686.00 L 137872386.00 32775686.00 L 137804120.00 32707420.00 L 137804120.00 32352386.00 L 137872386.00 32284120.00 L 138027485.00 32284120.00 L 138111602.00 32368237.00 A 54121.84 54121.84 0 1 0 138188140.00 32291699.00 L 138088172.00 32191731.00 L 138049900.59 32175880.00 L 137849968.00 32175880.00 L 137811699.00 32191731.00 L 137711731.00 32291699.00 L 137695880.00 32329970.41 L 137695880.00 32729838.00 L 137711731.00 32768107.00 L 137811699.00 32868075.00 L 137849970.41 32883926.00  z"/>
<path id="N" d="M 123449970.41 32883926.00 L 123649903.00 32883926.00 L 123688172.00 32868075.00 L 123788140.00 32768107.00 A 54119.43 54119.43 0 0 0 123711602.00 32691569.00 L 123627485.00 32775686.00 L 123472386.00 32775686.00 L 123404120.00 32707420.00 L 123404120.00 32352386.00 L 123472386.00 32284120.00 L 123627485.00 32284120.00 L 123711602.00 32368237.00 A 54121.84 54121.84 0 0 0 123788140.00 32291699.00 L 123688172.00 32191731.00 L 123649900.59 32175880.00 L 123449968.00 32175880.00 L 123411699.00 32191731.00 L 123311731.00 32291699.00 L 123295880.00 32329970.41 L 123295880.00 32729838.00 L 123311731.00 32768107.00 L 123411699.00 32868075.00 L 123449970.41 32883926.00  z"/>
<path id="N" d="M 136149970.41 32883926.00 L 136349903.00 32883926.00 L 136388172.00 32868075.00 L 136488140.00 32768107.00 A 54119.43 54119.43 0 0 0 136411602.00 32691569.00 L 136327485.00 32775686.00 L 136172386.00 32775686.00 L 136104120.00 32707420.00 L 136104120.00 32352386.00 L 136172386.00 32284120.00 L 136327485.00 32284120.00 L 136411602.00 32368237.00 A 54121.84 54121.84 0 0 0 136488140.00 32291699.00 L 136388172.00 32191731.00 L 136349900.59 32175880.00 L 136149968.00 32175880.00 L 136111699.00 32191731.00 L 136011731.00 32291699.00 L 135995880.00 32329970.41 L 135995880.00 32729838.00 L 136011731.00 32768107.00 L 136111699.00 32868075.00 L 136149970.41 32883926.00  z"/>
<path id="N" d="M 125449970.41 32883926.00 L 125649903.00 32883926.00 L 125688172.00 32868075.00 L 125788140.00 32768107.00 A 54119.43 54119.43 0 0 0 125711602.00 32691569.00 L 125627485.00 32775686.00 L 125472386.00 32775686.00 L 125404120.00 32707420.00 L 125404120.00 32352386.00 L 125472386.00 32284120.00 L 125627485.00 32284120.00 L 125711602.00 32368237.00 A 54121.84 54121.84 0 0 0 125788140.00 32291699.00 L 125688172.00 32191731.00 L 125649900.59 32175880.00 L 125449968.00 32175880.00 L 125411699.00 32191731.00 L 125311731.00 32291699.00 L 125295880.00 32329970.41 L 125295880.00 32729838.00 L 125311731.00 32768107.00 L 125411699.00 32868075.00 L 125449970.41 32883926.00  z"/>
<path id="N" d="M 127149970.41 32883926.00 L 127349903.00 32883926.00 L 127388172.00 32868075.00 L 127488140.00 32768107.00 A 54119.43 54119.43 0 1 0 127411602.00 32691569.00 L 127327485.00 32775686.00 L 127172386.00 32775686.00 L 127104120.00 32707420.00 L 127104120.00 32352386.00 L 127172386.00 32284120.00 L 127327485.00 32284120.00 L 127411602.00 32368237.00 A 54121.84 54121.84 0 1 0 127488140.00 32291699.00 L 127388172.00 32191731.00 L 127349900.59 32175880.00 L 127149968.00 32175880.00 L 127111699.00 32191731.00 L 127011731.00 32291699.00 L 126995880.00 32329970.41 L 126995880.00 32729838.00 L 127011731.00 32768107.00 L 127111699.00 32868075.00 L 127149970.41 32883926.00  z"/>
<path id="N" d="M 131049970.41 32883926.00 L 131249903.00 32883926.00 L 131288172.00 32868075.00 L 131388140.00 32768107.00 A 54119.43 54119.43 0 0 0 131311602.00 32691569.00 L 131227485.00 32775686.00 L 131072386.00 32775686.00 L 131004120.00 32707420.00 L 131004120.00 32352386.00 L 131072386.00 32284120.00 L 131227485.00 32284120.00 L 131311602.00 32368237.00 A 54121.84 54121.84 0 0 0 131388140.00 32291699.00 L 131288172.00 32191731.00 L 131249900.59 32175880.00 L 131049968.00 32175880.00 L 131011699.00 32191731.00 L 130911731.00 32291699.00 L 130895880.00 32329970.41 L 130895880.00 32729838.00 L 130911731.00 32768107.00 L 131011699.00 32868075.00 L 131049970.41 32883926.00  z"/>
<path id="N" d="M 129349970.41 32883926.00 L 129549903.00 32883926.00 L 129588172.00 32868075.00 L 129688140.00 32768107.00 A 54119.43 54119.43 0 0 0 129611602.00 32691569.00 L 129527485.00 32775686.00 L 129372386.00 32775686.00 L 129304120.00 32707420.00 L 129304120.00 32352386.00 L 129372386.00 32284120.00 L 129527485.00 32284120.00 L 129611602.00 32368237.00 A 54121.84 54121.84 0 0 0 129688140.00 32291699.00 L 129588172.00 32191731.00 L 129549900.59 32175880.00 L 129349968.00 32175880.00 L 129311699.00 32191731.00 L 129211731.00 32291699.00 L 129195880.00 32329970.41 L 129195880.00 32729838.00 L 129211731.00 32768107.00 L 129311699.00 32868075.00 L 129349970.41 32883926.00  z"/>
<path id="N" d="M 132749970.41 32883926.00 L 132949903.00 32883926.00 L 132988172.00 32868075.00 L 133088140.00 32768107.00 A 54119.43 54119.43 0 0 0 133011602.00 32691569.00 L 132927485.00 32775686.00 L 132772386.00 32775686.00 L 132704120.00 32707420.00 L 132704120.00 32352386.00 L 132772386.00 32284120.00 L 132927485.00 32284120.00 L 133011602.00 32368237.00 A 54121.84 54121.84 0 0 0 133088140.00 32291699.00 L 132988172.00 32191731.00 L 132949900.59 32175880.00 L 132749968.00 32175880.00 L 132711699.00 32191731.00 L 132611731.00 32291699.00 L 132595880.00 32329970.41 L 132595880.00 32729838.00 L 132611731.00 32768107.00 L 132711699.00 32868075.00 L 132749970.41 32883926.00  z"/>
<path id="N" d="M 103209970.41 32883926.00 L 103409903.00 32883926.00 L 103448172.00 32868075.00 L 103548140.00 32768107.00 A 54119.43 54119.43 0 0 0 103471602.00 32691569.00 L 103387485.00 32775686.00 L 103232386.00 32775686.00 L 103164120.00 32707420.00 L 103164120.00 32352386.00 L 103232386.00 32284120.00 L 103387485.00 32284120.00 L 103471602.00 32368237.00 A 54121.84 54121.84 0 0 0 103548140.00 32291699.00 L 103448172.00 32191731.00 L 103409900.59 32175880.00 L 103209968.00 32175880.00 L 103171699.00 32191731.00 L 103071731.00 32291699.00 L 103055880.00 32329970.41 L 103055880.00 32729838.00 L 103071731.00 32768107.00 L 103171699.00 32868075.00 L 103209970.41 32883926.00  z"/>
<path id="N" d="M 109409970.41 32883926.00 L 109609903.00 32883926.00 L 109648172.00 32868075.00 L 109748140.00 32768107.00 A 54119.43 54119.43 0 0 0 109671602.00 32691569.00 L 109587485.00 32775686.00 L 109432386.00 32775686.00 L 109364120.00 32707420.00 L 109364120.00 32352386.00 L 109432386.00 32284120.00 L 109587485.00 32284120.00 L 109671602.00 32368237.00 A 54121.84 54121.84 0 0 0 109748140.00 32291699.00 L 109648172.00 32191731.00 L 109609900.59 32175880.00 L 109409968.00 32175880.00 L 109371699.00 32191731.00 L 109271731.00 32291699.00 L 109255880.00 32329970.41 L 109255880.00 32729838.00 L 109271731.00 32768107.00 L 109371699.00 32868075.00 L 109409970.41 32883926.00  z"/>
<path id="N" d="M 144469970.41 32883926.00 L 144669903.00 32883926.00 L 144708172.00 32868075.00 L 144808140.00 32768107.00 A 54119.43 54119.43 0 1 0 144731602.00 32691569.00 L 144647485.00 32775686.00 L 144492386.00 32775686.00 L 144424120.00 32707420.00 L 144424120.00 32352386.00 L 144492386.00 32284120.00 L 144647485.00 32284120.00 L 144731602.00 32368237.00 A 54121.84 54121.84 0 1 0 144808140.00 32291699.00 L 144708172.00 32191731.00 L 144669900.59 32175880.00 L 144469968.00 32175880.00 L 144431699.00 32191731.00 L 144331731.00 32291699.00 L 144315880.00 32329970.41 L 144315880.00 32729838.00 L 144331731.00 32768107.00 L 144431699.00 32868075.00 L 144469970.41 32883926.00  z"/>
<path id="N" d="M 146169970.41 32883926.00 L 146369903.00 32883926.00 L 146408172.00 32868075.00 L 146508140.00 32768107.00 A 54119.43 54119.43 0 0 0 146431602.00 32691569.00 L 146347485.00 32775686.00 L 146192386.00 32775686.00 L 146124120.00 32707420.00 L 146124120.00 32352386.00 L 146192386.00 32284120.00 L 146347485.00 32284120.00 L 146431602.00 32368237.00 A 54121.84 54121.84 0 0 0 146508140.00 32291699.00 L 146408172.00 32191731.00 L 146369900.59 32175880.00 L 146169968.00 32175880.00 L 146131699.00 32191731.00 L 146031731.00 32291699.00 L 146015880.00 32329970.41 L 146015880.00 32729838.00 L 146031731.00 32768107.00 L 146131699.00 32868075.00 L 146169970.41 32883926.00  z"/>
<path id="N" d="M 141849776.41 32883926.00 L 142049709.00 32883926.00 L 142087978.00 32868075.00 L 142187946.00 32768107.00 L 142203797.00 32729835.59 L 142203798.00 32629871.00 L 142187946.00 32591602.00 L 141880464.00 32284120.00 L 142149677.00 32284120.00 A 54118.70 54118.70 0 0 0 142149677.00 32175880.00 L 141749806.00 32175879.00 A 54122.11 54122.11 0 0 0 141711537.00 32268269.00 L 142095557.00 32652289.00 L 142095557.00 32707420.00 L 142027291.00 32775686.00 L 141872192.00 32775686.00 L 141788075.00 32691569.00 A 54121.84 54121.84 0 0 0 141711537.00 32768107.00 L 141811505.00 32868075.00 L 141849776.41 32883926.00  z"/>
<path id="N" d="M 148879582.41 32873926.00 L 149079515.00 32873926.00 L 149117784.00 32858075.00 L 149217752.00 32758107.00 L 149233603.00 32719835.59 L 149233604.00 32619871.00 L 149217752.00 32581602.00 L 148910270.00 32274120.00 L 149179483.00 32274120.00 A 54118.70 54118.70 0 1 0 149179483.00 32165880.00 L 148779612.00 32165879.00 A 54122.11 54122.11 0 0 0 148741343.00 32258269.00 L 149125363.00 32642289.00 L 149125363.00 32697420.00 L 149057097.00 32765686.00 L 148901998.00 32765686.00 L 148817881.00 32681569.00 A 54121.84 54121.84 0 0 0 148741343.00 32758107.00 L 148841311.00 32858075.00 L 148879582.41 32873926.00  z"/>
<path id="N" d="M 97609776.41 32873926.00 L 97809709.00 32873926.00 L 97847978.00 32858075.00 L 97947946.00 32758107.00 L 97963797.00 32719835.59 L 97963798.00 32619871.00 L 97947946.00 32581602.00 L 97640464.00 32274120.00 L 97909677.00 32274120.00 A 54118.70 54118.70 0 1 0 97909677.00 32165880.00 L 97509806.00 32165879.00 A 54122.11 54122.11 0 0 0 97471537.00 32258269.00 L 97855557.00 32642289.00 L 97855557.00 32697420.00 L 97787291.00 32765686.00 L 97632192.00 32765686.00 L 97548075.00 32681569.00 A 54121.84 54121.84 0 1 0 97471537.00 32758107.00 L 97571505.00 32858075.00 L 97609776.41 32873926.00  z"/>
<path id="N" d="M 120639614.41 32883926.00 L 120839547.00 32883926.00 L 120877816.00 32868075.00 L 120977784.00 32768107.00 L 120993635.00 32729835.59 L 120993636.00 32629871.00 L 120977784.00 32591602.00 L 120670302.00 32284120.00 L 120939515.00 32284120.00 A 54118.70 54118.70 0 1 0 120939515.00 32175880.00 L 120539644.00 32175879.00 A 54122.11 54122.11 0 0 0 120501375.00 32268269.00 L 120885395.00 32652289.00 L 120885395.00 32707420.00 L 120817129.00 32775686.00 L 120662030.00 32775686.00 L 120577913.00 32691569.00 A 54121.84 54121.84 0 1 0 120501375.00 32768107.00 L 120601343.00 32868075.00 L 120639614.41 32883926.00  z"/>
<path id="N" d="M 116229776.41 32883926.00 L 116429709.00 32883926.00 L 116467978.00 32868075.00 L 116567946.00 32768107.00 L 116583797.00 32729835.59 L 116583798.00 32629871.00 L 116567946.00 32591602.00 L 116260464.00 32284120.00 L 116529677.00 32284120.00 A 54118.70 54118.70 0 1 0 116529677.00 32175880.00 L 116129806.00 32175879.00 A 54122.11 54122.11 0 0 0 116091537.00 32268269.00 L 116475557.00 32652289.00 L 116475557.00 32707420.00 L 116407291.00 32775686.00 L 116252192.00 32775686.00 L 116168075.00 32691569.00 A 54121.84 54121.84 0 1 0 116091537.00 32768107.00 L 116191505.00 32868075.00 L 116229776.41 32883926.00  z"/>
<path id="N" d="M 145069776.41 32883926.00 L 145269709.00 32883926.00 L 145307978.00 32868075.00 L 145407946.00 32768107.00 L 145423797.00 32729835.59 L 145423798.00 32629871.00 L 145407946.00 32591602.00 L 145100464.00 32284120.00 L 145369677.00 32284120.00 A 54118.70 54118.70 0 1 0 145369677.00 32175880.00 L 144969806.00 32175879.00 A 54122.11 54122.11 0 0 0 144931537.00 32268269.00 L 145315557.00 32652289.00 L 145315557.00 32707420.00 L 145247291.00 32775686.00 L 145092192.00 32775686.00 L 145008075.00 32691569.00 A 54121.84 54121.84 0 1 0 144931537.00 32768107.00 L 145031505.00 32868075.00 L 145069776.41 32883926.00  z"/>
<path id="N" d="M 70759871.00 32765686.00 L 70714023.00 32765686.00 L 70714024.00 32319968.00 L 70698172.00 32281699.00 L 70598204.00 32181731.00 L 70559935.00 32165880.00 L 70459968.00 32165879.00 L 70421699.00 32181731.00 L 70321731.00 32281699.00 A 54121.84 54121.84 0 0 0 70398269.00 32358237.00 L 70482386.00 32274120.00 L 70537517.00 32274120.00 L 70605783.00 32342386.00 L 70605783.00 32765686.00 L 70559935.00 32765686.00 A 54118.70 54118.70 0 0 0 70559935.00 32873926.00 L 70759871.00 32873926.00 A 54121.84 54121.84 0 0 0 70759871.00 32765686.00  z"/>
<path id="N" d="M 73369871.00 32765686.00 L 73324023.00 32765686.00 L 73324024.00 32319968.00 L 73308172.00 32281699.00 L 73208204.00 32181731.00 L 73169935.00 32165880.00 L 73069968.00 32165879.00 L 73031699.00 32181731.00 L 72931731.00 32281699.00 A 54121.84 54121.84 0 1 0 73008269.00 32358237.00 L 73092386.00 32274120.00 L 73147517.00 32274120.00 L 73215783.00 32342386.00 L 73215783.00 32765686.00 L 73169935.00 32765686.00 A 54118.70 54118.70 0 1 0 73169935.00 32873926.00 L 73369871.00 32873926.00 A 54121.84 54121.84 0 0 0 73369871.00 32765686.00  z"/>
<path id="N" d="M 69019871.00 32775686.00 L 68974023.00 32775686.00 L 68974024.00 32329968.00 L 68958172.00 32291699.00 L 68858204.00 32191731.00 L 68819935.00 32175880.00 L 68719968.00 32175879.00 L 68681699.00 32191731.00 L 68581731.00 32291699.00 A 54121.84 54121.84 0 0 0 68658269.00 32368237.00 L 68742386.00 32284120.00 L 68797517.00 32284120.00 L 68865783.00 32352386.00 L 68865783.00 32775686.00 L 68819935.00 32775686.00 A 54118.70 54118.70 0 0 0 68819935.00 32883926.00 L 69019871.00 32883926.00 A 54121.84 54121.84 0 0 0 69019871.00 32775686.00  z"/>
<path id="N" d="M 97309871.00 32765686.00 L 97264023.00 32765686.00 L 97264024.00 32319968.00 L 97248172.00 32281699.00 L 97148204.00 32181731.00 L 97109935.00 32165880.00 L 97009968.00 32165879.00 L 96971699.00 32181731.00 L 96871731.00 32281699.00 A 54121.84 54121.84 0 0 0 96948269.00 32358237.00 L 97032386.00 32274120.00 L 97087517.00 32274120.00 L 97155783.00 32342386.00 L 97155783.00 32765686.00 L 97109935.00 32765686.00 A 54118.70 54118.70 0 0 0 97109935.00 32873926.00 L 97309871.00 32873926.00 A 54121.84 54121.84 0 0 0 97309871.00 32765686.00  z"/>
<path id="N" d="M 150279871.00 32775686.00 L 150234023.00 32775686.00 L 150234024.00 32329968.00 L 150218172.00 32291699.00 L 150118204.00 32191731.00 L 150079935.00 32175880.00 L 149979968.00 32175879.00 L 149941699.00 32191731.00 L 149841731.00 32291699.00 A 54121.84 54121.84 0 0 0 149918269.00 32368237.00 L 150002386.00 32284120.00 L 150057517.00 32284120.00 L 150125783.00 32352386.00 L 150125783.00 32775686.00 L 150079935.00 32775686.00 A 54118.70 54118.70 0 0 0 150079935.00 32883926.00 L 150279871.00 32883926.00 A 54121.84 54121.84 0 0 0 150279871.00 32775686.00  z"/>
<path id="N" d="M 93879871.00 32775686.00 L 93834023.00 32775686.00 L 93834024.00 32329968.00 L 93818172.00 32291699.00 L 93718204.00 32191731.00 L 93679935.00 32175880.00 L 93579968.00 32175879.00 L 93541699.00 32191731.00 L 93441731.00 32291699.00 A 54121.84 54121.84 0 0 0 93518269.00 32368237.00 L 93602386.00 32284120.00 L 93657517.00 32284120.00 L 93725783.00 32352386.00 L 93725783.00 32775686.00 L 93679935.00 32775686.00 A 54118.70 54118.70 0 0 0 93679935.00 32883926.00 L 93879871.00 32883926.00 A 54121.84 54121.84 0 0 0 93879871.00 32775686.00  z"/>
<path id="N" d="M 79009871.00 32775686.00 L 78964023.00 32775686.00 L 78964024.00 32329968.00 L 78948172.00 32291699.00 L 78848204.00 32191731.00 L 78809935.00 32175880.00 L 78709968.00 32175879.00 L 78671699.00 32191731.00 L 78571731.00 32291699.00 A 54121.84 54121.84 0 1 0 78648269.00 32368237.00 L 78732386.00 32284120.00 L 78787517.00 32284120.00 L 78855783.00 32352386.00 L 78855783.00 32775686.00 L 78809935.00 32775686.00 A 54118.70 54118.70 0 1 0 78809935.00 32883926.00 L 79009871.00 32883926.00 A 54121.84 54121.84 0 0 0 79009871.00 32775686.00  z"/>
<path id="N" d="M 75079871.00 32775686.00 L 75034023.00 32775686.00 L 75034024.00 32329968.00 L 75018172.00 32291699.00 L 74918204.00 32191731.00 L 74879935.00 32175880.00 L 74779968.00 32175879.00 L 74741699.00 32191731.00 L 74641731.00 32291699.00 A 54121.84 54121.84 0 0 0 74718269.00 32368237.00 L 74802386.00 32284120.00 L 74857517.00 32284120.00 L 74925783.00 32352386.00 L 74925783.00 32775686.00 L 74879935.00 32775686.00 A 54118.70 54118.70 0 0 0 74879935.00 32883926.00 L 75079871.00 32883926.00 A 54121.84 54121.84 0 0 0 75079871.00 32775686.00  z"/>
<path id="N" d="M 104563667.00 32829803.59 L 104563667.00 32584023.00 L 104609515.00 32584023.00 A 54118.70 54118.70 0 1 0 104609515.00 32475783.00 L 104563667.00 32475783.00 L 104563667.00 32230000.00 A 54118.70 54118.70 0 0 0 104455427.00 32230000.00 L 104455427.00 32475783.00 L 104209644.00 32475782.00 A 54122.11 54122.11 0 0 0 104171375.00 32568172.00 L 104471278.00 32868075.00 A 54119.43 54119.43 0 0 0 104563667.00 32829803.59  zM 104455427.00 32699148.00 L 104340302.00 32584023.00 L 104455427.00 32584023.00 L 104455427.00 32699148.00  z"/>
<path id="N" d="M 122593829.00 32829803.59 L 122593829.00 32584023.00 L 122639677.00 32584023.00 A 54118.70 54118.70 0 1 0 122639677.00 32475783.00 L 122593829.00 32475783.00 L 122593829.00 32230000.00 A 54118.70 54118.70 0 0 0 122485589.00 32230000.00 L 122485589.00 32475783.00 L 122239806.00 32475782.00 A 54122.11 54122.11 0 0 0 122201537.00 32568172.00 L 122501440.00 32868075.00 A 54119.43 54119.43 0 0 0 122593829.00 32829803.59  zM 122485589.00 32699148.00 L 122370464.00 32584023.00 L 122485589.00 32584023.00 L 122485589.00 32699148.00  z"/>
<path id="N" d="M 128487816.00 32868075.00 L 128587784.00 32768107.00 L 128603635.00 32729838.00 L 128603636.00 32329968.00 L 128587784.00 32291699.00 L 128487816.00 32191731.00 L 128449547.00 32175880.00 L 128249612.00 32175879.00 L 128211343.00 32191731.00 L 128111375.00 32291699.00 L 128095524.00 32329968.00 L 128095523.00 32729838.00 L 128111375.00 32768107.00 L 128211343.00 32868075.00 L 128249612.00 32883926.00 L 128449547.00 32883927.00 L 128487816.00 32868075.00  zM 128427129.00 32775686.00 L 128272030.00 32775686.00 L 128203764.00 32707420.00 L 128203764.00 32352386.00 L 128272030.00 32284120.00 L 128427129.00 32284120.00 L 128495395.00 32352386.00 L 128495395.00 32707420.00 L 128427129.00 32775686.00  z"/>
<path id="N" d="M 131903829.00 32829803.59 L 131903829.00 32584023.00 L 131949677.00 32584023.00 A 54118.70 54118.70 0 0 0 131949677.00 32475783.00 L 131903829.00 32475783.00 L 131903829.00 32230000.00 A 54118.70 54118.70 0 1 0 131795589.00 32230000.00 L 131795589.00 32475783.00 L 131549806.00 32475782.00 A 54122.11 54122.11 0 0 0 131511537.00 32568172.00 L 131811440.00 32868075.00 A 54119.43 54119.43 0 0 0 131903829.00 32829803.59  zM 131795589.00 32699148.00 L 131680464.00 32584023.00 L 131795589.00 32584023.00 L 131795589.00 32699148.00  z"/>
<path id="N" d="M 108563635.00 32819803.59 L 108563635.00 32574023.00 L 108609483.00 32574023.00 A 54118.70 54118.70 0 0 0 108609483.00 32465783.00 L 108563635.00 32465783.00 L 108563635.00 32220000.00 A 54118.70 54118.70 0 1 0 108455395.00 32220000.00 L 108455395.00 32465783.00 L 108209612.00 32465782.00 A 54122.11 54122.11 0 0 0 108171343.00 32558172.00 L 108471246.00 32858075.00 A 54119.43 54119.43 0 0 0 108563635.00 32819803.59  zM 108455395.00 32689148.00 L 108340270.00 32574023.00 L 108455395.00 32574023.00 L 108455395.00 32689148.00  z"/>
<path id="N" d="M 79563829.00 32829803.59 L 79563829.00 32584023.00 L 79609677.00 32584023.00 A 54118.70 54118.70 0 0 0 79609677.00 32475783.00 L 79563829.00 32475783.00 L 79563829.00 32230000.00 A 54118.70 54118.70 0 1 0 79455589.00 32230000.00 L 79455589.00 32475783.00 L 79209806.00 32475782.00 A 54122.11 54122.11 0 0 0 79171537.00 32568172.00 L 79471440.00 32868075.00 A 54119.43 54119.43 0 0 0 79563829.00 32829803.59  zM 79455589.00 32699148.00 L 79340464.00 32584023.00 L 79455589.00 32584023.00 L 79455589.00 32699148.00  z"/>
<path id="N" d="M 86343991.00 32829806.00 L 86343991.00 32729838.00 L 86328138.29 32691568.29 L 86144055.00 32507485.00 L 86144055.00 32230000.00 A 54118.70 54118.70 0 0 0 86035815.00 32230000.00 L 86035815.00 32507485.92 L 85851731.00 32691569.00 L 85835880.00 32729840.41 L 85835880.00 32829806.00 A 54118.70 54118.70 0 1 0 85944120.00 32829806.00 L 85944120.00 32752255.92 L 86089934.79 32606440.40 L 86235751.00 32752255.16 L 86235751.00 32829806.00 A 54118.70 54118.70 0 0 0 86343991.00 32829806.00  z"/>
<path id="N" d="M 114157978.00 32858075.00 L 114257946.00 32758107.00 L 114273797.00 32719838.00 L 114273798.00 32519903.00 L 114257946.00 32481634.00 L 114157978.00 32381666.00 L 114119709.00 32365815.00 L 113873926.00 32365815.00 L 113873926.00 32220000.00 A 54118.70 54118.70 0 1 0 113765686.00 32220000.00 L 113765686.00 32819806.00 L 113781537.00 32858075.00 L 113819806.00 32873926.00 L 114119709.00 32873927.00 L 114157978.00 32858075.00  zM 114097291.00 32765686.00 L 113873926.00 32765686.00 L 113873926.00 32474055.00 L 114097291.00 32474055.00 L 114165557.00 32542321.00 L 114165557.00 32697420.00 L 114097291.00 32765686.00  z"/>
<path id="N" d="M 148517978.00 32858075.00 L 148617946.00 32758107.00 L 148633797.00 32719838.00 L 148633798.00 32519903.00 L 148617946.00 32481634.00 L 148517978.00 32381666.00 L 148479709.00 32365815.00 L 148233926.00 32365815.00 L 148233926.00 32220000.00 A 54118.70 54118.70 0 0 0 148125686.00 32220000.00 L 148125686.00 32819806.00 L 148141537.00 32858075.00 L 148179806.00 32873926.00 L 148479709.00 32873927.00 L 148517978.00 32858075.00  zM 148457291.00 32765686.00 L 148233926.00 32765686.00 L 148233926.00 32474055.00 L 148457291.00 32474055.00 L 148525557.00 32542321.00 L 148525557.00 32697420.00 L 148457291.00 32765686.00  z"/>
<path id="N" d="M 162387978.00 32858075.00 L 162487946.00 32758107.00 L 162503797.00 32719838.00 L 162503798.00 32519903.00 L 162487946.00 32481634.00 L 162387978.00 32381666.00 L 162349709.00 32365815.00 L 162103926.00 32365815.00 L 162103926.00 32220000.00 A 54118.70 54118.70 0 1 0 161995686.00 32220000.00 L 161995686.00 32819806.00 L 162011537.00 32858075.00 L 162049806.00 32873926.00 L 162349709.00 32873927.00 L 162387978.00 32858075.00  zM 162327291.00 32765686.00 L 162103926.00 32765686.00 L 162103926.00 32474055.00 L 162327291.00 32474055.00 L 162395557.00 32542321.00 L 162395557.00 32697420.00 L 162327291.00 32765686.00  z"/>
<path id="N" d="M 107947978.00 32858075.00 L 108047946.00 32758107.00 L 108063797.00 32719838.00 L 108063798.00 32519903.00 L 108047946.00 32481634.00 L 107947978.00 32381666.00 L 107909709.00 32365815.00 L 107663926.00 32365815.00 L 107663926.00 32220000.00 A 54118.70 54118.70 0 1 0 107555686.00 32220000.00 L 107555686.00 32819806.00 L 107571537.00 32858075.00 L 107609806.00 32873926.00 L 107909709.00 32873927.00 L 107947978.00 32858075.00  zM 107887291.00 32765686.00 L 107663926.00 32765686.00 L 107663926.00 32474055.00 L 107887291.00 32474055.00 L 107955557.00 32542321.00 L 107955557.00 32697420.00 L 107887291.00 32765686.00  z"/>
<path id="N" d="M 124603732.00 32829803.59 L 124603732.00 32284120.00 L 124649579.00 32284120.00 A 54118.70 54118.70 0 0 0 124649579.00 32175880.00 L 124449644.00 32175880.00 A 54118.70 54118.70 0 1 0 124449644.00 32284120.00 L 124495492.00 32284120.00 L 124495492.00 32699148.00 L 124487913.00 32691569.00 A 54121.84 54121.84 0 1 0 124411375.00 32768107.00 L 124511343.00 32868075.00 A 54119.43 54119.43 0 0 0 124603732.00 32829803.59  z"/>
<path id="N" d="M 127803894.00 32829803.59 L 127803894.00 32284120.00 L 127849741.00 32284120.00 A 54118.70 54118.70 0 1 0 127849741.00 32175880.00 L 127649806.00 32175880.00 A 54118.70 54118.70 0 0 0 127649806.00 32284120.00 L 127695654.00 32284120.00 L 127695654.00 32699148.00 L 127688075.00 32691569.00 A 54121.84 54121.84 0 1 0 127611537.00 32768107.00 L 127711505.00 32868075.00 A 54119.43 54119.43 0 0 0 127803894.00 32829803.59  z"/>
<path id="N" d="M 77163894.00 32829803.59 L 77163894.00 32284120.00 L 77209741.00 32284120.00 A 54118.70 54118.70 0 1 0 77209741.00 32175880.00 L 77009806.00 32175880.00 A 54118.70 54118.70 0 0 0 77009806.00 32284120.00 L 77055654.00 32284120.00 L 77055654.00 32699148.00 L 77048075.00 32691569.00 A 54121.84 54121.84 0 1 0 76971537.00 32768107.00 L 77071505.00 32868075.00 A 54119.43 54119.43 0 0 0 77163894.00 32829803.59  z"/>
<path id="N" d="M 84443894.00 32829803.59 L 84443894.00 32284120.00 L 84489741.00 32284120.00 A 54118.70 54118.70 0 1 0 84489741.00 32175880.00 L 84289806.00 32175880.00 A 54118.70 54118.70 0 0 0 84289806.00 32284120.00 L 84335654.00 32284120.00 L 84335654.00 32699148.00 L 84328075.00 32691569.00 A 54121.84 54121.84 0 1 0 84251537.00 32768107.00 L 84351505.00 32868075.00 A 54119.43 54119.43 0 0 0 84443894.00 32829803.59  z"/>
<path id="N" d="M 89823894.00 32829803.59 L 89823894.00 32284120.00 L 89869741.00 32284120.00 A 54118.70 54118.70 0 0 0 89869741.00 32175880.00 L 89669806.00 32175880.00 A 54118.70 54118.70 0 0 0 89669806.00 32284120.00 L 89715654.00 32284120.00 L 89715654.00 32699148.00 L 89708075.00 32691569.00 A 54121.84 54121.84 0 0 0 89631537.00 32768107.00 L 89731505.00 32868075.00 A 54119.43 54119.43 0 0 0 89823894.00 32829803.59  z"/>
<path id="N" d="M 103863894.00 32829803.59 L 103863894.00 32284120.00 L 103909741.00 32284120.00 A 54118.70 54118.70 0 0 0 103909741.00 32175880.00 L 103709806.00 32175880.00 A 54118.70 54118.70 0 0 0 103709806.00 32284120.00 L 103755654.00 32284120.00 L 103755654.00 32699148.00 L 103748075.00 32691569.00 A 54121.84 54121.84 0 1 0 103671537.00 32768107.00 L 103771505.00 32868075.00 A 54119.43 54119.43 0 0 0 103863894.00 32829803.59  z"/>
<path id="N" d="M 124103894.00 32829803.59 L 124103894.00 32284120.00 L 124149741.00 32284120.00 A 54118.70 54118.70 0 1 0 124149741.00 32175880.00 L 123949806.00 32175880.00 A 54118.70 54118.70 0 0 0 123949806.00 32284120.00 L 123995654.00 32284120.00 L 123995654.00 32699148.00 L 123988075.00 32691569.00 A 54121.84 54121.84 0 1 0 123911537.00 32768107.00 L 124011505.00 32868075.00 A 54119.43 54119.43 0 0 0 124103894.00 32829803.59  z"/>
<path id="N" d="M 69672264.00 31846988.00 L 69684745.00 31816855.00 L 69684745.00 27120005.00 L 69672264.00 27089872.00 L 69642131.00 27077391.00 L 69611998.00 27089872.00 L 69599517.00 27120005.00 L 69599517.00 31774241.00 L 68670965.00 31774241.00 L 68670965.00 26564194.00 L 69150005.00 26564194.00 L 69180138.00 26551713.00 L 69192619.00 26521580.00 L 69180138.00 26491447.00 L 69150005.00 26478966.00 L 68628351.00 26478966.00 L 68598218.00 26491447.00 L 68585737.00 26521580.00 L 68585737.00 31816855.00 L 68598218.00 31846988.00 L 68628351.00 31859469.00 L 69642131.00 31859469.00 L 69672264.00 31846988.00  z"/>
<path id="N" d="M 75732264.00 31846988.00 L 75744745.00 31816855.00 L 75744745.00 27120005.00 L 75732264.00 27089872.00 L 75702131.00 27077391.00 L 75671998.00 27089872.00 L 75659517.00 27120005.00 L 75659517.00 31774241.00 L 74730965.00 31774241.00 L 74730965.00 26564194.00 L 75210005.00 26564194.00 L 75240138.00 26551713.00 L 75252619.00 26521580.00 L 75240138.00 26491447.00 L 75210005.00 26478966.00 L 74688351.00 26478966.00 L 74658218.00 26491447.00 L 74645737.00 26521580.00 L 74645737.00 31816855.00 L 74658218.00 31846988.00 L 74688351.00 31859469.00 L 75702131.00 31859469.00 L 75732264.00 31846988.00  z"/>
<path id="N" d="M 94532264.00 31846988.00 L 94544745.00 31816855.00 L 94544745.00 27120005.00 L 94532264.00 27089872.00 L 94502131.00 27077391.00 L 94471998.00 27089872.00 L 94459517.00 27120005.00 L 94459517.00 31774241.00 L 93530965.00 31774241.00 L 93530965.00 26564194.00 L 94010005.00 26564194.00 L 94040138.00 26551713.00 L 94052619.00 26521580.00 L 94040138.00 26491447.00 L 94010005.00 26478966.00 L 93488351.00 26478966.00 L 93458218.00 26491447.00 L 93445737.00 26521580.00 L 93445737.00 31816855.00 L 93458218.00 31846988.00 L 93488351.00 31859469.00 L 94502131.00 31859469.00 L 94532264.00 31846988.00  z"/>
<path id="N" d="M 99063991.00 32819806.00 L 99063991.00 32319968.00 L 99048140.00 32281699.00 L 98948172.00 32181731.00 L 98909900.59 32165880.00 L 98709968.00 32165880.00 L 98671699.00 32181731.00 L 98571731.00 32281699.00 L 98555880.00 32319970.41 L 98555880.00 32819806.00 A 54118.70 54118.70 0 1 0 98664120.00 32819806.00 L 98664120.00 32342386.00 L 98732386.00 32274120.00 L 98887485.00 32274120.00 L 98955751.00 32342386.00 L 98955751.00 32819806.00 A 54118.70 54118.70 0 0 0 99063991.00 32819806.00  z"/>
<path id="N" d="M 115983991.00 32829806.00 L 115983991.00 32329968.00 L 115968140.00 32291699.00 L 115868172.00 32191731.00 L 115829900.59 32175880.00 L 115629968.00 32175880.00 L 115591699.00 32191731.00 L 115491731.00 32291699.00 L 115475880.00 32329970.41 L 115475880.00 32829806.00 A 54118.70 54118.70 0 0 0 115584120.00 32829806.00 L 115584120.00 32352386.00 L 115652386.00 32284120.00 L 115807485.00 32284120.00 L 115875751.00 32352386.00 L 115875751.00 32829806.00 A 54118.70 54118.70 0 0 0 115983991.00 32829806.00  z"/>
<path id="N" d="M 155033991.00 32829806.00 L 155033991.00 32329968.00 L 155018140.00 32291699.00 L 154918172.00 32191731.00 L 154879900.59 32175880.00 L 154679968.00 32175880.00 L 154641699.00 32191731.00 L 154541731.00 32291699.00 L 154525880.00 32329970.41 L 154525880.00 32829806.00 A 54118.70 54118.70 0 0 0 154634120.00 32829806.00 L 154634120.00 32352386.00 L 154702386.00 32284120.00 L 154857485.00 32284120.00 L 154925751.00 32352386.00 L 154925751.00 32829806.00 A 54118.70 54118.70 0 0 0 155033991.00 32829806.00  z"/>
<path id="N" d="M 86643894.00 32829803.59 L 86643894.00 32284120.00 L 86689741.00 32284120.00 A 54118.70 54118.70 0 0 0 86689741.00 32175880.00 L 86489806.00 32175880.00 A 54118.70 54118.70 0 0 0 86489806.00 32284120.00 L 86535654.00 32284120.00 L 86535654.00 32699148.00 L 86528075.00 32691569.00 A 54121.84 54121.84 0 0 0 86451537.00 32768107.00 L 86551505.00 32868075.00 A 54119.43 54119.43 0 0 0 86643894.00 32829803.59  z"/>
<path id="N" d="M 159303894.00 32829803.59 L 159303894.00 32284120.00 L 159349741.00 32284120.00 A 54118.70 54118.70 0 1 0 159349741.00 32175880.00 L 159149806.00 32175880.00 A 54118.70 54118.70 0 0 0 159149806.00 32284120.00 L 159195654.00 32284120.00 L 159195654.00 32699148.00 L 159188075.00 32691569.00 A 54121.84 54121.84 0 1 0 159111537.00 32768107.00 L 159211505.00 32868075.00 A 54119.43 54119.43 0 0 0 159303894.00 32829803.59  z"/>
<path id="N" d="M 162803700.00 32819803.59 L 162803700.00 32274120.00 L 162849547.00 32274120.00 A 54118.70 54118.70 0 0 0 162849547.00 32165880.00 L 162649612.00 32165880.00 A 54118.70 54118.70 0 1 0 162649612.00 32274120.00 L 162695460.00 32274120.00 L 162695460.00 32689148.00 L 162687881.00 32681569.00 A 54121.84 54121.84 0 0 0 162611343.00 32758107.00 L 162711311.00 32858075.00 A 54119.43 54119.43 0 0 0 162803700.00 32819803.59  z"/>
<path id="N" d="M 143603894.00 32829803.59 L 143603894.00 32284120.00 L 143649741.00 32284120.00 A 54118.70 54118.70 0 0 0 143649741.00 32175880.00 L 143449806.00 32175880.00 A 54118.70 54118.70 0 1 0 143449806.00 32284120.00 L 143495654.00 32284120.00 L 143495654.00 32699148.00 L 143488075.00 32691569.00 A 54121.84 54121.84 0 0 0 143411537.00 32768107.00 L 143511505.00 32868075.00 A 54119.43 54119.43 0 0 0 143603894.00 32829803.59  z"/>
<path id="N" d="M 146823894.00 32829803.59 L 146823894.00 32284120.00 L 146869741.00 32284120.00 A 54118.70 54118.70 0 0 0 146869741.00 32175880.00 L 146669806.00 32175880.00 A 54118.70 54118.70 0 0 0 146669806.00 32284120.00 L 146715654.00 32284120.00 L 146715654.00 32699148.00 L 146708075.00 32691569.00 A 54121.84 54121.84 0 1 0 146631537.00 32768107.00 L 146731505.00 32868075.00 A 54119.43 54119.43 0 0 0 146823894.00 32829803.59  z"/>
<path id="N" d="M 150633894.00 32829803.59 L 150633894.00 32284120.00 L 150679741.00 32284120.00 A 54118.70 54118.70 0 0 0 150679741.00 32175880.00 L 150479806.00 32175880.00 A 54118.70 54118.70 0 0 0 150479806.00 32284120.00 L 150525654.00 32284120.00 L 150525654.00 32699148.00 L 150518075.00 32691569.00 A 54121.84 54121.84 0 1 0 150441537.00 32768107.00 L 150541505.00 32868075.00 A 54119.43 54119.43 0 0 0 150633894.00 32829803.59  z"/>
<path id="N" d="M 120193894.00 32829803.59 L 120193894.00 32284120.00 L 120239741.00 32284120.00 A 54118.70 54118.70 0 0 0 120239741.00 32175880.00 L 120039806.00 32175880.00 A 54118.70 54118.70 0 0 0 120039806.00 32284120.00 L 120085654.00 32284120.00 L 120085654.00 32699148.00 L 120078075.00 32691569.00 A 54121.84 54121.84 0 1 0 120001537.00 32768107.00 L 120101505.00 32868075.00 A 54119.43 54119.43 0 0 0 120193894.00 32829803.59  z"/>
<path id="N" d="M 110063894.00 32829803.59 L 110063894.00 32284120.00 L 110109741.00 32284120.00 A 54118.70 54118.70 0 0 0 110109741.00 32175880.00 L 109909806.00 32175880.00 A 54118.70 54118.70 0 1 0 109909806.00 32284120.00 L 109955654.00 32284120.00 L 109955654.00 32699148.00 L 109948075.00 32691569.00 A 54121.84 54121.84 0 0 0 109871537.00 32768107.00 L 109971505.00 32868075.00 A 54119.43 54119.43 0 0 0 110063894.00 32829803.59  z"/>
<path id="N" d="M 155333894.00 32829803.59 L 155333894.00 32284120.00 L 155379741.00 32284120.00 A 54118.70 54118.70 0 1 0 155379741.00 32175880.00 L 155179806.00 32175880.00 A 54118.70 54118.70 0 0 0 155179806.00 32284120.00 L 155225654.00 32284120.00 L 155225654.00 32699148.00 L 155218075.00 32691569.00 A 54121.84 54121.84 0 1 0 155141537.00 32768107.00 L 155241505.00 32868075.00 A 54119.43 54119.43 0 0 0 155333894.00 32829803.59  z"/>
<path id="N" d="M 92023894.00 32829803.59 L 92023894.00 32284120.00 L 92069741.00 32284120.00 A 54118.70 54118.70 0 1 0 92069741.00 32175880.00 L 91869806.00 32175880.00 A 54118.70 54118.70 0 1 0 91869806.00 32284120.00 L 91915654.00 32284120.00 L 91915654.00 32699148.00 L 91908075.00 32691569.00 A 54121.84 54121.84 0 1 0 91831537.00 32768107.00 L 91931505.00 32868075.00 A 54119.43 54119.43 0 0 0 92023894.00 32829803.59  z"/>
<path id="N" d="M 85243635.00 32829806.00 L 85243636.00 32729838.00 L 85227784.00 32691569.00 L 84843764.00 32307550.92 L 84843764.00 32230000.00 A 54118.70 54118.70 0 1 0 84735524.00 32230000.00 L 84735524.00 32329968.00 L 84751376.71 32368237.71 L 85135395.00 32752256.00 L 85135395.00 32775686.00 L 84789644.00 32775686.00 A 54118.70 54118.70 0 0 0 84789644.00 32883926.00 L 85189515.00 32883926.00 L 85227784.00 32868075.00 L 85243635.00 32829806.00  z"/>
<path id="N" d="M 137103797.00 32829806.00 L 137103798.00 32729838.00 L 137087946.00 32691569.00 L 136703926.00 32307550.92 L 136703926.00 32230000.00 A 54118.70 54118.70 0 1 0 136595686.00 32230000.00 L 136595686.00 32329968.00 L 136611538.71 32368237.71 L 136995557.00 32752256.00 L 136995557.00 32775686.00 L 136649806.00 32775686.00 A 54118.70 54118.70 0 0 0 136649806.00 32883926.00 L 137049677.00 32883926.00 L 137087946.00 32868075.00 L 137103797.00 32829806.00  z"/>
<path id="N" d="M 75733797.00 32829806.00 L 75733798.00 32729838.00 L 75717946.00 32691569.00 L 75333926.00 32307550.92 L 75333926.00 32230000.00 A 54118.70 54118.70 0 0 0 75225686.00 32230000.00 L 75225686.00 32329968.00 L 75241538.71 32368237.71 L 75625557.00 32752256.00 L 75625557.00 32775686.00 L 75279806.00 32775686.00 A 54118.70 54118.70 0 1 0 75279806.00 32883926.00 L 75679677.00 32883926.00 L 75717946.00 32868075.00 L 75733797.00 32829806.00  z"/>
<path id="N" d="M 158888172.00 32868075.00 L 158988140.00 32768107.00 L 159003991.00 32729835.59 L 159003991.00 32329968.00 L 158988140.00 32291699.00 L 158888172.00 32191731.00 L 158849900.59 32175880.00 L 158550000.00 32175880.00 L 158511731.00 32191731.00 L 158495880.00 32230000.00 L 158495880.00 32829806.00 L 158511731.00 32868075.00 L 158550000.00 32883926.00 L 158849903.00 32883926.00 L 158888172.00 32868075.00  zM 158827485.00 32775686.00 L 158604120.00 32775686.00 L 158604120.00 32284120.00 L 158827485.00 32284120.00 L 158895751.00 32352386.00 L 158895751.00 32707420.00 L 158827485.00 32775686.00  z"/>
<path id="N" d="M 102453797.00 32829806.00 L 102453798.00 32729838.00 L 102437946.00 32691569.00 L 102053926.00 32307550.92 L 102053926.00 32230000.00 A 54118.70 54118.70 0 0 0 101945686.00 32230000.00 L 101945686.00 32329968.00 L 101961538.71 32368237.71 L 102345557.00 32752256.00 L 102345557.00 32775686.00 L 101999806.00 32775686.00 A 54118.70 54118.70 0 1 0 101999806.00 32883926.00 L 102399677.00 32883926.00 L 102437946.00 32868075.00 L 102453797.00 32829806.00  z"/>
<path id="N" d="M 86608957.00 30814232.00 L 86621438.00 30784099.00 L 86608957.00 30753966.00 L 86578824.00 30741485.00 L 86247422.00 30741485.00 L 86247422.00 26338525.00 L 86578824.00 26338525.00 L 86608957.00 26326044.00 L 86621438.00 26295911.00 L 86608957.00 26265778.00 L 86578824.00 26253297.00 L 86204808.00 26253297.00 L 86174675.00 26265778.00 L 86162194.00 26295911.00 L 86162194.00 30784099.00 L 86174675.00 30814232.00 L 86204808.00 30826713.00 L 86578824.00 30826713.00 L 86608957.00 30814232.00  z"/>
<path id="N" d="M 88085335.00 30814232.00 L 88097816.00 30784099.00 L 88097816.00 26295911.00 L 88085335.00 26265778.00 L 88055202.00 26253297.00 L 87681186.00 26253297.00 L 87651053.00 26265778.00 L 87638572.00 26295911.00 L 87651053.00 26326044.00 L 87681186.00 26338525.00 L 88012588.00 26338525.00 L 88012588.00 30741485.00 L 87681186.00 30741485.00 L 87651053.00 30753966.00 L 87638572.00 30784099.00 L 87651053.00 30814232.00 L 87681186.00 30826713.00 L 88055202.00 30826713.00 L 88085335.00 30814232.00  z"/>
<path id="N" d="M 153457382.00 29710217.00 L 153469863.00 29680084.00 L 153469863.00 29107249.00 L 153457382.00 29077116.00 L 153427249.00 29064635.00 L 150332761.00 29064635.00 L 150302628.00 29077116.00 L 150290147.00 29107249.00 L 150290147.00 29680084.00 L 150302628.00 29710217.00 L 150332761.00 29722698.00 L 150362894.00 29710217.00 L 150375375.00 29680084.00 L 150375375.00 29149863.00 L 153384635.00 29149863.00 L 153384635.00 29680084.00 L 153397116.00 29710217.00 L 153427249.00 29722698.00 L 153457382.00 29710217.00  z"/>
<path id="N" d="M 107409871.00 32765686.00 L 107264055.00 32765686.00 L 107264055.00 32220000.00 A 54118.70 54118.70 0 0 0 107155815.00 32220000.00 L 107155815.00 32765686.00 L 107010000.00 32765686.00 A 54118.70 54118.70 0 0 0 107010000.00 32873926.00 L 107409871.00 32873926.00 A 54121.84 54121.84 0 1 0 107409871.00 32765686.00  z"/>
<path id="N" d="M 113619871.00 32765686.00 L 113474055.00 32765686.00 L 113474055.00 32220000.00 A 54118.70 54118.70 0 1 0 113365815.00 32220000.00 L 113365815.00 32765686.00 L 113220000.00 32765686.00 A 54118.70 54118.70 0 1 0 113220000.00 32873926.00 L 113619871.00 32873926.00 A 54121.84 54121.84 0 0 0 113619871.00 32765686.00  z"/>
<path id="N" d="M 147979871.00 32765686.00 L 147834055.00 32765686.00 L 147834055.00 32220000.00 A 54118.70 54118.70 0 0 0 147725815.00 32220000.00 L 147725815.00 32765686.00 L 147580000.00 32765686.00 A 54118.70 54118.70 0 1 0 147580000.00 32873926.00 L 147979871.00 32873926.00 A 54121.84 54121.84 0 0 0 147979871.00 32765686.00  z"/>
<path id="N" d="M 161849871.00 32765686.00 L 161704055.00 32765686.00 L 161704055.00 32220000.00 A 54118.70 54118.70 0 0 0 161595815.00 32220000.00 L 161595815.00 32765686.00 L 161450000.00 32765686.00 A 54118.70 54118.70 0 0 0 161450000.00 32873926.00 L 161849871.00 32873926.00 A 54121.84 54121.84 0 0 0 161849871.00 32765686.00  z"/>
<path id="N" d="M 156850375.00 31759036.00 L 156862856.00 31728903.00 L 156862856.00 29091108.00 L 156850375.00 29060975.00 L 156820242.00 29048494.00 L 155599769.00 29048494.00 L 155569636.00 29060975.00 L 155557155.00 29091108.00 L 155557155.00 31728903.00 L 155569636.00 31759036.00 L 155599769.00 31771517.00 L 156820242.00 31771517.00 L 156850375.00 31759036.00  zM 156777628.00 31686289.00 L 155642383.00 31686289.00 L 155642383.00 29133722.00 L 156777628.00 29133722.00 L 156777628.00 31686289.00  z"/>
<path id="N" d="M 79046385.01 31851267.01 m -75210.70 0 a 75210.70 75210.70 0 1 1 150421.40 0a 75210.70 75210.70 0 1 1 -150421.40 0"/>
<path id="N" d="M 100729508.00 31094075.00 L 100741989.00 31063942.00 L 100741989.00 29056068.00 L 100729508.00 29025935.00 L 100699375.00 29013454.00 L 98620635.00 29013454.00 L 98590502.00 29025935.00 L 98578021.00 29056068.00 L 98578021.00 31063942.00 L 98590502.00 31094075.00 L 98620635.00 31106556.00 L 100699375.00 31106556.00 L 100729508.00 31094075.00  zM 100656761.00 31021328.00 L 98663249.00 31021328.00 L 98663249.00 29098682.00 L 100656761.00 29098682.00 L 100656761.00 31021328.00  z"/>
<path id="N" d="M 71755071.00 31455071.00 L 71761312.00 31440005.00 L 71761312.00 28440005.00 L 71755071.00 28424939.00 L 71740005.00 28418698.00 L 70740005.00 28418698.00 L 70724939.00 28424939.00 L 70718698.00 28440005.00 L 70718698.00 31440005.00 L 70724939.00 31455071.00 L 70740005.00 31461312.00 L 71740005.00 31461312.00 L 71755071.00 31455071.00  zM 71718698.00 31418698.00 L 70761312.00 31418698.00 L 70761312.00 28461312.00 L 71718698.00 28461312.00 L 71718698.00 31418698.00  z"/>
<path id="N" d="M 115527090.47 31677955.47 m -100354.75 0 a 100354.75 100354.75 0 1 1 200709.51 0a 100354.75 100354.75 0 1 1 -200709.51 0"/>
<path id="N" d="M 74000138.00 31854941.00 L 74012619.00 31824808.00 L 74012619.00 29675202.00 L 74000138.00 29645069.00 L 73970005.00 29632588.00 L 72970005.00 29632588.00 L 72939872.00 29645069.00 L 72927391.00 29675202.00 L 72927391.00 31824808.00 L 72939872.00 31854941.00 L 72970005.00 31867422.00 L 73970005.00 31867422.00 L 74000138.00 31854941.00  zM 73927391.00 31782194.00 L 73012619.00 31782194.00 L 73012619.00 29717816.00 L 73927391.00 29717816.00 L 73927391.00 31782194.00  z"/>
<path id="N" d="M 97940138.00 31854941.00 L 97952619.00 31824808.00 L 97952619.00 29675202.00 L 97940138.00 29645069.00 L 97910005.00 29632588.00 L 96910005.00 29632588.00 L 96879872.00 29645069.00 L 96867391.00 29675202.00 L 96867391.00 31824808.00 L 96879872.00 31854941.00 L 96910005.00 31867422.00 L 97910005.00 31867422.00 L 97940138.00 31854941.00  zM 97867391.00 31782194.00 L 96952619.00 31782194.00 L 96952619.00 29717816.00 L 97867391.00 29717816.00 L 97867391.00 31782194.00  z"/>
<path id="N" d="M 154969846.47 31827326.47 m -100354.75 0 a 100354.75 100354.75 0 1 1 200709.51 0a 100354.75 100354.75 0 1 1 -200709.51 0"/>
<path id="N" d="M 81186330.00 31539454.00 L 81186330.00 30366225.00 A 54118.70 54118.70 0 0 0 81078090.00 30366225.00 L 81078090.00 31485334.00 L 80713706.00 31485334.00 A 54118.70 54118.70 0 1 0 80713706.00 31593574.00 L 81132210.00 31593574.00 L 81170479.00 31577723.00 L 81186330.00 31539454.00  z"/>
<path id="N" d="M 118687146.00 29109665.00 L 118699627.00 29079532.00 L 118699627.00 28862997.00 L 118687146.00 28832864.00 L 118657013.00 28820383.00 L 118440478.00 28820383.00 L 118410345.00 28832864.00 L 118397864.00 28862997.00 L 118410345.00 28893130.00 L 118440478.00 28905611.00 L 118614399.00 28905611.00 L 118614399.00 29079532.00 L 118626880.00 29109665.00 L 118657013.00 29122146.00 L 118687146.00 29109665.00  z"/>
<path id="N" d="M 118687146.00 31767145.00 L 118699627.00 31737012.00 L 118699627.00 31520477.00 L 118687146.00 31490344.00 L 118657013.00 31477863.00 L 118626880.00 31490344.00 L 118614399.00 31520477.00 L 118614399.00 31694398.00 L 118440478.00 31694398.00 L 118410345.00 31706879.00 L 118397864.00 31737012.00 L 118410345.00 31767145.00 L 118440478.00 31779626.00 L 118657013.00 31779626.00 L 118687146.00 31767145.00  z"/>
<path id="N" d="M 115813131.00 29109665.00 L 115825612.00 29079532.00 L 115825612.00 28905611.00 L 115999533.00 28905611.00 L 116029666.00 28893130.00 L 116042147.00 28862997.00 L 116029666.00 28832864.00 L 115999533.00 28820383.00 L 115782998.00 28820383.00 L 115752865.00 28832864.00 L 115740384.00 28862997.00 L 115740384.00 29079532.00 L 115752865.00 29109665.00 L 115782998.00 29122146.00 L 115813131.00 29109665.00  z"/>
<path id="N" d="M 79175123.00 31485334.00 L 78824125.00 31485334.00 L 78824125.00 30366225.00 A 54118.70 54118.70 0 0 0 78715885.00 30366225.00 L 78715885.00 31539454.00 L 78731736.00 31577723.00 L 78770005.00 31593574.00 L 79175123.00 31593574.00 A 54121.84 54121.84 0 1 0 79175123.00 31485334.00  z"/>
<path id="N" d="M 116029666.00 31767145.00 L 116042147.00 31737012.00 L 116029666.00 31706879.00 L 115999533.00 31694398.00 L 115825612.00 31694398.00 L 115825612.00 31520477.00 L 115813131.00 31490344.00 L 115782998.00 31477863.00 L 115752865.00 31490344.00 L 115740384.00 31520477.00 L 115740384.00 31737012.00 L 115752865.00 31767145.00 L 115782998.00 31779626.00 L 115999533.00 31779626.00 L 116029666.00 31767145.00  z"/>
<path id="N" d="M 123648248.00 31450138.00 L 123660729.00 31420005.00 L 123648248.00 31389872.00 L 123618115.00 31377391.00 L 123381895.00 31377391.00 L 123351762.00 31389872.00 L 123339281.00 31420005.00 L 123351762.00 31450138.00 L 123381895.00 31462619.00 L 123618115.00 31462619.00 L 123648248.00 31450138.00  z"/>
<path id="N" d="M 101840138.00 31828248.00 L 101852619.00 31798115.00 L 101852619.00 31561895.00 L 101840138.00 31531762.00 L 101810005.00 31519281.00 L 101779872.00 31531762.00 L 101767391.00 31561895.00 L 101767391.00 31798115.00 L 101779872.00 31828248.00 L 101810005.00 31840729.00 L 101840138.00 31828248.00  z"/>
<path id="N" d="M 76708248.00 31450138.00 L 76720729.00 31420005.00 L 76708248.00 31389872.00 L 76678115.00 31377391.00 L 76441895.00 31377391.00 L 76411762.00 31389872.00 L 76399281.00 31420005.00 L 76411762.00 31450138.00 L 76441895.00 31462619.00 L 76678115.00 31462619.00 L 76708248.00 31450138.00  z"/>
<path id="N" d="M 122080138.00 31828248.00 L 122092619.00 31798115.00 L 122092619.00 31561895.00 L 122080138.00 31531762.00 L 122050005.00 31519281.00 L 122019872.00 31531762.00 L 122007391.00 31561895.00 L 122007391.00 31798115.00 L 122019872.00 31828248.00 L 122050005.00 31840729.00 L 122080138.00 31828248.00  z"/>
<path id="N" d="M 91568248.00 31450138.00 L 91580729.00 31420005.00 L 91568248.00 31389872.00 L 91538115.00 31377391.00 L 91301895.00 31377391.00 L 91271762.00 31389872.00 L 91259281.00 31420005.00 L 91271762.00 31450138.00 L 91301895.00 31462619.00 L 91538115.00 31462619.00 L 91568248.00 31450138.00  z"/>
<path id="N" d="M 89368248.00 31450138.00 L 89380729.00 31420005.00 L 89368248.00 31389872.00 L 89338115.00 31377391.00 L 89101895.00 31377391.00 L 89071762.00 31389872.00 L 89059281.00 31420005.00 L 89071762.00 31450138.00 L 89101895.00 31462619.00 L 89338115.00 31462619.00 L 89368248.00 31450138.00  z"/>
<path id="N" d="M 125790138.00 31828248.00 L 125802619.00 31798115.00 L 125802619.00 31561895.00 L 125790138.00 31531762.00 L 125760005.00 31519281.00 L 125729872.00 31531762.00 L 125717391.00 31561895.00 L 125717391.00 31798115.00 L 125729872.00 31828248.00 L 125760005.00 31840729.00 L 125790138.00 31828248.00  z"/>
<path id="N" d="M 129690138.00 31828248.00 L 129702619.00 31798115.00 L 129702619.00 31561895.00 L 129690138.00 31531762.00 L 129660005.00 31519281.00 L 129629872.00 31531762.00 L 129617391.00 31561895.00 L 129617391.00 31798115.00 L 129629872.00 31828248.00 L 129660005.00 31840729.00 L 129690138.00 31828248.00  z"/>
<path id="N" d="M 83988248.00 31450138.00 L 84000729.00 31420005.00 L 83988248.00 31389872.00 L 83958115.00 31377391.00 L 83721895.00 31377391.00 L 83691762.00 31389872.00 L 83679281.00 31420005.00 L 83691762.00 31450138.00 L 83721895.00 31462619.00 L 83958115.00 31462619.00 L 83988248.00 31450138.00  z"/>
<path id="N" d="M 134790138.00 31828248.00 L 134802619.00 31798115.00 L 134802619.00 31561895.00 L 134790138.00 31531762.00 L 134760005.00 31519281.00 L 134729872.00 31531762.00 L 134717391.00 31561895.00 L 134717391.00 31798115.00 L 134729872.00 31828248.00 L 134760005.00 31840729.00 L 134790138.00 31828248.00  z"/>
<path id="N" d="M 136490138.00 31828248.00 L 136502619.00 31798115.00 L 136502619.00 31561895.00 L 136490138.00 31531762.00 L 136460005.00 31519281.00 L 136429872.00 31531762.00 L 136417391.00 31561895.00 L 136417391.00 31798115.00 L 136429872.00 31828248.00 L 136460005.00 31840729.00 L 136490138.00 31828248.00  z"/>
<path id="N" d="M 159837618.00 31544784.00 L 159850099.00 31514651.00 L 159837618.00 31484518.00 L 159807485.00 31472037.00 L 159492525.00 31472037.00 L 159462392.00 31484518.00 L 159449911.00 31514651.00 L 159462392.00 31544784.00 L 159492525.00 31557265.00 L 159807485.00 31557265.00 L 159837618.00 31544784.00  z"/>
<path id="N" d="M 80700320.00 29575885.00 L 79200714.00 29575885.00 A 54118.70 54118.70 0 1 0 79200714.00 29684125.00 L 80700320.00 29684125.00 A 54121.84 54121.84 0 0 0 80700320.00 29575885.00  z"/>
<path id="N" d="M 159837618.00 30875492.00 L 159850099.00 30845359.00 L 159837618.00 30815226.00 L 159807485.00 30802745.00 L 159492525.00 30802745.00 L 159462392.00 30815226.00 L 159449911.00 30845359.00 L 159462392.00 30875492.00 L 159492525.00 30887973.00 L 159807485.00 30887973.00 L 159837618.00 30875492.00  z"/>
<path id="N" d="M 143290138.00 31828248.00 L 143302619.00 31798115.00 L 143302619.00 31561895.00 L 143290138.00 31531762.00 L 143260005.00 31519281.00 L 143229872.00 31531762.00 L 143217391.00 31561895.00 L 143217391.00 31798115.00 L 143229872.00 31828248.00 L 143260005.00 31840729.00 L 143290138.00 31828248.00  z"/>
<path id="N" d="M 133090138.00 31828248.00 L 133102619.00 31798115.00 L 133102619.00 31561895.00 L 133090138.00 31531762.00 L 133060005.00 31519281.00 L 133029872.00 31531762.00 L 133017391.00 31561895.00 L 133017391.00 31798115.00 L 133029872.00 31828248.00 L 133060005.00 31840729.00 L 133090138.00 31828248.00  z"/>
<path id="N" d="M 131390138.00 31828248.00 L 131402619.00 31798115.00 L 131402619.00 31561895.00 L 131390138.00 31531762.00 L 131360005.00 31519281.00 L 131329872.00 31531762.00 L 131317391.00 31561895.00 L 131317391.00 31798115.00 L 131329872.00 31828248.00 L 131360005.00 31840729.00 L 131390138.00 31828248.00  z"/>
<path id="N" d="M 141590138.00 31828248.00 L 141602619.00 31798115.00 L 141602619.00 31561895.00 L 141590138.00 31531762.00 L 141560005.00 31519281.00 L 141529872.00 31531762.00 L 141517391.00 31561895.00 L 141517391.00 31798115.00 L 141529872.00 31828248.00 L 141560005.00 31840729.00 L 141590138.00 31828248.00  z"/>
<path id="N" d="M 144810138.00 31828248.00 L 144822619.00 31798115.00 L 144822619.00 31561895.00 L 144810138.00 31531762.00 L 144780005.00 31519281.00 L 144749872.00 31531762.00 L 144737391.00 31561895.00 L 144737391.00 31798115.00 L 144749872.00 31828248.00 L 144780005.00 31840729.00 L 144810138.00 31828248.00  z"/>
<path id="N" d="M 146510138.00 31828248.00 L 146522619.00 31798115.00 L 146522619.00 31561895.00 L 146510138.00 31531762.00 L 146480005.00 31519281.00 L 146449872.00 31531762.00 L 146437391.00 31561895.00 L 146437391.00 31798115.00 L 146449872.00 31828248.00 L 146480005.00 31840729.00 L 146510138.00 31828248.00  z"/>
<path id="N" d="M 109608248.00 31450138.00 L 109620729.00 31420005.00 L 109608248.00 31389872.00 L 109578115.00 31377391.00 L 109341895.00 31377391.00 L 109311762.00 31389872.00 L 109299281.00 31420005.00 L 109311762.00 31450138.00 L 109341895.00 31462619.00 L 109578115.00 31462619.00 L 109608248.00 31450138.00  z"/>
<path id="N" d="M 103408248.00 31450138.00 L 103420729.00 31420005.00 L 103408248.00 31389872.00 L 103378115.00 31377391.00 L 103141895.00 31377391.00 L 103111762.00 31389872.00 L 103099281.00 31420005.00 L 103111762.00 31450138.00 L 103141895.00 31462619.00 L 103378115.00 31462619.00 L 103408248.00 31450138.00  z"/>
<path id="N" d="M 95640138.00 31828248.00 L 95652619.00 31798115.00 L 95652619.00 31561895.00 L 95640138.00 31531762.00 L 95610005.00 31519281.00 L 95579872.00 31531762.00 L 95567391.00 31561895.00 L 95567391.00 31798115.00 L 95579872.00 31828248.00 L 95610005.00 31840729.00 L 95640138.00 31828248.00  z"/>
<path id="N" d="M 127348248.00 31450138.00 L 127360729.00 31420005.00 L 127348248.00 31389872.00 L 127318115.00 31377391.00 L 127081895.00 31377391.00 L 127051762.00 31389872.00 L 127039281.00 31420005.00 L 127051762.00 31450138.00 L 127081895.00 31462619.00 L 127318115.00 31462619.00 L 127348248.00 31450138.00  z"/>
<path id="N" d="M 82420138.00 31828248.00 L 82432619.00 31798115.00 L 82432619.00 31561895.00 L 82420138.00 31531762.00 L 82390005.00 31519281.00 L 82359872.00 31531762.00 L 82347391.00 31561895.00 L 82347391.00 31798115.00 L 82359872.00 31828248.00 L 82390005.00 31840729.00 L 82420138.00 31828248.00  z"/>
<path id="N" d="M 119738248.00 31450138.00 L 119750729.00 31420005.00 L 119738248.00 31389872.00 L 119708115.00 31377391.00 L 119471895.00 31377391.00 L 119441762.00 31389872.00 L 119429281.00 31420005.00 L 119441762.00 31450138.00 L 119471895.00 31462619.00 L 119708115.00 31462619.00 L 119738248.00 31450138.00  z"/>
<path id="N" d="M 139890138.00 31828248.00 L 139902619.00 31798115.00 L 139902619.00 31561895.00 L 139890138.00 31531762.00 L 139860005.00 31519281.00 L 139829872.00 31531762.00 L 139817391.00 31561895.00 L 139817391.00 31798115.00 L 139829872.00 31828248.00 L 139860005.00 31840729.00 L 139890138.00 31828248.00  z"/>
<path id="N" d="M 98674390.00 28948406.00 L 98686871.00 28918273.00 L 98686871.00 28308036.00 L 98674390.00 28277903.00 L 98644257.00 28265422.00 L 98614124.00 28277903.00 L 98601643.00 28308036.00 L 98601643.00 28918273.00 L 98614124.00 28948406.00 L 98644257.00 28960887.00 L 98674390.00 28948406.00  z"/>
<path id="N" d="M 138190138.00 31828248.00 L 138202619.00 31798115.00 L 138202619.00 31561895.00 L 138190138.00 31531762.00 L 138160005.00 31519281.00 L 138129872.00 31531762.00 L 138117391.00 31561895.00 L 138117391.00 31798115.00 L 138129872.00 31828248.00 L 138160005.00 31840729.00 L 138190138.00 31828248.00  z"/>
<path id="N" d="M 105750138.00 31828248.00 L 105762619.00 31798115.00 L 105762619.00 31561895.00 L 105750138.00 31531762.00 L 105720005.00 31519281.00 L 105689872.00 31531762.00 L 105677391.00 31561895.00 L 105677391.00 31798115.00 L 105689872.00 31828248.00 L 105720005.00 31840729.00 L 105750138.00 31828248.00  z"/>
<path id="N" d="M 111950138.00 31828248.00 L 111962619.00 31798115.00 L 111962619.00 31561895.00 L 111950138.00 31531762.00 L 111920005.00 31519281.00 L 111889872.00 31531762.00 L 111877391.00 31561895.00 L 111877391.00 31798115.00 L 111889872.00 31828248.00 L 111920005.00 31840729.00 L 111950138.00 31828248.00  z"/>
<path id="N" d="M 87160138.00 25440217.00 L 87172619.00 25410084.00 L 87160138.00 25379951.00 L 87130005.00 25367470.00 L 87099872.00 25379951.00 L 87087391.00 25410084.00 L 87099872.00 25440217.00 L 87130005.00 25452698.00 L 87160138.00 25440217.00  z"/>
<path id="N" d="M 71928980.87 28920320.00 m -63921.13 0 a 63921.13 63921.13 0 1 1 127842.26 0a 63921.13 63921.13 0 1 1 -127842.26 0"/>
<path id="N" d="M 151398327.00 31737776.00 L 151410808.00 31707643.00 L 151398327.00 31677510.00 L 151368194.00 31665029.00 L 151338061.00 31677510.00 L 151325580.00 31707643.00 L 151338061.00 31737776.00 L 151368194.00 31750257.00 L 151398327.00 31737776.00  z"/>
<path id="N" d="M 158676201.00 31210138.00 L 158688682.00 31180005.00 L 158676201.00 31149872.00 L 158646068.00 31137391.00 L 158615935.00 31149872.00 L 158603454.00 31180005.00 L 158615935.00 31210138.00 L 158646068.00 31222619.00 L 158676201.00 31210138.00  z"/>
</g>
</svg>
