<svg width="40.00000128mm" height="40.00000128mm" viewBox="0 0 15748032 15748032"  version="1.1" xmlns="http://www.w3.org/2000/svg" xmlns:xlink="http://www.w3.org/1999/xlink">
<desc>
Origin 92800005 44040005 Bound 92810000 44045984 15748032 15748032
</desc>
<g fill-rule="evenodd" fill="rgb(255, 0, 0)" stroke="black" stroke-width="1" transform="translate(0, 15748032) scale(1, -1) translate(-92810000, -44045984)">
<path id="N" d="M 71239993.98 30939986.45 m -307772.16 0 a 307772.16 307772.16 0 1 1 615544.33 0a 307772.16 307772.16 0 1 1 -615544.33 0M 71240004.24 30940004.93 m -204721.07 0 a 204721.07 204721.07 0 1 1 409442.13 0a 204721.07 204721.07 0 1 1 -409442.13 0"/>
<path id="N" d="M 117801320.00 29109665.00 L 117813801.00 29079532.00 L 117813801.00 28813784.00 L 117801320.00 28783651.00 L 117771187.00 28771170.00 L 117741054.00 28783651.00 L 117728573.00 28813784.00 L 117728573.00 29079532.00 L 117741054.00 29109665.00 L 117771187.00 29122146.00 L 117801320.00 29109665.00  z"/>
<path id="N" d="M 75209999.36 30119995.74 m -372289.53 0 a 372289.53 372289.53 0 1 1 744579.06 0a 372289.53 372289.53 0 1 1 -744579.06 0M 75210003.81 30120006.80 m -250882.20 0 a 250882.20 250882.20 0 1 1 501764.39 0a 250882.20 250882.20 0 1 1 -501764.39 0"/>
<path id="N" d="M 118736359.00 29621476.00 L 118748840.00 29591343.00 L 118736359.00 29561210.00 L 118706226.00 29548729.00 L 118440478.00 29548729.00 L 118410345.00 29561210.00 L 118397864.00 29591343.00 L 118410345.00 29621476.00 L 118440478.00 29633957.00 L 118706226.00 29633957.00 L 118736359.00 29621476.00  z"/>
<path id="N" d="M 107411964.00 31720005.00 L 107411964.00 31520005.00 A 101958.15 101958.15 0 0 0 107310005.00 31418046.00 L 107110005.00 31418046.00 A 101958.15 101958.15 0 0 0 107008046.00 31520005.00 L 107008046.00 31720005.00 A 101958.15 101958.15 0 0 0 107110005.00 31821964.00 L 107310005.00 31821964.00 A 101959.21 101959.21 0 0 0 107411964.00 31720005.00  z"/>
<path id="N" d="M 105566789.00 31821987.00 L 105577092.00 31797112.00 L 105577092.00 31562900.00 L 105566789.00 31538025.00 L 105541914.00 31527722.00 L 105346914.00 31527722.00 L 105322039.00 31538025.00 L 105311736.00 31562900.00 L 105311736.00 31797112.00 L 105322039.00 31821987.00 L 105346914.00 31832290.00 L 105541914.00 31832290.00 L 105566789.00 31821987.00  z"/>
<path id="N" d="M 151702839.00 30981265.00 L 151545359.00 30981265.00 L 151545359.00 31512761.00 L 151702839.00 31512761.00 L 151702839.00 30981265.00  z"/>
<path id="N" d="M 97715123.00 29944887.00 L 97104887.00 29944887.00 L 97104887.00 30555123.00 L 97715123.00 30555123.00 L 97715123.00 29944887.00  zM 97410004.24 30250004.93 m -204721.07 0 a 204721.07 204721.07 0 1 1 409442.13 0a 204721.07 204721.07 0 1 1 -409442.13 0"/>
<path id="N" d="M 95456789.00 31821987.00 L 95467092.00 31797112.00 L 95467092.00 31562900.00 L 95456789.00 31538025.00 L 95431914.00 31527722.00 L 95236914.00 31527722.00 L 95212039.00 31538025.00 L 95201736.00 31562900.00 L 95201736.00 31797112.00 L 95212039.00 31821987.00 L 95236914.00 31832290.00 L 95431914.00 31832290.00 L 95456789.00 31821987.00  z"/>
<path id="N" d="M 113621964.00 31720005.00 L 113621964.00 31520005.00 A 101958.15 101958.15 0 0 0 113520005.00 31418046.00 L 113320005.00 31418046.00 A 101958.15 101958.15 0 0 0 113218046.00 31520005.00 L 113218046.00 31720005.00 A 101958.15 101958.15 0 0 0 113320005.00 31821964.00 L 113520005.00 31821964.00 A 101959.21 101959.21 0 0 0 113621964.00 31720005.00  z"/>
<path id="N" d="M 111766789.00 31821987.00 L 111777092.00 31797112.00 L 111777092.00 31562900.00 L 111766789.00 31538025.00 L 111741914.00 31527722.00 L 111546914.00 31527722.00 L 111522039.00 31538025.00 L 111511736.00 31562900.00 L 111511736.00 31797112.00 L 111522039.00 31821987.00 L 111546914.00 31832290.00 L 111741914.00 31832290.00 L 111766789.00 31821987.00  z"/>
<path id="N" d="M 151958745.00 30981265.00 L 151801265.00 30981265.00 L 151801265.00 31512761.00 L 151958745.00 31512761.00 L 151958745.00 30981265.00  z"/>
<path id="N" d="M 147981964.00 31720005.00 L 147981964.00 31520005.00 A 101958.15 101958.15 0 0 0 147880005.00 31418046.00 L 147680005.00 31418046.00 A 101958.15 101958.15 0 0 0 147578046.00 31520005.00 L 147578046.00 31720005.00 A 101958.15 101958.15 0 0 0 147680005.00 31821964.00 L 147880005.00 31821964.00 A 101959.21 101959.21 0 0 0 147981964.00 31720005.00  z"/>
<path id="N" d="M 73775123.00 29944887.00 L 73164887.00 29944887.00 L 73164887.00 30555123.00 L 73775123.00 30555123.00 L 73775123.00 29944887.00  zM 73470004.24 30250004.93 m -204721.07 0 a 204721.07 204721.07 0 1 1 409442.13 0a 204721.07 204721.07 0 1 1 -409442.13 0"/>
<path id="N" d="M 146326789.00 31821987.00 L 146337092.00 31797112.00 L 146337092.00 31562900.00 L 146326789.00 31538025.00 L 146301914.00 31527722.00 L 146106914.00 31527722.00 L 146082039.00 31538025.00 L 146071736.00 31562900.00 L 146071736.00 31797112.00 L 146082039.00 31821987.00 L 146106914.00 31832290.00 L 146301914.00 31832290.00 L 146326789.00 31821987.00  z"/>
<path id="N" d="M 76701985.00 31266789.00 L 76712288.00 31241914.00 L 76712288.00 31046914.00 L 76701985.00 31022039.00 L 76677110.00 31011736.00 L 76442898.00 31011736.00 L 76418023.00 31022039.00 L 76407720.00 31046914.00 L 76407720.00 31241914.00 L 76418023.00 31266789.00 L 76442898.00 31277092.00 L 76677110.00 31277092.00 L 76701985.00 31266789.00  z"/>
<path id="N" d="M 159335044.00 30943785.00 L 158862604.00 30943785.00 L 158862604.00 31416225.00 L 159335044.00 31416225.00 L 159335044.00 30943785.00  z"/>
<path id="N" d="M 80659769.00 31159926.00 L 80423549.00 31159926.00 L 80423549.00 31770162.00 L 80659769.00 31770162.00 L 80659769.00 31159926.00  z"/>
<path id="N" d="M 155363549.00 29209218.00 L 154576147.00 29209218.00 L 154576147.00 29799768.00 L 155363549.00 29799768.00 L 155363549.00 29209218.00  z"/>
<path id="N" d="M 116029666.00 30408878.00 L 116042147.00 30378745.00 L 116029666.00 30348612.00 L 115999533.00 30336131.00 L 115733785.00 30336131.00 L 115703652.00 30348612.00 L 115691171.00 30378745.00 L 115703652.00 30408878.00 L 115733785.00 30421359.00 L 115999533.00 30421359.00 L 116029666.00 30408878.00  z"/>
<path id="N" d="M 79872367.00 31159926.00 L 79636147.00 31159926.00 L 79636147.00 31770162.00 L 79872367.00 31770162.00 L 79872367.00 31159926.00  z"/>
<path id="N" d="M 94379099.00 26750911.00 L 93640911.00 26750911.00 L 93640911.00 27489099.00 L 94379099.00 27489099.00 L 94379099.00 26750911.00  zM 94010003.81 27120006.80 m -250882.20 0 a 250882.20 250882.20 0 1 1 501764.39 0a 250882.20 250882.20 0 1 1 -501764.39 0"/>
<path id="N" d="M 143106789.00 31821987.00 L 143117092.00 31797112.00 L 143117092.00 31562900.00 L 143106789.00 31538025.00 L 143081914.00 31527722.00 L 142886914.00 31527722.00 L 142862039.00 31538025.00 L 142851736.00 31562900.00 L 142851736.00 31797112.00 L 142862039.00 31821987.00 L 142886914.00 31832290.00 L 143081914.00 31832290.00 L 143106789.00 31821987.00  z"/>
<path id="N" d="M 144626789.00 31821987.00 L 144637092.00 31797112.00 L 144637092.00 31562900.00 L 144626789.00 31538025.00 L 144601914.00 31527722.00 L 144406914.00 31527722.00 L 144382039.00 31538025.00 L 144371736.00 31562900.00 L 144371736.00 31797112.00 L 144382039.00 31821987.00 L 144406914.00 31832290.00 L 144601914.00 31832290.00 L 144626789.00 31821987.00  z"/>
<path id="N" d="M 123641985.00 31266789.00 L 123652288.00 31241914.00 L 123652288.00 31046914.00 L 123641985.00 31022039.00 L 123617110.00 31011736.00 L 123382898.00 31011736.00 L 123358023.00 31022039.00 L 123347720.00 31046914.00 L 123347720.00 31241914.00 L 123358023.00 31266789.00 L 123382898.00 31277092.00 L 123617110.00 31277092.00 L 123641985.00 31266789.00  z"/>
<path id="N" d="M 139706789.00 31821987.00 L 139717092.00 31797112.00 L 139717092.00 31562900.00 L 139706789.00 31538025.00 L 139681914.00 31527722.00 L 139486914.00 31527722.00 L 139462039.00 31538025.00 L 139451736.00 31562900.00 L 139451736.00 31797112.00 L 139462039.00 31821987.00 L 139486914.00 31832290.00 L 139681914.00 31832290.00 L 139706789.00 31821987.00  z"/>
<path id="N" d="M 129506789.00 31821987.00 L 129517092.00 31797112.00 L 129517092.00 31562900.00 L 129506789.00 31538025.00 L 129481914.00 31527722.00 L 129286914.00 31527722.00 L 129262039.00 31538025.00 L 129251736.00 31562900.00 L 129251736.00 31797112.00 L 129262039.00 31821987.00 L 129286914.00 31832290.00 L 129481914.00 31832290.00 L 129506789.00 31821987.00  z"/>
<path id="N" d="M 138006789.00 31821987.00 L 138017092.00 31797112.00 L 138017092.00 31562900.00 L 138006789.00 31538025.00 L 137981914.00 31527722.00 L 137786914.00 31527722.00 L 137762039.00 31538025.00 L 137751736.00 31562900.00 L 137751736.00 31797112.00 L 137762039.00 31821987.00 L 137786914.00 31832290.00 L 137981914.00 31832290.00 L 138006789.00 31821987.00  z"/>
<path id="N" d="M 103401985.00 31266789.00 L 103412288.00 31241914.00 L 103412288.00 31046914.00 L 103401985.00 31022039.00 L 103377110.00 31011736.00 L 103142898.00 31011736.00 L 103118023.00 31022039.00 L 103107720.00 31046914.00 L 103107720.00 31241914.00 L 103118023.00 31266789.00 L 103142898.00 31277092.00 L 103377110.00 31277092.00 L 103401985.00 31266789.00  z"/>
<path id="N" d="M 91561985.00 31266789.00 L 91572288.00 31241914.00 L 91572288.00 31046914.00 L 91561985.00 31022039.00 L 91537110.00 31011736.00 L 91302898.00 31011736.00 L 91278023.00 31022039.00 L 91267720.00 31046914.00 L 91267720.00 31241914.00 L 91278023.00 31266789.00 L 91302898.00 31277092.00 L 91537110.00 31277092.00 L 91561985.00 31266789.00  z"/>
<path id="N" d="M 132906789.00 31821987.00 L 132917092.00 31797112.00 L 132917092.00 31562900.00 L 132906789.00 31538025.00 L 132881914.00 31527722.00 L 132686914.00 31527722.00 L 132662039.00 31538025.00 L 132651736.00 31562900.00 L 132651736.00 31797112.00 L 132662039.00 31821987.00 L 132686914.00 31832290.00 L 132881914.00 31832290.00 L 132906789.00 31821987.00  z"/>
<path id="N" d="M 102207971.00 31821987.00 L 102218274.00 31797112.00 L 102218274.00 31562900.00 L 102207971.00 31538025.00 L 102183096.00 31527722.00 L 101988096.00 31527722.00 L 101963221.00 31538025.00 L 101952918.00 31562900.00 L 101952918.00 31797112.00 L 101963221.00 31821987.00 L 101988096.00 31832290.00 L 102183096.00 31832290.00 L 102207971.00 31821987.00  z"/>
<path id="N" d="M 131206789.00 31821987.00 L 131217092.00 31797112.00 L 131217092.00 31562900.00 L 131206789.00 31538025.00 L 131181914.00 31527722.00 L 130986914.00 31527722.00 L 130962039.00 31538025.00 L 130951736.00 31562900.00 L 130951736.00 31797112.00 L 130962039.00 31821987.00 L 130986914.00 31832290.00 L 131181914.00 31832290.00 L 131206789.00 31821987.00  z"/>
<path id="N" d="M 134606789.00 31821987.00 L 134617092.00 31797112.00 L 134617092.00 31562900.00 L 134606789.00 31538025.00 L 134581914.00 31527722.00 L 134386914.00 31527722.00 L 134362039.00 31538025.00 L 134351736.00 31562900.00 L 134351736.00 31797112.00 L 134362039.00 31821987.00 L 134386914.00 31832290.00 L 134581914.00 31832290.00 L 134606789.00 31821987.00  z"/>
<path id="N" d="M 136306789.00 31821987.00 L 136317092.00 31797112.00 L 136317092.00 31562900.00 L 136306789.00 31538025.00 L 136281914.00 31527722.00 L 136086914.00 31527722.00 L 136062039.00 31538025.00 L 136051736.00 31562900.00 L 136051736.00 31797112.00 L 136062039.00 31821987.00 L 136086914.00 31832290.00 L 136281914.00 31832290.00 L 136306789.00 31821987.00  z"/>
<path id="N" d="M 117328879.00 29109665.00 L 117341360.00 29079532.00 L 117341360.00 28813784.00 L 117328879.00 28783651.00 L 117298746.00 28771170.00 L 117268613.00 28783651.00 L 117256132.00 28813784.00 L 117256132.00 29079532.00 L 117268613.00 29109665.00 L 117298746.00 29122146.00 L 117328879.00 29109665.00  z"/>
<path id="N" d="M 116029666.00 31353760.00 L 116042147.00 31323627.00 L 116029666.00 31293494.00 L 115999533.00 31281013.00 L 115733785.00 31281013.00 L 115703652.00 31293494.00 L 115691171.00 31323627.00 L 115703652.00 31353760.00 L 115733785.00 31366241.00 L 115999533.00 31366241.00 L 116029666.00 31353760.00  z"/>
<path id="N" d="M 117486359.00 31816358.00 L 117498840.00 31786225.00 L 117498840.00 31520477.00 L 117486359.00 31490344.00 L 117456226.00 31477863.00 L 117426093.00 31490344.00 L 117413612.00 31520477.00 L 117413612.00 31786225.00 L 117426093.00 31816358.00 L 117456226.00 31828839.00 L 117486359.00 31816358.00  z"/>
<path id="N" d="M 116029666.00 29936437.00 L 116042147.00 29906304.00 L 116029666.00 29876171.00 L 115999533.00 29863690.00 L 115733785.00 29863690.00 L 115703652.00 29876171.00 L 115691171.00 29906304.00 L 115703652.00 29936437.00 L 115733785.00 29948918.00 L 115999533.00 29948918.00 L 116029666.00 29936437.00  z"/>
<path id="N" d="M 118736359.00 29936437.00 L 118748840.00 29906304.00 L 118736359.00 29876171.00 L 118706226.00 29863690.00 L 118440478.00 29863690.00 L 118410345.00 29876171.00 L 118397864.00 29906304.00 L 118410345.00 29936437.00 L 118440478.00 29948918.00 L 118706226.00 29948918.00 L 118736359.00 29936437.00  z"/>
<path id="N" d="M 118736359.00 31353760.00 L 118748840.00 31323627.00 L 118736359.00 31293494.00 L 118706226.00 31281013.00 L 118440478.00 31281013.00 L 118410345.00 31293494.00 L 118397864.00 31323627.00 L 118410345.00 31353760.00 L 118440478.00 31366241.00 L 118706226.00 31366241.00 L 118736359.00 31353760.00  z"/>
<path id="N" d="M 118116280.00 31816358.00 L 118128761.00 31786225.00 L 118128761.00 31520477.00 L 118116280.00 31490344.00 L 118086147.00 31477863.00 L 118056014.00 31490344.00 L 118043533.00 31520477.00 L 118043533.00 31786225.00 L 118056014.00 31816358.00 L 118086147.00 31828839.00 L 118116280.00 31816358.00  z"/>
<path id="N" d="M 117328879.00 31816358.00 L 117341360.00 31786225.00 L 117341360.00 31520477.00 L 117328879.00 31490344.00 L 117298746.00 31477863.00 L 117268613.00 31490344.00 L 117256132.00 31520477.00 L 117256132.00 31786225.00 L 117268613.00 31816358.00 L 117298746.00 31828839.00 L 117328879.00 31816358.00  z"/>
<path id="N" d="M 157843864.00 29661974.00 L 157056462.00 29661974.00 L 157056462.00 31158036.00 L 157843864.00 31158036.00 L 157843864.00 29661974.00  z"/>
<path id="N" d="M 155363549.00 30114730.00 L 154576147.00 30114730.00 L 154576147.00 30705280.00 L 155363549.00 30705280.00 L 155363549.00 30114730.00  z"/>
<path id="N" d="M 99037958.00 31201737.00 L 98782052.00 31201737.00 L 98782052.00 31811973.00 L 99037958.00 31811973.00 L 99037958.00 31201737.00  z"/>
<path id="N" d="M 150580783.15 30193847.00 m -387188.24 0 a 387188.24 387188.24 0 1 1 774376.48 0a 387188.24 387188.24 0 1 1 -774376.48 0M 150580791.02 30193867.48 m -258108.52 0 a 258108.52 258108.52 0 1 1 516217.04 0a 258108.52 258108.52 0 1 1 -516217.04 0"/>
<path id="N" d="M 153179209.15 30193847.00 m -387188.24 0 a 387188.24 387188.24 0 1 1 774376.48 0a 387188.24 387188.24 0 1 1 -774376.48 0M 153179217.02 30193867.48 m -258108.52 0 a 258108.52 258108.52 0 1 1 516217.04 0a 258108.52 258108.52 0 1 1 -516217.04 0"/>
<path id="N" d="M 69149999.36 30119995.74 m -372289.53 0 a 372289.53 372289.53 0 1 1 744579.06 0a 372289.53 372289.53 0 1 1 -744579.06 0M 69150003.81 30120006.80 m -250882.20 0 a 250882.20 250882.20 0 1 1 501764.39 0a 250882.20 250882.20 0 1 1 -501764.39 0"/>
<path id="N" d="M 69149999.36 28119995.74 m -372289.53 0 a 372289.53 372289.53 0 1 1 744579.06 0a 372289.53 372289.53 0 1 1 -744579.06 0M 69150003.81 28120006.80 m -250882.20 0 a 250882.20 250882.20 0 1 1 501764.39 0a 250882.20 250882.20 0 1 1 -501764.39 0"/>
<path id="N" d="M 94009999.36 28119995.74 m -372289.53 0 a 372289.53 372289.53 0 1 1 744579.06 0a 372289.53 372289.53 0 1 1 -744579.06 0M 94010003.81 28120006.80 m -250882.20 0 a 250882.20 250882.20 0 1 1 501764.39 0a 250882.20 250882.20 0 1 1 -501764.39 0"/>
<path id="N" d="M 97409993.98 31249986.45 m -307772.16 0 a 307772.16 307772.16 0 1 1 615544.33 0a 307772.16 307772.16 0 1 1 -615544.33 0M 97410004.24 31250004.93 m -204721.07 0 a 204721.07 204721.07 0 1 1 409442.13 0a 204721.07 204721.07 0 1 1 -409442.13 0"/>
<path id="N" d="M 71239993.98 29939986.45 m -307772.16 0 a 307772.16 307772.16 0 1 1 615544.33 0a 307772.16 307772.16 0 1 1 -615544.33 0M 71240004.24 29940004.93 m -204721.07 0 a 204721.07 204721.07 0 1 1 409442.13 0a 204721.07 204721.07 0 1 1 -409442.13 0"/>
<path id="N" d="M 75209999.36 29119995.74 m -372289.53 0 a 372289.53 372289.53 0 1 1 744579.06 0a 372289.53 372289.53 0 1 1 -744579.06 0M 75210003.81 29120006.80 m -250882.20 0 a 250882.20 250882.20 0 1 1 501764.39 0a 250882.20 250882.20 0 1 1 -501764.39 0"/>
<path id="N" d="M 69149999.36 29119995.74 m -372289.53 0 a 372289.53 372289.53 0 1 1 744579.06 0a 372289.53 372289.53 0 1 1 -744579.06 0M 69150003.81 29120006.80 m -250882.20 0 a 250882.20 250882.20 0 1 1 501764.39 0a 250882.20 250882.20 0 1 1 -501764.39 0"/>
<path id="N" d="M 73469993.98 31249986.45 m -307772.16 0 a 307772.16 307772.16 0 1 1 615544.33 0a 307772.16 307772.16 0 1 1 -615544.33 0M 73470004.24 31250004.93 m -204721.07 0 a 204721.07 204721.07 0 1 1 409442.13 0a 204721.07 204721.07 0 1 1 -409442.13 0"/>
<path id="N" d="M 127341985.00 31817971.00 L 127352288.00 31793096.00 L 127352288.00 31598096.00 L 127341985.00 31573221.00 L 127317110.00 31562918.00 L 127082898.00 31562918.00 L 127058023.00 31573221.00 L 127047720.00 31598096.00 L 127047720.00 31793096.00 L 127058023.00 31817971.00 L 127082898.00 31828274.00 L 127317110.00 31828274.00 L 127341985.00 31817971.00  z"/>
<path id="N" d="M 76701985.00 31817971.00 L 76712288.00 31793096.00 L 76712288.00 31598096.00 L 76701985.00 31573221.00 L 76677110.00 31562918.00 L 76442898.00 31562918.00 L 76418023.00 31573221.00 L 76407720.00 31598096.00 L 76407720.00 31793096.00 L 76418023.00 31817971.00 L 76442898.00 31828274.00 L 76677110.00 31828274.00 L 76701985.00 31817971.00  z"/>
<path id="N" d="M 146877971.00 31821987.00 L 146888274.00 31797112.00 L 146888274.00 31562900.00 L 146877971.00 31538025.00 L 146853096.00 31527722.00 L 146658096.00 31527722.00 L 146633221.00 31538025.00 L 146622918.00 31562900.00 L 146622918.00 31797112.00 L 146633221.00 31821987.00 L 146658096.00 31832290.00 L 146853096.00 31832290.00 L 146877971.00 31821987.00  z"/>
<path id="N" d="M 123641985.00 31817971.00 L 123652288.00 31793096.00 L 123652288.00 31598096.00 L 123641985.00 31573221.00 L 123617110.00 31562918.00 L 123382898.00 31562918.00 L 123358023.00 31573221.00 L 123347720.00 31598096.00 L 123347720.00 31793096.00 L 123358023.00 31817971.00 L 123382898.00 31828274.00 L 123617110.00 31828274.00 L 123641985.00 31817971.00  z"/>
<path id="N" d="M 133457971.00 31821987.00 L 133468274.00 31797112.00 L 133468274.00 31562900.00 L 133457971.00 31538025.00 L 133433096.00 31527722.00 L 133238096.00 31527722.00 L 133213221.00 31538025.00 L 133202918.00 31562900.00 L 133202918.00 31797112.00 L 133213221.00 31821987.00 L 133238096.00 31832290.00 L 133433096.00 31832290.00 L 133457971.00 31821987.00  z"/>
<path id="N" d="M 126157971.00 31821987.00 L 126168274.00 31797112.00 L 126168274.00 31562900.00 L 126157971.00 31538025.00 L 126133096.00 31527722.00 L 125938096.00 31527722.00 L 125913221.00 31538025.00 L 125902918.00 31562900.00 L 125902918.00 31797112.00 L 125913221.00 31821987.00 L 125938096.00 31832290.00 L 126133096.00 31832290.00 L 126157971.00 31821987.00  z"/>
<path id="N" d="M 130057971.00 31821987.00 L 130068274.00 31797112.00 L 130068274.00 31562900.00 L 130057971.00 31538025.00 L 130033096.00 31527722.00 L 129838096.00 31527722.00 L 129813221.00 31538025.00 L 129802918.00 31562900.00 L 129802918.00 31797112.00 L 129813221.00 31821987.00 L 129838096.00 31832290.00 L 130033096.00 31832290.00 L 130057971.00 31821987.00  z"/>
<path id="N" d="M 131757971.00 31821987.00 L 131768274.00 31797112.00 L 131768274.00 31562900.00 L 131757971.00 31538025.00 L 131733096.00 31527722.00 L 131538096.00 31527722.00 L 131513221.00 31538025.00 L 131502918.00 31562900.00 L 131502918.00 31797112.00 L 131513221.00 31821987.00 L 131538096.00 31832290.00 L 131733096.00 31832290.00 L 131757971.00 31821987.00  z"/>
<path id="N" d="M 119731985.00 31817971.00 L 119742288.00 31793096.00 L 119742288.00 31598096.00 L 119731985.00 31573221.00 L 119707110.00 31562918.00 L 119472898.00 31562918.00 L 119448023.00 31573221.00 L 119437720.00 31598096.00 L 119437720.00 31793096.00 L 119448023.00 31817971.00 L 119472898.00 31828274.00 L 119707110.00 31828274.00 L 119731985.00 31817971.00  z"/>
<path id="N" d="M 103401985.00 31817971.00 L 103412288.00 31793096.00 L 103412288.00 31598096.00 L 103401985.00 31573221.00 L 103377110.00 31562918.00 L 103142898.00 31562918.00 L 103118023.00 31573221.00 L 103107720.00 31598096.00 L 103107720.00 31793096.00 L 103118023.00 31817971.00 L 103142898.00 31828274.00 L 103377110.00 31828274.00 L 103401985.00 31817971.00  z"/>
<path id="N" d="M 109601985.00 31817971.00 L 109612288.00 31793096.00 L 109612288.00 31598096.00 L 109601985.00 31573221.00 L 109577110.00 31562918.00 L 109342898.00 31562918.00 L 109318023.00 31573221.00 L 109307720.00 31598096.00 L 109307720.00 31793096.00 L 109318023.00 31817971.00 L 109342898.00 31828274.00 L 109577110.00 31828274.00 L 109601985.00 31817971.00  z"/>
<path id="N" d="M 83981985.00 31817971.00 L 83992288.00 31793096.00 L 83992288.00 31598096.00 L 83981985.00 31573221.00 L 83957110.00 31562918.00 L 83722898.00 31562918.00 L 83698023.00 31573221.00 L 83687720.00 31598096.00 L 83687720.00 31793096.00 L 83698023.00 31817971.00 L 83722898.00 31828274.00 L 83957110.00 31828274.00 L 83981985.00 31817971.00  z"/>
<path id="N" d="M 89361985.00 31817971.00 L 89372288.00 31793096.00 L 89372288.00 31598096.00 L 89361985.00 31573221.00 L 89337110.00 31562918.00 L 89102898.00 31562918.00 L 89078023.00 31573221.00 L 89067720.00 31598096.00 L 89067720.00 31793096.00 L 89078023.00 31817971.00 L 89102898.00 31828274.00 L 89337110.00 31828274.00 L 89361985.00 31817971.00  z"/>
<path id="N" d="M 91561985.00 31817971.00 L 91572288.00 31793096.00 L 91572288.00 31598096.00 L 91561985.00 31573221.00 L 91537110.00 31562918.00 L 91302898.00 31562918.00 L 91278023.00 31573221.00 L 91267720.00 31598096.00 L 91267720.00 31793096.00 L 91278023.00 31817971.00 L 91302898.00 31828274.00 L 91537110.00 31828274.00 L 91561985.00 31817971.00  z"/>
<path id="N" d="M 135157971.00 31821987.00 L 135168274.00 31797112.00 L 135168274.00 31562900.00 L 135157971.00 31538025.00 L 135133096.00 31527722.00 L 134938096.00 31527722.00 L 134913221.00 31538025.00 L 134902918.00 31562900.00 L 134902918.00 31797112.00 L 134913221.00 31821987.00 L 134938096.00 31832290.00 L 135133096.00 31832290.00 L 135157971.00 31821987.00  z"/>
<path id="N" d="M 145177971.00 31821987.00 L 145188274.00 31797112.00 L 145188274.00 31562900.00 L 145177971.00 31538025.00 L 145153096.00 31527722.00 L 144958096.00 31527722.00 L 144933221.00 31538025.00 L 144922918.00 31562900.00 L 144922918.00 31797112.00 L 144933221.00 31821987.00 L 144958096.00 31832290.00 L 145153096.00 31832290.00 L 145177971.00 31821987.00  z"/>
<path id="N" d="M 138557971.00 31821987.00 L 138568274.00 31797112.00 L 138568274.00 31562900.00 L 138557971.00 31538025.00 L 138533096.00 31527722.00 L 138338096.00 31527722.00 L 138313221.00 31538025.00 L 138302918.00 31562900.00 L 138302918.00 31797112.00 L 138313221.00 31821987.00 L 138338096.00 31832290.00 L 138533096.00 31832290.00 L 138557971.00 31821987.00  z"/>
<path id="N" d="M 136857971.00 31821987.00 L 136868274.00 31797112.00 L 136868274.00 31562900.00 L 136857971.00 31538025.00 L 136833096.00 31527722.00 L 136638096.00 31527722.00 L 136613221.00 31538025.00 L 136602918.00 31562900.00 L 136602918.00 31797112.00 L 136613221.00 31821987.00 L 136638096.00 31832290.00 L 136833096.00 31832290.00 L 136857971.00 31821987.00  z"/>
<path id="N" d="M 141957971.00 31821987.00 L 141968274.00 31797112.00 L 141968274.00 31562900.00 L 141957971.00 31538025.00 L 141933096.00 31527722.00 L 141738096.00 31527722.00 L 141713221.00 31538025.00 L 141702918.00 31562900.00 L 141702918.00 31797112.00 L 141713221.00 31821987.00 L 141738096.00 31832290.00 L 141933096.00 31832290.00 L 141957971.00 31821987.00  z"/>
<path id="N" d="M 116856438.00 29109665.00 L 116868919.00 29079532.00 L 116868919.00 28813784.00 L 116856438.00 28783651.00 L 116826305.00 28771170.00 L 116796172.00 28783651.00 L 116783691.00 28813784.00 L 116783691.00 29079532.00 L 116796172.00 29109665.00 L 116826305.00 29122146.00 L 116856438.00 29109665.00  z"/>
<path id="N" d="M 100537958.00 28308037.00 L 100282052.00 28308037.00 L 100282052.00 28918273.00 L 100537958.00 28918273.00 L 100537958.00 28308037.00  z"/>
<path id="N" d="M 80266068.00 31159926.00 L 80029848.00 31159926.00 L 80029848.00 31770162.00 L 80266068.00 31770162.00 L 80266068.00 31159926.00  z"/>
<path id="N" d="M 152470556.00 30981265.00 L 152313076.00 30981265.00 L 152313076.00 31512761.00 L 152470556.00 31512761.00 L 152470556.00 30981265.00  z"/>
<path id="N" d="M 151781579.00 29819848.00 L 151033549.00 29819848.00 L 151033549.00 30567878.00 L 151781579.00 30567878.00 L 151781579.00 29819848.00  z"/>
<path id="N" d="M 153454808.00 30882840.00 L 152824888.00 30882840.00 L 152824888.00 31434020.00 L 153454808.00 31434020.00 L 153454808.00 30882840.00  z"/>
<path id="N" d="M 150935122.00 30882840.00 L 150305202.00 30882840.00 L 150305202.00 31434020.00 L 150935122.00 31434020.00 L 150935122.00 30882840.00  z"/>
<path id="N" d="M 152726461.00 29819848.00 L 151978431.00 29819848.00 L 151978431.00 30567878.00 L 152726461.00 30567878.00 L 152726461.00 29819848.00  z"/>
<path id="N" d="M 117849926.00 29670084.00 L 116590084.00 29670084.00 L 116590084.00 30929926.00 L 117849926.00 30929926.00 L 117849926.00 29670084.00  z"/>
<path id="N" d="M 94009999.36 30119995.74 m -372289.53 0 a 372289.53 372289.53 0 1 1 744579.06 0a 372289.53 372289.53 0 1 1 -744579.06 0M 94010003.81 30120006.80 m -250882.20 0 a 250882.20 250882.20 0 1 1 501764.39 0a 250882.20 250882.20 0 1 1 -501764.39 0"/>
<path id="N" d="M 116029666.00 31038799.00 L 116042147.00 31008666.00 L 116029666.00 30978533.00 L 115999533.00 30966052.00 L 115733785.00 30966052.00 L 115703652.00 30978533.00 L 115691171.00 31008666.00 L 115703652.00 31038799.00 L 115733785.00 31051280.00 L 115999533.00 31051280.00 L 116029666.00 31038799.00  z"/>
<path id="N" d="M 161851964.00 31720005.00 L 161851964.00 31520005.00 A 101958.15 101958.15 0 0 0 161750005.00 31418046.00 L 161550005.00 31418046.00 A 101958.15 101958.15 0 0 0 161448046.00 31520005.00 L 161448046.00 31720005.00 A 101958.15 101958.15 0 0 0 161550005.00 31821964.00 L 161750005.00 31821964.00 A 101959.21 101959.21 0 0 0 161851964.00 31720005.00  z"/>
<path id="N" d="M 151446934.00 30981265.00 L 151289454.00 30981265.00 L 151289454.00 31512761.00 L 151446934.00 31512761.00 L 151446934.00 30981265.00  z"/>
<path id="N" d="M 160437406.00 30943785.00 L 159964966.00 30943785.00 L 159964966.00 31416225.00 L 160437406.00 31416225.00 L 160437406.00 30943785.00  z"/>
<path id="N" d="M 106117971.00 31821987.00 L 106128274.00 31797112.00 L 106128274.00 31562900.00 L 106117971.00 31538025.00 L 106093096.00 31527722.00 L 105898096.00 31527722.00 L 105873221.00 31538025.00 L 105862918.00 31562900.00 L 105862918.00 31797112.00 L 105873221.00 31821987.00 L 105898096.00 31832290.00 L 106093096.00 31832290.00 L 106117971.00 31821987.00  z"/>
<path id="N" d="M 117801320.00 31816358.00 L 117813801.00 31786225.00 L 117813801.00 31520477.00 L 117801320.00 31490344.00 L 117771187.00 31477863.00 L 117741054.00 31490344.00 L 117728573.00 31520477.00 L 117728573.00 31786225.00 L 117741054.00 31816358.00 L 117771187.00 31828839.00 L 117801320.00 31816358.00  z"/>
<path id="N" d="M 141406789.00 31821987.00 L 141417092.00 31797112.00 L 141417092.00 31562900.00 L 141406789.00 31538025.00 L 141381914.00 31527722.00 L 141186914.00 31527722.00 L 141162039.00 31538025.00 L 141151736.00 31562900.00 L 141151736.00 31797112.00 L 141162039.00 31821987.00 L 141186914.00 31832290.00 L 141381914.00 31832290.00 L 141406789.00 31821987.00  z"/>
<path id="N" d="M 143657971.00 31821987.00 L 143668274.00 31797112.00 L 143668274.00 31562900.00 L 143657971.00 31538025.00 L 143633096.00 31527722.00 L 143438096.00 31527722.00 L 143413221.00 31538025.00 L 143402918.00 31562900.00 L 143402918.00 31797112.00 L 143413221.00 31821987.00 L 143438096.00 31832290.00 L 143633096.00 31832290.00 L 143657971.00 31821987.00  z"/>
<path id="N" d="M 155363549.00 31020242.00 L 154576147.00 31020242.00 L 154576147.00 31610792.00 L 155363549.00 31610792.00 L 155363549.00 31020242.00  z"/>
<path id="N" d="M 69149999.36 31119995.74 m -372289.53 0 a 372289.53 372289.53 0 1 1 744579.06 0a 372289.53 372289.53 0 1 1 -744579.06 0M 69150003.81 31120006.80 m -250882.20 0 a 250882.20 250882.20 0 1 1 501764.39 0a 250882.20 250882.20 0 1 1 -501764.39 0"/>
<path id="N" d="M 118736359.00 30881319.00 L 118748840.00 30851186.00 L 118736359.00 30821053.00 L 118706226.00 30808572.00 L 118440478.00 30808572.00 L 118410345.00 30821053.00 L 118397864.00 30851186.00 L 118410345.00 30881319.00 L 118440478.00 30893800.00 L 118706226.00 30893800.00 L 118736359.00 30881319.00  z"/>
<path id="N" d="M 94009999.36 31119995.74 m -372289.53 0 a 372289.53 372289.53 0 1 1 744579.06 0a 372289.53 372289.53 0 1 1 -744579.06 0M 94010003.81 31120006.80 m -250882.20 0 a 250882.20 250882.20 0 1 1 501764.39 0a 250882.20 250882.20 0 1 1 -501764.39 0"/>
<path id="N" d="M 116541477.00 29109665.00 L 116553958.00 29079532.00 L 116553958.00 28813784.00 L 116541477.00 28783651.00 L 116511344.00 28771170.00 L 116481211.00 28783651.00 L 116468730.00 28813784.00 L 116468730.00 29079532.00 L 116481211.00 29109665.00 L 116511344.00 29122146.00 L 116541477.00 29109665.00  z"/>
<path id="N" d="M 116856438.00 31816358.00 L 116868919.00 31786225.00 L 116868919.00 31520477.00 L 116856438.00 31490344.00 L 116826305.00 31477863.00 L 116796172.00 31490344.00 L 116783691.00 31520477.00 L 116783691.00 31786225.00 L 116796172.00 31816358.00 L 116826305.00 31828839.00 L 116856438.00 31816358.00  z"/>
<path id="N" d="M 100037958.00 31201737.00 L 99782052.00 31201737.00 L 99782052.00 31811973.00 L 100037958.00 31811973.00 L 100037958.00 31201737.00  z"/>
<path id="N" d="M 69519099.00 26750911.00 L 68780911.00 26750911.00 L 68780911.00 27489099.00 L 69519099.00 27489099.00 L 69519099.00 26750911.00  zM 69150003.81 27120006.80 m -250882.20 0 a 250882.20 250882.20 0 1 1 501764.39 0a 250882.20 250882.20 0 1 1 -501764.39 0"/>
<path id="N" d="M 118736359.00 30723838.00 L 118748840.00 30693705.00 L 118736359.00 30663572.00 L 118706226.00 30651091.00 L 118440478.00 30651091.00 L 118410345.00 30663572.00 L 118397864.00 30693705.00 L 118410345.00 30723838.00 L 118440478.00 30736319.00 L 118706226.00 30736319.00 L 118736359.00 30723838.00  z"/>
<path id="N" d="M 89361985.00 31266789.00 L 89372288.00 31241914.00 L 89372288.00 31046914.00 L 89361985.00 31022039.00 L 89337110.00 31011736.00 L 89102898.00 31011736.00 L 89078023.00 31022039.00 L 89067720.00 31046914.00 L 89067720.00 31241914.00 L 89078023.00 31266789.00 L 89102898.00 31277092.00 L 89337110.00 31277092.00 L 89361985.00 31266789.00  z"/>
<path id="N" d="M 117013918.00 29109665.00 L 117026399.00 29079532.00 L 117026399.00 28813784.00 L 117013918.00 28783651.00 L 116983785.00 28771170.00 L 116953652.00 28783651.00 L 116941171.00 28813784.00 L 116941171.00 29079532.00 L 116953652.00 29109665.00 L 116983785.00 29122146.00 L 117013918.00 29109665.00  z"/>
<path id="N" d="M 87543391.00 25567564.00 L 86716619.00 25567564.00 L 86716619.00 27772288.00 L 87543391.00 27772288.00 L 87543391.00 25567564.00  z"/>
<path id="N" d="M 116029666.00 30566358.00 L 116042147.00 30536225.00 L 116029666.00 30506092.00 L 115999533.00 30493611.00 L 115733785.00 30493611.00 L 115703652.00 30506092.00 L 115691171.00 30536225.00 L 115703652.00 30566358.00 L 115733785.00 30578839.00 L 115999533.00 30578839.00 L 116029666.00 30566358.00  z"/>
<path id="N" d="M 79478666.00 31159926.00 L 79242446.00 31159926.00 L 79242446.00 31770162.00 L 79478666.00 31770162.00 L 79478666.00 31159926.00  z"/>
<path id="N" d="M 94009999.36 29119995.74 m -372289.53 0 a 372289.53 372289.53 0 1 1 744579.06 0a 372289.53 372289.53 0 1 1 -744579.06 0M 94010003.81 29120006.80 m -250882.20 0 a 250882.20 250882.20 0 1 1 501764.39 0a 250882.20 250882.20 0 1 1 -501764.39 0"/>
<path id="N" d="M 116029666.00 31196279.00 L 116042147.00 31166146.00 L 116029666.00 31136013.00 L 115999533.00 31123532.00 L 115733785.00 31123532.00 L 115703652.00 31136013.00 L 115691171.00 31166146.00 L 115703652.00 31196279.00 L 115733785.00 31208760.00 L 115999533.00 31208760.00 L 116029666.00 31196279.00  z"/>
<path id="N" d="M 109601985.00 31266789.00 L 109612288.00 31241914.00 L 109612288.00 31046914.00 L 109601985.00 31022039.00 L 109577110.00 31011736.00 L 109342898.00 31011736.00 L 109318023.00 31022039.00 L 109307720.00 31046914.00 L 109307720.00 31241914.00 L 109318023.00 31266789.00 L 109342898.00 31277092.00 L 109577110.00 31277092.00 L 109601985.00 31266789.00  z"/>
<path id="N" d="M 122447971.00 31821987.00 L 122458274.00 31797112.00 L 122458274.00 31562900.00 L 122447971.00 31538025.00 L 122423096.00 31527722.00 L 122228096.00 31527722.00 L 122203221.00 31538025.00 L 122192918.00 31562900.00 L 122192918.00 31797112.00 L 122203221.00 31821987.00 L 122228096.00 31832290.00 L 122423096.00 31832290.00 L 122447971.00 31821987.00  z"/>
<path id="N" d="M 118273761.00 31816358.00 L 118286242.00 31786225.00 L 118286242.00 31520477.00 L 118273761.00 31490344.00 L 118243628.00 31477863.00 L 118213495.00 31490344.00 L 118201014.00 31520477.00 L 118201014.00 31786225.00 L 118213495.00 31816358.00 L 118243628.00 31828839.00 L 118273761.00 31816358.00  z"/>
<path id="N" d="M 75209999.36 31119995.74 m -372289.53 0 a 372289.53 372289.53 0 1 1 744579.06 0a 372289.53 372289.53 0 1 1 -744579.06 0M 75210003.81 31120006.80 m -250882.20 0 a 250882.20 250882.20 0 1 1 501764.39 0a 250882.20 250882.20 0 1 1 -501764.39 0"/>
<path id="N" d="M 118736359.00 29778956.00 L 118748840.00 29748823.00 L 118736359.00 29718690.00 L 118706226.00 29706209.00 L 118440478.00 29706209.00 L 118410345.00 29718690.00 L 118397864.00 29748823.00 L 118410345.00 29778956.00 L 118440478.00 29791437.00 L 118706226.00 29791437.00 L 118736359.00 29778956.00  z"/>
<path id="N" d="M 117013918.00 31816358.00 L 117026399.00 31786225.00 L 117026399.00 31520477.00 L 117013918.00 31490344.00 L 116983785.00 31477863.00 L 116953652.00 31490344.00 L 116941171.00 31520477.00 L 116941171.00 31786225.00 L 116953652.00 31816358.00 L 116983785.00 31828839.00 L 117013918.00 31816358.00  z"/>
<path id="N" d="M 99537958.00 31201737.00 L 99282052.00 31201737.00 L 99282052.00 31811973.00 L 99537958.00 31811973.00 L 99537958.00 31201737.00  z"/>
<path id="N" d="M 116383997.00 31816358.00 L 116396478.00 31786225.00 L 116396478.00 31520477.00 L 116383997.00 31490344.00 L 116353864.00 31477863.00 L 116323731.00 31490344.00 L 116311250.00 31520477.00 L 116311250.00 31786225.00 L 116323731.00 31816358.00 L 116353864.00 31828839.00 L 116383997.00 31816358.00  z"/>
<path id="N" d="M 99537958.00 28308037.00 L 99282052.00 28308037.00 L 99282052.00 28918273.00 L 99537958.00 28918273.00 L 99537958.00 28308037.00  z"/>
<path id="N" d="M 96007971.00 31821987.00 L 96018274.00 31797112.00 L 96018274.00 31562900.00 L 96007971.00 31538025.00 L 95983096.00 31527722.00 L 95788096.00 31527722.00 L 95763221.00 31538025.00 L 95752918.00 31562900.00 L 95752918.00 31797112.00 L 95763221.00 31821987.00 L 95788096.00 31832290.00 L 95983096.00 31832290.00 L 96007971.00 31821987.00  z"/>
<path id="N" d="M 101656789.00 31821987.00 L 101667092.00 31797112.00 L 101667092.00 31562900.00 L 101656789.00 31538025.00 L 101631914.00 31527722.00 L 101436914.00 31527722.00 L 101412039.00 31538025.00 L 101401736.00 31562900.00 L 101401736.00 31797112.00 L 101412039.00 31821987.00 L 101436914.00 31832290.00 L 101631914.00 31832290.00 L 101656789.00 31821987.00  z"/>
<path id="N" d="M 116226516.00 31816358.00 L 116238997.00 31786225.00 L 116238997.00 31520477.00 L 116226516.00 31490344.00 L 116196383.00 31477863.00 L 116166250.00 31490344.00 L 116153769.00 31520477.00 L 116153769.00 31786225.00 L 116166250.00 31816358.00 L 116196383.00 31828839.00 L 116226516.00 31816358.00  z"/>
<path id="N" d="M 99037958.00 28308037.00 L 98782052.00 28308037.00 L 98782052.00 28918273.00 L 99037958.00 28918273.00 L 99037958.00 28308037.00  z"/>
<path id="N" d="M 112317971.00 31821987.00 L 112328274.00 31797112.00 L 112328274.00 31562900.00 L 112317971.00 31538025.00 L 112293096.00 31527722.00 L 112098096.00 31527722.00 L 112073221.00 31538025.00 L 112062918.00 31562900.00 L 112062918.00 31797112.00 L 112073221.00 31821987.00 L 112098096.00 31832290.00 L 112293096.00 31832290.00 L 112317971.00 31821987.00  z"/>
<path id="N" d="M 117643839.00 31816358.00 L 117656320.00 31786225.00 L 117656320.00 31520477.00 L 117643839.00 31490344.00 L 117613706.00 31477863.00 L 117583573.00 31490344.00 L 117571092.00 31520477.00 L 117571092.00 31786225.00 L 117583573.00 31816358.00 L 117613706.00 31828839.00 L 117643839.00 31816358.00  z"/>
<path id="N" d="M 82787971.00 31821987.00 L 82798274.00 31797112.00 L 82798274.00 31562900.00 L 82787971.00 31538025.00 L 82763096.00 31527722.00 L 82568096.00 31527722.00 L 82543221.00 31538025.00 L 82532918.00 31562900.00 L 82532918.00 31797112.00 L 82543221.00 31821987.00 L 82568096.00 31832290.00 L 82763096.00 31832290.00 L 82787971.00 31821987.00  z"/>
<path id="N" d="M 117171398.00 29109665.00 L 117183879.00 29079532.00 L 117183879.00 28813784.00 L 117171398.00 28783651.00 L 117141265.00 28771170.00 L 117111132.00 28783651.00 L 117098651.00 28813784.00 L 117098651.00 29079532.00 L 117111132.00 29109665.00 L 117141265.00 29122146.00 L 117171398.00 29109665.00  z"/>
<path id="N" d="M 119731985.00 31266789.00 L 119742288.00 31241914.00 L 119742288.00 31046914.00 L 119731985.00 31022039.00 L 119707110.00 31011736.00 L 119472898.00 31011736.00 L 119448023.00 31022039.00 L 119437720.00 31046914.00 L 119437720.00 31241914.00 L 119448023.00 31266789.00 L 119472898.00 31277092.00 L 119707110.00 31277092.00 L 119731985.00 31266789.00  z"/>
<path id="N" d="M 125606789.00 31821987.00 L 125617092.00 31797112.00 L 125617092.00 31562900.00 L 125606789.00 31538025.00 L 125581914.00 31527722.00 L 125386914.00 31527722.00 L 125362039.00 31538025.00 L 125351736.00 31562900.00 L 125351736.00 31797112.00 L 125362039.00 31821987.00 L 125386914.00 31832290.00 L 125581914.00 31832290.00 L 125606789.00 31821987.00  z"/>
<path id="N" d="M 127341985.00 31266789.00 L 127352288.00 31241914.00 L 127352288.00 31046914.00 L 127341985.00 31022039.00 L 127317110.00 31011736.00 L 127082898.00 31011736.00 L 127058023.00 31022039.00 L 127047720.00 31046914.00 L 127047720.00 31241914.00 L 127058023.00 31266789.00 L 127082898.00 31277092.00 L 127317110.00 31277092.00 L 127341985.00 31266789.00  z"/>
<path id="N" d="M 117171398.00 31816358.00 L 117183879.00 31786225.00 L 117183879.00 31520477.00 L 117171398.00 31490344.00 L 117141265.00 31477863.00 L 117111132.00 31490344.00 L 117098651.00 31520477.00 L 117098651.00 31786225.00 L 117111132.00 31816358.00 L 117141265.00 31828839.00 L 117171398.00 31816358.00  z"/>
<path id="N" d="M 117958800.00 31816358.00 L 117971281.00 31786225.00 L 117971281.00 31520477.00 L 117958800.00 31490344.00 L 117928667.00 31477863.00 L 117898534.00 31490344.00 L 117886053.00 31520477.00 L 117886053.00 31786225.00 L 117898534.00 31816358.00 L 117928667.00 31828839.00 L 117958800.00 31816358.00  z"/>
<path id="N" d="M 117486359.00 29109665.00 L 117498840.00 29079532.00 L 117498840.00 28813784.00 L 117486359.00 28783651.00 L 117456226.00 28771170.00 L 117426093.00 28783651.00 L 117413612.00 28813784.00 L 117413612.00 29079532.00 L 117426093.00 29109665.00 L 117456226.00 29122146.00 L 117486359.00 29109665.00  z"/>
<path id="N" d="M 83981985.00 31266789.00 L 83992288.00 31241914.00 L 83992288.00 31046914.00 L 83981985.00 31022039.00 L 83957110.00 31011736.00 L 83722898.00 31011736.00 L 83698023.00 31022039.00 L 83687720.00 31046914.00 L 83687720.00 31241914.00 L 83698023.00 31266789.00 L 83722898.00 31277092.00 L 83957110.00 31277092.00 L 83981985.00 31266789.00  z"/>
<path id="N" d="M 82236789.00 31821987.00 L 82247092.00 31797112.00 L 82247092.00 31562900.00 L 82236789.00 31538025.00 L 82211914.00 31527722.00 L 82016914.00 31527722.00 L 81992039.00 31538025.00 L 81981736.00 31562900.00 L 81981736.00 31797112.00 L 81992039.00 31821987.00 L 82016914.00 31832290.00 L 82211914.00 31832290.00 L 82236789.00 31821987.00  z"/>
<path id="N" d="M 87543391.00 29307722.00 L 86716619.00 29307722.00 L 86716619.00 31512446.00 L 87543391.00 31512446.00 L 87543391.00 29307722.00  z"/>
<path id="N" d="M 71239993.98 28939986.45 m -307772.16 0 a 307772.16 307772.16 0 1 1 615544.33 0a 307772.16 307772.16 0 1 1 -615544.33 0M 71240004.24 28940004.93 m -204721.07 0 a 204721.07 204721.07 0 1 1 409442.13 0a 204721.07 204721.07 0 1 1 -409442.13 0"/>
<path id="N" d="M 117643839.00 29109665.00 L 117656320.00 29079532.00 L 117656320.00 28813784.00 L 117643839.00 28783651.00 L 117613706.00 28771170.00 L 117583573.00 28783651.00 L 117571092.00 28813784.00 L 117571092.00 29079532.00 L 117583573.00 29109665.00 L 117613706.00 29122146.00 L 117643839.00 29109665.00  z"/>
<path id="N" d="M 116029666.00 30881319.00 L 116042147.00 30851186.00 L 116029666.00 30821053.00 L 115999533.00 30808572.00 L 115733785.00 30808572.00 L 115703652.00 30821053.00 L 115691171.00 30851186.00 L 115703652.00 30881319.00 L 115733785.00 30893800.00 L 115999533.00 30893800.00 L 116029666.00 30881319.00  z"/>
<path id="N" d="M 118736359.00 30566358.00 L 118748840.00 30536225.00 L 118736359.00 30506092.00 L 118706226.00 30493611.00 L 118440478.00 30493611.00 L 118410345.00 30506092.00 L 118397864.00 30536225.00 L 118410345.00 30566358.00 L 118440478.00 30578839.00 L 118706226.00 30578839.00 L 118736359.00 30566358.00  z"/>
<path id="N" d="M 118736359.00 30251397.00 L 118748840.00 30221264.00 L 118736359.00 30191131.00 L 118706226.00 30178650.00 L 118440478.00 30178650.00 L 118410345.00 30191131.00 L 118397864.00 30221264.00 L 118410345.00 30251397.00 L 118440478.00 30263878.00 L 118706226.00 30263878.00 L 118736359.00 30251397.00  z"/>
<path id="N" d="M 118736359.00 31196279.00 L 118748840.00 31166146.00 L 118736359.00 31136013.00 L 118706226.00 31123532.00 L 118440478.00 31123532.00 L 118410345.00 31136013.00 L 118397864.00 31166146.00 L 118410345.00 31196279.00 L 118440478.00 31208760.00 L 118706226.00 31208760.00 L 118736359.00 31196279.00  z"/>
<path id="N" d="M 118736359.00 31038799.00 L 118748840.00 31008666.00 L 118736359.00 30978533.00 L 118706226.00 30966052.00 L 118440478.00 30966052.00 L 118410345.00 30978533.00 L 118397864.00 31008666.00 L 118410345.00 31038799.00 L 118440478.00 31051280.00 L 118706226.00 31051280.00 L 118736359.00 31038799.00  z"/>
<path id="N" d="M 116029666.00 30723838.00 L 116042147.00 30693705.00 L 116029666.00 30663572.00 L 115999533.00 30651091.00 L 115733785.00 30651091.00 L 115703652.00 30663572.00 L 115691171.00 30693705.00 L 115703652.00 30723838.00 L 115733785.00 30736319.00 L 115999533.00 30736319.00 L 116029666.00 30723838.00  z"/>
<path id="N" d="M 116029666.00 29778956.00 L 116042147.00 29748823.00 L 116029666.00 29718690.00 L 115999533.00 29706209.00 L 115733785.00 29706209.00 L 115703652.00 29718690.00 L 115691171.00 29748823.00 L 115703652.00 29778956.00 L 115733785.00 29791437.00 L 115999533.00 29791437.00 L 116029666.00 29778956.00  z"/>
<path id="N" d="M 116383997.00 29109665.00 L 116396478.00 29079532.00 L 116396478.00 28813784.00 L 116383997.00 28783651.00 L 116353864.00 28771170.00 L 116323731.00 28783651.00 L 116311250.00 28813784.00 L 116311250.00 29079532.00 L 116323731.00 29109665.00 L 116353864.00 29122146.00 L 116383997.00 29109665.00  z"/>
<path id="N" d="M 116029666.00 29621476.00 L 116042147.00 29591343.00 L 116029666.00 29561210.00 L 115999533.00 29548729.00 L 115733785.00 29548729.00 L 115703652.00 29561210.00 L 115691171.00 29591343.00 L 115703652.00 29621476.00 L 115733785.00 29633957.00 L 115999533.00 29633957.00 L 116029666.00 29621476.00  z"/>
<path id="N" d="M 118273761.00 29109665.00 L 118286242.00 29079532.00 L 118286242.00 28813784.00 L 118273761.00 28783651.00 L 118243628.00 28771170.00 L 118213495.00 28783651.00 L 118201014.00 28813784.00 L 118201014.00 29079532.00 L 118213495.00 29109665.00 L 118243628.00 29122146.00 L 118273761.00 29109665.00  z"/>
<path id="N" d="M 116029666.00 29306515.00 L 116042147.00 29276382.00 L 116029666.00 29246249.00 L 115999533.00 29233768.00 L 115733785.00 29233768.00 L 115703652.00 29246249.00 L 115691171.00 29276382.00 L 115703652.00 29306515.00 L 115733785.00 29318996.00 L 115999533.00 29318996.00 L 116029666.00 29306515.00  z"/>
<path id="N" d="M 118736359.00 30408878.00 L 118748840.00 30378745.00 L 118736359.00 30348612.00 L 118706226.00 30336131.00 L 118440478.00 30336131.00 L 118410345.00 30348612.00 L 118397864.00 30378745.00 L 118410345.00 30408878.00 L 118440478.00 30421359.00 L 118706226.00 30421359.00 L 118736359.00 30408878.00  z"/>
<path id="N" d="M 116029666.00 29463996.00 L 116042147.00 29433863.00 L 116029666.00 29403730.00 L 115999533.00 29391249.00 L 115733785.00 29391249.00 L 115703652.00 29403730.00 L 115691171.00 29433863.00 L 115703652.00 29463996.00 L 115733785.00 29476477.00 L 115999533.00 29476477.00 L 116029666.00 29463996.00  z"/>
<path id="N" d="M 117958800.00 29109665.00 L 117971281.00 29079532.00 L 117971281.00 28813784.00 L 117958800.00 28783651.00 L 117928667.00 28771170.00 L 117898534.00 28783651.00 L 117886053.00 28813784.00 L 117886053.00 29079532.00 L 117898534.00 29109665.00 L 117928667.00 29122146.00 L 117958800.00 29109665.00  z"/>
<path id="N" d="M 116029666.00 30251397.00 L 116042147.00 30221264.00 L 116029666.00 30191131.00 L 115999533.00 30178650.00 L 115733785.00 30178650.00 L 115703652.00 30191131.00 L 115691171.00 30221264.00 L 115703652.00 30251397.00 L 115733785.00 30263878.00 L 115999533.00 30263878.00 L 116029666.00 30251397.00  z"/>
<path id="N" d="M 116029666.00 30093917.00 L 116042147.00 30063784.00 L 116029666.00 30033651.00 L 115999533.00 30021170.00 L 115733785.00 30021170.00 L 115703652.00 30033651.00 L 115691171.00 30063784.00 L 115703652.00 30093917.00 L 115733785.00 30106398.00 L 115999533.00 30106398.00 L 116029666.00 30093917.00  z"/>
<path id="N" d="M 116698957.00 29109665.00 L 116711438.00 29079532.00 L 116711438.00 28813784.00 L 116698957.00 28783651.00 L 116668824.00 28771170.00 L 116638691.00 28783651.00 L 116626210.00 28813784.00 L 116626210.00 29079532.00 L 116638691.00 29109665.00 L 116668824.00 29122146.00 L 116698957.00 29109665.00  z"/>
<path id="N" d="M 116226516.00 29109665.00 L 116238997.00 29079532.00 L 116238997.00 28813784.00 L 116226516.00 28783651.00 L 116196383.00 28771170.00 L 116166250.00 28783651.00 L 116153769.00 28813784.00 L 116153769.00 29079532.00 L 116166250.00 29109665.00 L 116196383.00 29122146.00 L 116226516.00 29109665.00  z"/>
<path id="N" d="M 118736359.00 30093917.00 L 118748840.00 30063784.00 L 118736359.00 30033651.00 L 118706226.00 30021170.00 L 118440478.00 30021170.00 L 118410345.00 30033651.00 L 118397864.00 30063784.00 L 118410345.00 30093917.00 L 118440478.00 30106398.00 L 118706226.00 30106398.00 L 118736359.00 30093917.00  z"/>
<path id="N" d="M 118116280.00 29109665.00 L 118128761.00 29079532.00 L 118128761.00 28813784.00 L 118116280.00 28783651.00 L 118086147.00 28771170.00 L 118056014.00 28783651.00 L 118043533.00 28813784.00 L 118043533.00 29079532.00 L 118056014.00 29109665.00 L 118086147.00 29122146.00 L 118116280.00 29109665.00  z"/>
<path id="N" d="M 79084965.00 29585124.00 L 78612525.00 29585124.00 L 78612525.00 30293784.00 L 79084965.00 30293784.00 L 79084965.00 29585124.00  z"/>
<path id="N" d="M 152214651.00 30981265.00 L 152057171.00 30981265.00 L 152057171.00 31512761.00 L 152214651.00 31512761.00 L 152214651.00 30981265.00  z"/>
<path id="N" d="M 81289690.00 29585124.00 L 80817250.00 29585124.00 L 80817250.00 30293784.00 L 81289690.00 30293784.00 L 81289690.00 29585124.00  z"/>
<path id="N" d="M 116698957.00 31816358.00 L 116711438.00 31786225.00 L 116711438.00 31520477.00 L 116698957.00 31490344.00 L 116668824.00 31477863.00 L 116638691.00 31490344.00 L 116626210.00 31520477.00 L 116626210.00 31786225.00 L 116638691.00 31816358.00 L 116668824.00 31828839.00 L 116698957.00 31816358.00  z"/>
<path id="N" d="M 100537958.00 31201737.00 L 100282052.00 31201737.00 L 100282052.00 31811973.00 L 100537958.00 31811973.00 L 100537958.00 31201737.00  z"/>
<path id="N" d="M 116541477.00 31816358.00 L 116553958.00 31786225.00 L 116553958.00 31520477.00 L 116541477.00 31490344.00 L 116511344.00 31477863.00 L 116481211.00 31490344.00 L 116468730.00 31520477.00 L 116468730.00 31786225.00 L 116481211.00 31816358.00 L 116511344.00 31828839.00 L 116541477.00 31816358.00  z"/>
<path id="N" d="M 100037958.00 28308037.00 L 99782052.00 28308037.00 L 99782052.00 28918273.00 L 100037958.00 28918273.00 L 100037958.00 28308037.00  z"/>
<path id="N" d="M 121896789.00 31821987.00 L 121907092.00 31797112.00 L 121907092.00 31562900.00 L 121896789.00 31538025.00 L 121871914.00 31527722.00 L 121676914.00 31527722.00 L 121652039.00 31538025.00 L 121641736.00 31562900.00 L 121641736.00 31797112.00 L 121652039.00 31821987.00 L 121676914.00 31832290.00 L 121871914.00 31832290.00 L 121896789.00 31821987.00  z"/>
<path id="N" d="M 140257971.00 31821987.00 L 140268274.00 31797112.00 L 140268274.00 31562900.00 L 140257971.00 31538025.00 L 140233096.00 31527722.00 L 140038096.00 31527722.00 L 140013221.00 31538025.00 L 140002918.00 31562900.00 L 140002918.00 31797112.00 L 140013221.00 31821987.00 L 140038096.00 31832290.00 L 140233096.00 31832290.00 L 140257971.00 31821987.00  z"/>
<path id="N" d="M 75209999.36 28119995.74 m -372289.53 0 a 372289.53 372289.53 0 1 1 744579.06 0a 372289.53 372289.53 0 1 1 -744579.06 0M 75210003.81 28120006.80 m -250882.20 0 a 250882.20 250882.20 0 1 1 501764.39 0a 250882.20 250882.20 0 1 1 -501764.39 0"/>
<path id="N" d="M 118736359.00 29463996.00 L 118748840.00 29433863.00 L 118736359.00 29403730.00 L 118706226.00 29391249.00 L 118440478.00 29391249.00 L 118410345.00 29403730.00 L 118397864.00 29433863.00 L 118410345.00 29463996.00 L 118440478.00 29476477.00 L 118706226.00 29476477.00 L 118736359.00 29463996.00  z"/>
<path id="N" d="M 75579099.00 26750911.00 L 74840911.00 26750911.00 L 74840911.00 27489099.00 L 75579099.00 27489099.00 L 75579099.00 26750911.00  zM 75210003.81 27120006.80 m -250882.20 0 a 250882.20 250882.20 0 1 1 501764.39 0a 250882.20 250882.20 0 1 1 -501764.39 0"/>
<path id="N" d="M 118736359.00 29306515.00 L 118748840.00 29276382.00 L 118736359.00 29246249.00 L 118706226.00 29233768.00 L 118440478.00 29233768.00 L 118410345.00 29246249.00 L 118397864.00 29276382.00 L 118410345.00 29306515.00 L 118440478.00 29318996.00 L 118706226.00 29318996.00 L 118736359.00 29306515.00  z"/>
</g>
</svg>
