G04*
G04 #@! TF.GenerationSoftware,Altium Limited,Altium Designer,24.1.2 (44)*
G04*
G04 Layer_Color=65535*
%FSLAX25Y25*%
%MOIN*%
G70*
G04*
G04 #@! TF.SameCoordinates,C804618F-CC2D-40EB-8674-F133FD29D43B*
G04*
G04*
G04 #@! TF.FilePolarity,Positive*
G04*
G01*
G75*
%ADD10C,0.00394*%
%ADD11C,0.00984*%
%ADD12C,0.00787*%
%ADD13C,0.01000*%
%ADD14C,0.00900*%
%ADD15C,0.00800*%
D10*
X103543Y168898D02*
G03*
X103543Y169291I0J197D01*
G01*
D02*
G03*
X103543Y168898I0J-197D01*
G01*
X67723Y39670D02*
G03*
X67329Y39670I-197J0D01*
G01*
D02*
G03*
X67723Y39670I197J0D01*
G01*
X152542Y175800D02*
G03*
X152936Y175800I197J0D01*
G01*
D02*
G03*
X152542Y175800I-197J0D01*
G01*
X83583Y2874D02*
Y12874D01*
Y2874D02*
X113583D01*
Y12874D01*
X83583D02*
X113583D01*
D11*
X81988Y108780D02*
G03*
X81988Y108780I-492J0D01*
G01*
D12*
X88583Y984D02*
G03*
X88583Y984I-197J0D01*
G01*
X170995Y125210D02*
Y138990D01*
X145405Y125210D02*
X170995D01*
X145405D02*
Y138990D01*
X170995D01*
X170503Y143025D02*
Y147947D01*
X36014Y52846D02*
X37786D01*
X36014Y58554D02*
X37786D01*
X113898Y189370D02*
Y195098D01*
X82953D02*
X113898D01*
X82953Y189370D02*
Y195098D01*
X23550Y140319D02*
Y142681D01*
X17250Y140319D02*
Y142681D01*
X76384Y30418D02*
Y34158D01*
Y30418D02*
X121266D01*
Y34158D01*
Y45182D02*
Y48922D01*
X76384D02*
X121266D01*
X76384Y45182D02*
Y48922D01*
X134301Y34408D02*
Y40992D01*
X140099Y34408D02*
Y40992D01*
X95395Y59057D02*
X100405D01*
X95395Y53742D02*
X100405D01*
X97543Y116395D02*
Y121405D01*
X102857Y116395D02*
Y121405D01*
X102842Y116395D02*
Y121405D01*
X108158Y116395D02*
Y121405D01*
X109341Y115131D02*
Y119069D01*
X114459Y115131D02*
Y119069D01*
X114441Y115131D02*
Y119069D01*
X119559Y115131D02*
Y119069D01*
X84055Y80630D02*
X86221D01*
X84055D02*
Y82795D01*
X110630Y80630D02*
X112795D01*
Y82795D01*
Y107205D02*
Y109370D01*
X110630D02*
X112795D01*
X84055D02*
X86221D01*
X84055Y107205D02*
Y109370D01*
X63599Y34508D02*
Y41092D01*
X57801Y34508D02*
Y41092D01*
X138814Y158954D02*
X140586D01*
X138814Y153246D02*
X140586D01*
X47295Y113657D02*
X52305D01*
X47295Y108343D02*
X52305D01*
X73795Y113558D02*
X78805D01*
X73795Y108242D02*
X78805D01*
X150758Y105995D02*
Y111005D01*
X145442Y105995D02*
Y111005D01*
X139954Y122814D02*
Y124586D01*
X134246Y122814D02*
Y124586D01*
X129341Y106532D02*
Y110468D01*
X134459Y106532D02*
Y110468D01*
X141125Y179147D02*
X144275D01*
X141125Y172453D02*
X144275D01*
X40000Y124652D02*
Y146148D01*
Y124652D02*
X50000D01*
Y146148D01*
X40000D02*
X50000D01*
X131952Y182900D02*
X153448D01*
Y192900D01*
X131952D02*
X153448D01*
X131952Y182900D02*
Y192900D01*
X52606Y123861D02*
Y143939D01*
X73394D01*
Y123861D02*
Y143939D01*
X52606Y123861D02*
X73394D01*
X52842Y116380D02*
Y122483D01*
X6890Y143780D02*
X12106D01*
Y90827D02*
Y143780D01*
X1969Y90827D02*
X12106D01*
X1969D02*
Y137795D01*
X189600Y144484D02*
X194817D01*
Y91531D02*
Y144484D01*
X184679Y91531D02*
X194817D01*
X184679D02*
Y138500D01*
X184783Y33386D02*
X190000D01*
X184783D02*
Y86339D01*
X194921D01*
Y39370D02*
Y86339D01*
D13*
X24419Y74008D02*
G03*
X24419Y74008I-238J0D01*
G01*
X1969Y57468D02*
Y72465D01*
X21063Y53150D02*
Y57335D01*
Y72720D02*
Y76772D01*
X9331Y53150D02*
X21063D01*
X9331Y76772D02*
X21063D01*
D14*
X5332Y48807D02*
X2500D01*
Y46683D01*
X3916D01*
X2500D01*
Y44558D01*
X6749Y48807D02*
Y44558D01*
X9581D01*
X10997Y48807D02*
X12414D01*
X11705D01*
Y44558D01*
X10997D01*
X12414D01*
X17370Y48099D02*
X16662Y48807D01*
X15246D01*
X14538Y48099D01*
Y45267D01*
X15246Y44558D01*
X16662D01*
X17370Y45267D01*
Y46683D01*
X15954D01*
X18786Y48807D02*
Y44558D01*
Y46683D01*
X21619D01*
Y48807D01*
Y44558D01*
X23035Y48807D02*
X25868D01*
X24451D01*
Y44558D01*
X5332Y40841D02*
X4624Y41549D01*
X3208D01*
X2500Y40841D01*
Y38008D01*
X3208Y37300D01*
X4624D01*
X5332Y38008D01*
X8873Y41549D02*
X7457D01*
X6749Y40841D01*
Y38008D01*
X7457Y37300D01*
X8873D01*
X9581Y38008D01*
Y40841D01*
X8873Y41549D01*
X10997Y37300D02*
Y41549D01*
X13830Y37300D01*
Y41549D01*
X15246D02*
X18078D01*
X16662D01*
Y37300D01*
X19494D02*
Y41549D01*
X21619D01*
X22327Y40841D01*
Y39424D01*
X21619Y38716D01*
X19494D01*
X20911D02*
X22327Y37300D01*
X23743Y41549D02*
Y37300D01*
X26576D01*
X62300Y192799D02*
Y189050D01*
X63050Y188300D01*
X64549D01*
X65299Y189050D01*
Y192799D01*
X69798Y192049D02*
X69048Y192799D01*
X67548D01*
X66799Y192049D01*
Y191299D01*
X67548Y190549D01*
X69048D01*
X69798Y189799D01*
Y189050D01*
X69048Y188300D01*
X67548D01*
X66799Y189050D01*
X71297Y192799D02*
Y188300D01*
X73546D01*
X74296Y189050D01*
Y189799D01*
X73546Y190549D01*
X71297D01*
X73546D01*
X74296Y191299D01*
Y192049D01*
X73546Y192799D01*
X71297D01*
X121199Y193549D02*
X120449Y194299D01*
X118950D01*
X118200Y193549D01*
Y190550D01*
X118950Y189800D01*
X120449D01*
X121199Y190550D01*
Y192049D01*
X119700D01*
X122699Y189800D02*
Y194299D01*
X125698Y189800D01*
Y194299D01*
X127197D02*
Y189800D01*
X129446D01*
X130196Y190550D01*
Y193549D01*
X129446Y194299D01*
X127197D01*
X33501Y116000D02*
X38000D01*
Y118249D01*
X37250Y118999D01*
X36500D01*
X35751Y118249D01*
Y116000D01*
Y118249D01*
X35001Y118999D01*
X34251D01*
X33501Y118249D01*
Y116000D01*
Y122748D02*
Y121248D01*
X34251Y120499D01*
X37250D01*
X38000Y121248D01*
Y122748D01*
X37250Y123498D01*
X34251D01*
X33501Y122748D01*
Y127246D02*
Y125747D01*
X34251Y124997D01*
X37250D01*
X38000Y125747D01*
Y127246D01*
X37250Y127996D01*
X34251D01*
X33501Y127246D01*
Y129496D02*
Y132495D01*
Y130995D01*
X38000D01*
X34251Y136993D02*
X33501Y136243D01*
Y134744D01*
X34251Y133994D01*
X35001D01*
X35751Y134744D01*
Y136243D01*
X36500Y136993D01*
X37250D01*
X38000Y136243D01*
Y134744D01*
X37250Y133994D01*
X33501Y141492D02*
Y138493D01*
X38000D01*
Y141492D01*
X35751Y138493D02*
Y139992D01*
X33501Y142991D02*
X38000D01*
Y145990D01*
X86100Y23400D02*
X87599D01*
X86850D01*
Y27899D01*
X86100Y27149D01*
X92848Y23400D02*
X89849D01*
X92848Y26399D01*
Y27149D01*
X92098Y27899D01*
X90599D01*
X89849Y27149D01*
X98846Y23400D02*
Y27899D01*
X100345Y26399D01*
X101845Y27899D01*
Y23400D01*
X103344Y27899D02*
Y23400D01*
Y25649D01*
X106343D01*
Y27899D01*
Y23400D01*
X107843Y27899D02*
X110842D01*
Y27149D01*
X107843Y24150D01*
Y23400D01*
X110842D01*
X75301Y127166D02*
Y124500D01*
X77301D01*
Y125833D01*
Y124500D01*
X79300D01*
X75301Y128499D02*
X79300D01*
Y131165D01*
Y132497D02*
X76634D01*
X75301Y133830D01*
X76634Y135163D01*
X79300D01*
X77301D01*
Y132497D01*
X75968Y139162D02*
X75301Y138496D01*
Y137163D01*
X75968Y136496D01*
X76634D01*
X77301Y137163D01*
Y138496D01*
X77967Y139162D01*
X78634D01*
X79300Y138496D01*
Y137163D01*
X78634Y136496D01*
X75301Y140495D02*
X79300D01*
X77301D01*
Y143161D01*
X75301D01*
X79300D01*
X151700Y133249D02*
X152450Y133999D01*
X153949D01*
X154699Y133249D01*
Y132499D01*
X153949Y131749D01*
X153200D01*
X153949D01*
X154699Y131000D01*
Y130250D01*
X153949Y129500D01*
X152450D01*
X151700Y130250D01*
X156199Y133999D02*
Y131000D01*
X157698Y129500D01*
X159198Y131000D01*
Y133999D01*
X160697Y133249D02*
X161447Y133999D01*
X162946D01*
X163696Y133249D01*
Y132499D01*
X162946Y131749D01*
X162197D01*
X162946D01*
X163696Y131000D01*
Y130250D01*
X162946Y129500D01*
X161447D01*
X160697Y130250D01*
X155400Y187799D02*
Y184800D01*
X156899Y183300D01*
X158399Y184800D01*
Y187799D01*
X162898Y187049D02*
X162148Y187799D01*
X160648D01*
X159899Y187049D01*
Y186299D01*
X160648Y185549D01*
X162148D01*
X162898Y184800D01*
Y184050D01*
X162148Y183300D01*
X160648D01*
X159899Y184050D01*
X164397Y187799D02*
Y187049D01*
X165897Y185549D01*
X167396Y187049D01*
Y187799D01*
X165897Y185549D02*
Y183300D01*
X171895Y187049D02*
X171145Y187799D01*
X169645D01*
X168896Y187049D01*
Y186299D01*
X169645Y185549D01*
X171145D01*
X171895Y184800D01*
Y184050D01*
X171145Y183300D01*
X169645D01*
X168896Y184050D01*
X178100Y104500D02*
X181099D01*
X182599Y103000D01*
X181099Y101501D01*
X178100D01*
X180349D01*
Y104500D01*
X182599Y100001D02*
X178100D01*
Y97752D01*
X178850Y97002D01*
X181849D01*
X182599Y97752D01*
Y100001D01*
X181849Y92504D02*
X182599Y93254D01*
Y94753D01*
X181849Y95503D01*
X178850D01*
X178100Y94753D01*
Y93254D01*
X178850Y92504D01*
X182049Y46201D02*
X182799Y46951D01*
Y48450D01*
X182049Y49200D01*
X179050D01*
X178300Y48450D01*
Y46951D01*
X179050Y46201D01*
X180549D01*
Y47701D01*
X178300Y44701D02*
X182799D01*
Y42452D01*
X182049Y41702D01*
X180549D01*
X179799Y42452D01*
Y44701D01*
X182799Y40203D02*
Y38703D01*
Y39453D01*
X178300D01*
Y40203D01*
Y38703D01*
X182799Y34205D02*
Y35704D01*
X182049Y36454D01*
X179050D01*
X178300Y35704D01*
Y34205D01*
X179050Y33455D01*
X182049D01*
X182799Y34205D01*
X60100Y10199D02*
Y5700D01*
X62349D01*
X63099Y6450D01*
Y9449D01*
X62349Y10199D01*
X60100D01*
X67598D02*
X64599D01*
Y5700D01*
X67598D01*
X64599Y7949D02*
X66098D01*
X69097Y10199D02*
Y5700D01*
X71346D01*
X72096Y6450D01*
Y7199D01*
X71346Y7949D01*
X69097D01*
X71346D01*
X72096Y8699D01*
Y9449D01*
X71346Y10199D01*
X69097D01*
X73596D02*
Y6450D01*
X74345Y5700D01*
X75845D01*
X76595Y6450D01*
Y10199D01*
X81093Y9449D02*
X80344Y10199D01*
X78844D01*
X78094Y9449D01*
Y6450D01*
X78844Y5700D01*
X80344D01*
X81093Y6450D01*
Y7949D01*
X79594D01*
X5451Y145700D02*
X4701Y146450D01*
Y147949D01*
X5451Y148699D01*
X6201D01*
X6951Y147949D01*
Y147199D01*
Y147949D01*
X7700Y148699D01*
X8450D01*
X9200Y147949D01*
Y146450D01*
X8450Y145700D01*
X4701Y150199D02*
X7700D01*
X9200Y151698D01*
X7700Y153198D01*
X4701D01*
X5451Y154697D02*
X4701Y155447D01*
Y156946D01*
X5451Y157696D01*
X6201D01*
X6951Y156946D01*
Y156197D01*
Y156946D01*
X7700Y157696D01*
X8450D01*
X9200Y156946D01*
Y155447D01*
X8450Y154697D01*
X17599Y129249D02*
X16849Y129999D01*
X15350D01*
X14600Y129249D01*
Y126250D01*
X15350Y125500D01*
X16849D01*
X17599Y126250D01*
Y127749D01*
X16100D01*
X19099Y125500D02*
Y129999D01*
X22098Y125500D01*
Y129999D01*
X23597D02*
Y125500D01*
X25846D01*
X26596Y126250D01*
Y129249D01*
X25846Y129999D01*
X23597D01*
X14400Y120199D02*
X17399D01*
X15900D01*
Y115700D01*
X18899Y120199D02*
X21898Y115700D01*
Y120199D02*
X18899Y115700D01*
X14900Y105500D02*
Y109999D01*
X17149D01*
X17899Y109249D01*
Y107749D01*
X17149Y107000D01*
X14900D01*
X16399D02*
X17899Y105500D01*
X19399Y109999D02*
X22398Y105500D01*
Y109999D02*
X19399Y105500D01*
X17599Y99649D02*
X16849Y100399D01*
X15350D01*
X14600Y99649D01*
Y98899D01*
X15350Y98149D01*
X16849D01*
X17599Y97399D01*
Y96650D01*
X16849Y95900D01*
X15350D01*
X14600Y96650D01*
X22098Y100399D02*
X19099D01*
Y95900D01*
X22098D01*
X19099Y98149D02*
X20598D01*
X23597Y100399D02*
X26596D01*
X25097D01*
Y95900D01*
D15*
X121868Y163399D02*
X124534D01*
X123201D01*
Y159401D01*
X125867D02*
Y163399D01*
X127866D01*
X128533Y162733D01*
Y161400D01*
X127866Y160733D01*
X125867D01*
X132532Y159401D02*
X129866D01*
X132532Y162066D01*
Y162733D01*
X131865Y163399D01*
X130532D01*
X129866Y162733D01*
X120135Y168899D02*
X122801D01*
X121468D01*
Y164901D01*
X124134D02*
Y168899D01*
X126133D01*
X126799Y168233D01*
Y166900D01*
X126133Y166234D01*
X124134D01*
X128132Y164901D02*
X129465D01*
X128799D01*
Y168899D01*
X128132Y168233D01*
X102668Y54401D02*
Y58399D01*
X104667D01*
X105333Y57733D01*
Y56400D01*
X104667Y55734D01*
X102668D01*
X104001D02*
X105333Y54401D01*
X106667Y55067D02*
X107333Y54401D01*
X108666D01*
X109332Y55067D01*
Y57733D01*
X108666Y58399D01*
X107333D01*
X106667Y57733D01*
Y57066D01*
X107333Y56400D01*
X109332D01*
X46568Y102401D02*
Y106399D01*
X48567D01*
X49234Y105733D01*
Y104400D01*
X48567Y103734D01*
X46568D01*
X47901D02*
X49234Y102401D01*
X50567Y105733D02*
X51233Y106399D01*
X52566D01*
X53232Y105733D01*
Y105067D01*
X52566Y104400D01*
X53232Y103734D01*
Y103067D01*
X52566Y102401D01*
X51233D01*
X50567Y103067D01*
Y103734D01*
X51233Y104400D01*
X50567Y105067D01*
Y105733D01*
X51233Y104400D02*
X52566D01*
X65168Y109001D02*
Y112999D01*
X67167D01*
X67834Y112333D01*
Y111000D01*
X67167Y110334D01*
X65168D01*
X66501D02*
X67834Y109001D01*
X69166Y112999D02*
X71832D01*
Y112333D01*
X69166Y109667D01*
Y109001D01*
X106268Y128001D02*
Y131999D01*
X108267D01*
X108933Y131333D01*
Y130000D01*
X108267Y129333D01*
X106268D01*
X107601D02*
X108933Y128001D01*
X112932Y131999D02*
X111599Y131333D01*
X110266Y130000D01*
Y128667D01*
X110933Y128001D01*
X112266D01*
X112932Y128667D01*
Y129333D01*
X112266Y130000D01*
X110266D01*
X97668Y128101D02*
Y132099D01*
X99667D01*
X100334Y131433D01*
Y130100D01*
X99667Y129434D01*
X97668D01*
X99001D02*
X100334Y128101D01*
X104332Y132099D02*
X101666D01*
Y130100D01*
X102999Y130766D01*
X103666D01*
X104332Y130100D01*
Y128767D01*
X103666Y128101D01*
X102333D01*
X101666Y128767D01*
X139768Y98101D02*
Y102099D01*
X141767D01*
X142434Y101433D01*
Y100100D01*
X141767Y99434D01*
X139768D01*
X141101D02*
X142434Y98101D01*
X145766D02*
Y102099D01*
X143766Y100100D01*
X146432D01*
X152668Y106501D02*
Y110499D01*
X154667D01*
X155333Y109833D01*
Y108500D01*
X154667Y107834D01*
X152668D01*
X154001D02*
X155333Y106501D01*
X156667Y109833D02*
X157333Y110499D01*
X158666D01*
X159332Y109833D01*
Y109167D01*
X158666Y108500D01*
X157999D01*
X158666D01*
X159332Y107834D01*
Y107167D01*
X158666Y106501D01*
X157333D01*
X156667Y107167D01*
X170134Y159701D02*
Y163699D01*
X172134D01*
X172800Y163033D01*
Y161700D01*
X172134Y161033D01*
X170134D01*
X171467D02*
X172800Y159701D01*
X174133D02*
X175466D01*
X174799D01*
Y163699D01*
X174133Y163033D01*
X180468Y149001D02*
Y152999D01*
X182467D01*
X183133Y152333D01*
Y151000D01*
X182467Y150333D01*
X180468D01*
X181801D02*
X183133Y149001D01*
X187132D02*
X184467D01*
X187132Y151666D01*
Y152333D01*
X186466Y152999D01*
X185133D01*
X184467Y152333D01*
X127234Y177699D02*
Y173701D01*
X129234D01*
X129900Y174367D01*
Y177033D01*
X129234Y177699D01*
X127234D01*
X131233Y173701D02*
X132566D01*
X131899D01*
Y177699D01*
X131233Y177033D01*
X47967Y57133D02*
X47301Y57799D01*
X45968D01*
X45302Y57133D01*
Y54467D01*
X45968Y53801D01*
X47301D01*
X47967Y54467D01*
X49300Y53801D02*
X50633D01*
X49967D01*
Y57799D01*
X49300Y57133D01*
X52633D02*
X53299Y57799D01*
X54632D01*
X55298Y57133D01*
Y56466D01*
X54632Y55800D01*
X55298Y55134D01*
Y54467D01*
X54632Y53801D01*
X53299D01*
X52633Y54467D01*
Y55134D01*
X53299Y55800D01*
X52633Y56466D01*
Y57133D01*
X53299Y55800D02*
X54632D01*
X135267Y46933D02*
X134601Y47599D01*
X133268D01*
X132602Y46933D01*
Y44267D01*
X133268Y43601D01*
X134601D01*
X135267Y44267D01*
X136600Y43601D02*
X137933D01*
X137267D01*
Y47599D01*
X136600Y46933D01*
X139933Y47599D02*
X142598D01*
Y46933D01*
X139933Y44267D01*
Y43601D01*
X58267Y30633D02*
X57601Y31299D01*
X56268D01*
X55602Y30633D01*
Y27967D01*
X56268Y27301D01*
X57601D01*
X58267Y27967D01*
X59600Y27301D02*
X60933D01*
X60267D01*
Y31299D01*
X59600Y30633D01*
X65598Y31299D02*
X64266Y30633D01*
X62933Y29300D01*
Y27967D01*
X63599Y27301D01*
X64932D01*
X65598Y27967D01*
Y28634D01*
X64932Y29300D01*
X62933D01*
X19567Y155533D02*
X18901Y156199D01*
X17568D01*
X16902Y155533D01*
Y152867D01*
X17568Y152201D01*
X18901D01*
X19567Y152867D01*
X20900Y152201D02*
X22233D01*
X21567D01*
Y156199D01*
X20900Y155533D01*
X26898Y156199D02*
X24233D01*
Y154200D01*
X25565Y154867D01*
X26232D01*
X26898Y154200D01*
Y152867D01*
X26232Y152201D01*
X24899D01*
X24233Y152867D01*
X61267Y164133D02*
X60601Y164799D01*
X59268D01*
X58602Y164133D01*
Y161467D01*
X59268Y160801D01*
X60601D01*
X61267Y161467D01*
X62600Y160801D02*
X63933D01*
X63267D01*
Y164799D01*
X62600Y164133D01*
X67932Y160801D02*
Y164799D01*
X65933Y162800D01*
X68598D01*
X129967Y101433D02*
X129301Y102099D01*
X127968D01*
X127302Y101433D01*
Y98767D01*
X127968Y98101D01*
X129301D01*
X129967Y98767D01*
X131300Y98101D02*
X132633D01*
X131967D01*
Y102099D01*
X131300Y101433D01*
X134633D02*
X135299Y102099D01*
X136632D01*
X137298Y101433D01*
Y100766D01*
X136632Y100100D01*
X135966D01*
X136632D01*
X137298Y99434D01*
Y98767D01*
X136632Y98101D01*
X135299D01*
X134633Y98767D01*
X112267Y125233D02*
X111601Y125899D01*
X110268D01*
X109602Y125233D01*
Y122567D01*
X110268Y121901D01*
X111601D01*
X112267Y122567D01*
X113600Y121901D02*
X114933D01*
X114267D01*
Y125899D01*
X113600Y125233D01*
X119598Y121901D02*
X116933D01*
X119598Y124566D01*
Y125233D01*
X118932Y125899D01*
X117599D01*
X116933Y125233D01*
X124034Y118533D02*
X123367Y119199D01*
X122035D01*
X121368Y118533D01*
Y115867D01*
X122035Y115201D01*
X123367D01*
X124034Y115867D01*
X125367Y115201D02*
X126700D01*
X126033D01*
Y119199D01*
X125367Y118533D01*
X128699Y115201D02*
X130032D01*
X129366D01*
Y119199D01*
X128699Y118533D01*
X108067Y69533D02*
X107401Y70199D01*
X106068D01*
X105402Y69533D01*
Y66867D01*
X106068Y66201D01*
X107401D01*
X108067Y66867D01*
X109400Y66201D02*
X110733D01*
X110067D01*
Y70199D01*
X109400Y69533D01*
X112733D02*
X113399Y70199D01*
X114732D01*
X115398Y69533D01*
Y66867D01*
X114732Y66201D01*
X113399D01*
X112733Y66867D01*
Y69533D01*
X91234Y137633D02*
X90567Y138299D01*
X89234D01*
X88568Y137633D01*
Y134967D01*
X89234Y134301D01*
X90567D01*
X91234Y134967D01*
X92567D02*
X93233Y134301D01*
X94566D01*
X95232Y134967D01*
Y137633D01*
X94566Y138299D01*
X93233D01*
X92567Y137633D01*
Y136967D01*
X93233Y136300D01*
X95232D01*
X75434Y86733D02*
X74767Y87399D01*
X73434D01*
X72768Y86733D01*
Y84067D01*
X73434Y83401D01*
X74767D01*
X75434Y84067D01*
X76767Y86733D02*
X77433Y87399D01*
X78766D01*
X79432Y86733D01*
Y86066D01*
X78766Y85400D01*
X79432Y84734D01*
Y84067D01*
X78766Y83401D01*
X77433D01*
X76767Y84067D01*
Y84734D01*
X77433Y85400D01*
X76767Y86066D01*
Y86733D01*
X77433Y85400D02*
X78766D01*
X121133Y87833D02*
X120467Y88499D01*
X119134D01*
X118468Y87833D01*
Y85167D01*
X119134Y84501D01*
X120467D01*
X121133Y85167D01*
X122467Y88499D02*
X125132D01*
Y87833D01*
X122467Y85167D01*
Y84501D01*
X90847Y69737D02*
X90181Y70404D01*
X88848D01*
X88182Y69737D01*
Y67071D01*
X88848Y66405D01*
X90181D01*
X90847Y67071D01*
X94846Y70404D02*
X93513Y69737D01*
X92180Y68404D01*
Y67071D01*
X92847Y66405D01*
X94179D01*
X94846Y67071D01*
Y67738D01*
X94179Y68404D01*
X92180D01*
X75534Y101833D02*
X74867Y102499D01*
X73534D01*
X72868Y101833D01*
Y99167D01*
X73534Y98501D01*
X74867D01*
X75534Y99167D01*
X79532Y102499D02*
X76867D01*
Y100500D01*
X78199Y101166D01*
X78866D01*
X79532Y100500D01*
Y99167D01*
X78866Y98501D01*
X77533D01*
X76867Y99167D01*
X121133Y99633D02*
X120467Y100299D01*
X119134D01*
X118468Y99633D01*
Y96967D01*
X119134Y96301D01*
X120467D01*
X121133Y96967D01*
X124466Y96301D02*
Y100299D01*
X122467Y98300D01*
X125132D01*
X99734Y137533D02*
X99067Y138199D01*
X97734D01*
X97068Y137533D01*
Y134867D01*
X97734Y134201D01*
X99067D01*
X99734Y134867D01*
X101067Y137533D02*
X101733Y138199D01*
X103066D01*
X103732Y137533D01*
Y136866D01*
X103066Y136200D01*
X102399D01*
X103066D01*
X103732Y135533D01*
Y134867D01*
X103066Y134201D01*
X101733D01*
X101067Y134867D01*
X137100Y134833D02*
X136433Y135499D01*
X135101D01*
X134434Y134833D01*
Y132167D01*
X135101Y131501D01*
X136433D01*
X137100Y132167D01*
X138433Y131501D02*
X139766D01*
X139099D01*
Y135499D01*
X138433Y134833D01*
X136134Y150633D02*
X135467Y151299D01*
X134134D01*
X133468Y150633D01*
Y147967D01*
X134134Y147301D01*
X135467D01*
X136134Y147967D01*
X140132Y147301D02*
X137467D01*
X140132Y149967D01*
Y150633D01*
X139466Y151299D01*
X138133D01*
X137467Y150633D01*
M02*
