G04*
G04 #@! TF.GenerationSoftware,Altium Limited,Altium Designer,24.1.2 (44)*
G04*
G04 Layer_Physical_Order=2*
G04 Layer_Color=16711680*
%FSLAX25Y25*%
%MOIN*%
G70*
G04*
G04 #@! TF.SameCoordinates,2136B1BB-B4C1-48CA-BFD9-A79611692F62*
G04*
G04*
G04 #@! TF.FilePolarity,Positive*
G04*
G01*
G75*
%ADD13C,0.01000*%
%ADD15C,0.00800*%
G04:AMPARAMS|DCode=26|XSize=40mil|YSize=40mil|CornerRadius=10mil|HoleSize=0mil|Usage=FLASHONLY|Rotation=90.000|XOffset=0mil|YOffset=0mil|HoleType=Round|Shape=RoundedRectangle|*
%AMROUNDEDRECTD26*
21,1,0.04000,0.02000,0,0,90.0*
21,1,0.02000,0.04000,0,0,90.0*
1,1,0.02000,0.01000,0.01000*
1,1,0.02000,0.01000,-0.01000*
1,1,0.02000,-0.01000,-0.01000*
1,1,0.02000,-0.01000,0.01000*
%
%ADD26ROUNDEDRECTD26*%
%ADD65C,0.00600*%
%ADD67C,0.06102*%
%ADD68R,0.06102X0.06102*%
%ADD69R,0.06102X0.06102*%
%ADD70C,0.07677*%
%ADD71C,0.07382*%
%ADD72R,0.07382X0.07382*%
%ADD73C,0.15000*%
%ADD74C,0.02000*%
%ADD75C,0.01968*%
%ADD76C,0.02000*%
G36*
X195831Y88100D02*
X177800D01*
X177600Y88517D01*
Y145600D01*
X195831D01*
Y88100D01*
D02*
G37*
G36*
X180815Y195511D02*
X183178Y194878D01*
X185439Y193942D01*
X187557Y192719D01*
X189499Y191229D01*
X191229Y189499D01*
X192719Y187557D01*
X193942Y185439D01*
X194878Y183178D01*
X195511Y180815D01*
X195831Y178389D01*
Y177165D01*
Y146033D01*
X177600D01*
X177294Y145906D01*
X177167Y145600D01*
Y88517D01*
X177204Y88427D01*
X177210Y88330D01*
X177410Y87913D01*
X177465Y87863D01*
X177494Y87794D01*
X177584Y87757D01*
X177656Y87692D01*
X177731Y87696D01*
X177800Y87667D01*
X195831D01*
Y19685D01*
Y18462D01*
X195511Y16036D01*
X194878Y13672D01*
X193942Y11412D01*
X192719Y9293D01*
X191229Y7352D01*
X189499Y5621D01*
X187557Y4132D01*
X185439Y2909D01*
X183178Y1972D01*
X180815Y1339D01*
X178389Y1020D01*
X18462D01*
X16036Y1339D01*
X13672Y1972D01*
X11412Y2909D01*
X9293Y4132D01*
X7352Y5621D01*
X5621Y7352D01*
X4132Y9293D01*
X2909Y11412D01*
X1972Y13672D01*
X1339Y16036D01*
X1020Y18462D01*
Y19685D01*
Y177165D01*
Y178389D01*
X1339Y180815D01*
X1972Y183178D01*
X2909Y185439D01*
X4132Y187557D01*
X5621Y189499D01*
X7352Y191229D01*
X9293Y192719D01*
X11412Y193942D01*
X13672Y194878D01*
X16036Y195511D01*
X18462Y195831D01*
X178389D01*
X180815Y195511D01*
D02*
G37*
%LPC*%
G36*
X190578Y143116D02*
X189343D01*
X188150Y142797D01*
X187080Y142179D01*
X186997Y142096D01*
X187804Y141289D01*
X187097Y140582D01*
X186290Y141389D01*
X186207Y141305D01*
X185589Y140236D01*
X185270Y139043D01*
Y137808D01*
X185589Y136615D01*
X186207Y135545D01*
X186290Y135462D01*
X187097Y136269D01*
X187804Y135562D01*
X186997Y134755D01*
X187080Y134671D01*
X188150Y134054D01*
X189343Y133734D01*
X190578D01*
X191771Y134054D01*
X192841Y134671D01*
X192924Y134755D01*
X192117Y135562D01*
X192824Y136269D01*
X193631Y135462D01*
X193714Y135545D01*
X194332Y136615D01*
X194652Y137808D01*
Y139043D01*
X194332Y140236D01*
X193714Y141305D01*
X193631Y141389D01*
X192824Y140582D01*
X192117Y141289D01*
X192924Y142096D01*
X192841Y142179D01*
X191771Y142797D01*
X190578Y143116D01*
D02*
G37*
G36*
Y133116D02*
X189343D01*
X188150Y132797D01*
X187080Y132179D01*
X186997Y132096D01*
X187804Y131289D01*
X187097Y130581D01*
X186290Y131389D01*
X186207Y131306D01*
X185589Y130236D01*
X185270Y129043D01*
Y127808D01*
X185589Y126615D01*
X186207Y125545D01*
X186290Y125462D01*
X187097Y126269D01*
X187804Y125562D01*
X186997Y124755D01*
X187080Y124671D01*
X188150Y124054D01*
X189343Y123734D01*
X190578D01*
X191771Y124054D01*
X192841Y124671D01*
X192924Y124755D01*
X192117Y125562D01*
X192824Y126269D01*
X193631Y125462D01*
X193714Y125545D01*
X194332Y126615D01*
X194652Y127808D01*
Y129043D01*
X194332Y130236D01*
X193714Y131306D01*
X193631Y131389D01*
X192824Y130581D01*
X192117Y131289D01*
X192924Y132096D01*
X192841Y132179D01*
X191771Y132797D01*
X190578Y133116D01*
D02*
G37*
G36*
X190499Y122516D02*
X189422D01*
X188382Y122237D01*
X187449Y121699D01*
X186687Y120937D01*
X186149Y120004D01*
X185870Y118964D01*
Y117887D01*
X186149Y116846D01*
X186687Y115913D01*
X187449Y115152D01*
X188382Y114613D01*
X189422Y114334D01*
X190499D01*
X191540Y114613D01*
X192473Y115152D01*
X193234Y115913D01*
X193773Y116846D01*
X194052Y117887D01*
Y118964D01*
X193773Y120004D01*
X193234Y120937D01*
X192473Y121699D01*
X191540Y122237D01*
X190499Y122516D01*
D02*
G37*
G36*
Y112516D02*
X189422D01*
X188382Y112237D01*
X187449Y111699D01*
X186687Y110937D01*
X186149Y110004D01*
X185870Y108964D01*
Y107887D01*
X186149Y106846D01*
X186687Y105913D01*
X187449Y105152D01*
X188382Y104613D01*
X189422Y104334D01*
X190499D01*
X191540Y104613D01*
X192473Y105152D01*
X193234Y105913D01*
X193773Y106846D01*
X194052Y107887D01*
Y108964D01*
X193773Y110004D01*
X193234Y110937D01*
X192473Y111699D01*
X191540Y112237D01*
X190499Y112516D01*
D02*
G37*
G36*
X194052Y102516D02*
X185870D01*
Y94334D01*
X194052D01*
Y102516D01*
D02*
G37*
G36*
X141800Y195227D02*
X141800Y195227D01*
X75400D01*
X75400Y195227D01*
X74854Y195119D01*
X74391Y194809D01*
X74391Y194809D01*
X53009Y173427D01*
X32600D01*
X32600Y173427D01*
X32054Y173319D01*
X31591Y173009D01*
X31591Y173009D01*
X22791Y164209D01*
X22481Y163746D01*
X22373Y163200D01*
X22373Y163200D01*
Y154800D01*
X22373Y154800D01*
X22481Y154254D01*
X22791Y153791D01*
X30473Y146109D01*
Y96091D01*
X14491Y80109D01*
X14181Y79646D01*
X14073Y79100D01*
X14073Y79100D01*
Y58600D01*
X14073Y58600D01*
X14181Y58054D01*
X14491Y57591D01*
X18391Y53691D01*
X18391Y53691D01*
X18854Y53381D01*
X19400Y53273D01*
X25300D01*
X25438Y53300D01*
X25578D01*
X25708Y53354D01*
X25846Y53381D01*
X25963Y53459D01*
X26093Y53513D01*
X26192Y53613D01*
X26309Y53691D01*
X26388Y53808D01*
X26487Y53907D01*
X26541Y54037D01*
X26619Y54154D01*
X26646Y54292D01*
X26700Y54422D01*
Y54562D01*
X26727Y54700D01*
X26700Y54838D01*
Y54979D01*
X26646Y55108D01*
X26619Y55246D01*
X26541Y55363D01*
X26487Y55493D01*
X26388Y55592D01*
X26309Y55709D01*
X26192Y55787D01*
X26093Y55887D01*
X25963Y55941D01*
X25846Y56019D01*
X25708Y56046D01*
X25578Y56100D01*
X25438D01*
X25300Y56127D01*
X19991D01*
X16927Y59191D01*
Y78509D01*
X32909Y94491D01*
X32909Y94491D01*
X33219Y94954D01*
X33327Y95500D01*
Y146700D01*
X33327Y146700D01*
X33219Y147246D01*
X32909Y147709D01*
X25227Y155391D01*
Y162609D01*
X33191Y170573D01*
X53600D01*
X53600Y170573D01*
X54146Y170681D01*
X54609Y170991D01*
X75991Y192373D01*
X136807D01*
X136873Y191873D01*
X136136Y191675D01*
X135213Y191142D01*
X135189Y191118D01*
X136001Y190306D01*
X135294Y189599D01*
X134482Y190411D01*
X134458Y190387D01*
X133925Y189464D01*
X133649Y188433D01*
Y187367D01*
X133925Y186336D01*
X134458Y185413D01*
X134482Y185389D01*
X135294Y186201D01*
X136001Y185494D01*
X135189Y184682D01*
X135213Y184658D01*
X136136Y184125D01*
X137167Y183849D01*
X138233D01*
X139264Y184125D01*
X140188Y184658D01*
X140211Y184682D01*
X139399Y185494D01*
X140106Y186201D01*
X140918Y185389D01*
X140942Y185413D01*
X141475Y186336D01*
X141751Y187367D01*
Y188433D01*
X141475Y189464D01*
X140942Y190387D01*
X140918Y190411D01*
X140106Y189599D01*
X139399Y190306D01*
X140211Y191118D01*
X140188Y191142D01*
X139264Y191675D01*
X138527Y191873D01*
X138593Y192373D01*
X141209D01*
X144249Y189332D01*
Y184449D01*
X151151D01*
Y191351D01*
X146267D01*
X142809Y194809D01*
X142346Y195119D01*
X141800Y195227D01*
D02*
G37*
G36*
X112054Y189071D02*
X110780D01*
X109550Y188741D01*
X108446Y188104D01*
X108350Y188007D01*
X109156Y187201D01*
X108449Y186494D01*
X107642Y187300D01*
X107545Y187203D01*
X106909Y186100D01*
X106579Y184869D01*
Y183595D01*
X106909Y182365D01*
X107545Y181261D01*
X107642Y181165D01*
X108449Y181971D01*
X109156Y181263D01*
X108350Y180457D01*
X108446Y180360D01*
X109550Y179724D01*
X110780Y179394D01*
X112054D01*
X113285Y179724D01*
X114388Y180360D01*
X114485Y180457D01*
X113679Y181263D01*
X114386Y181971D01*
X115192Y181165D01*
X115289Y181261D01*
X115926Y182365D01*
X116256Y183595D01*
Y184869D01*
X115926Y186100D01*
X115289Y187203D01*
X115192Y187300D01*
X114386Y186494D01*
X113679Y187201D01*
X114485Y188007D01*
X114388Y188104D01*
X113285Y188741D01*
X112054Y189071D01*
D02*
G37*
G36*
X86070D02*
X84796D01*
X83565Y188741D01*
X82462Y188104D01*
X82365Y188007D01*
X83171Y187201D01*
X82464Y186494D01*
X81658Y187300D01*
X81561Y187203D01*
X80924Y186100D01*
X80594Y184869D01*
Y183595D01*
X80924Y182365D01*
X81561Y181261D01*
X81658Y181165D01*
X82464Y181971D01*
X83171Y181263D01*
X82365Y180457D01*
X82462Y180360D01*
X83565Y179724D01*
X84796Y179394D01*
X86070D01*
X87301Y179724D01*
X88404Y180360D01*
X88501Y180457D01*
X87695Y181263D01*
X88402Y181971D01*
X89208Y181165D01*
X89305Y181261D01*
X89942Y182365D01*
X90272Y183595D01*
Y184869D01*
X89942Y186100D01*
X89305Y187203D01*
X89208Y187300D01*
X88402Y186494D01*
X87695Y187201D01*
X88501Y188007D01*
X88404Y188104D01*
X87301Y188741D01*
X86070Y189071D01*
D02*
G37*
G36*
X104100Y186527D02*
X102100D01*
X101554Y186419D01*
X101091Y186109D01*
X100781Y185646D01*
X100673Y185100D01*
Y183100D01*
X100781Y182554D01*
X101091Y182091D01*
X101554Y181781D01*
X102100Y181673D01*
X102284D01*
Y180524D01*
X102071Y180311D01*
X102066Y180310D01*
X101802Y180133D01*
X101802Y180133D01*
X101475Y179806D01*
X101268Y179892D01*
X100711D01*
X100196Y179679D01*
X99803Y179285D01*
X99662Y178946D01*
X99131Y178970D01*
X98987Y179318D01*
X98593Y179711D01*
X98079Y179925D01*
X97522D01*
X97007Y179711D01*
X96613Y179318D01*
X96571Y179216D01*
X94938D01*
X94616Y179538D01*
Y181673D01*
X94800D01*
X95346Y181781D01*
X95809Y182091D01*
X96119Y182554D01*
X96227Y183100D01*
Y185100D01*
X96119Y185646D01*
X95809Y186109D01*
X95346Y186419D01*
X94800Y186527D01*
X92800D01*
X92254Y186419D01*
X91791Y186109D01*
X91481Y185646D01*
X91373Y185100D01*
Y183100D01*
X91481Y182554D01*
X91791Y182091D01*
X92254Y181781D01*
X92800Y181673D01*
X92984D01*
Y179200D01*
X92984Y179200D01*
X93046Y178888D01*
X93223Y178623D01*
X94023Y177823D01*
X94288Y177646D01*
X94600Y177584D01*
X94600Y177584D01*
X96760D01*
X97007Y177338D01*
X97522Y177125D01*
X98079D01*
X98593Y177338D01*
X98987Y177732D01*
X99127Y178071D01*
X99659Y178047D01*
X99803Y177699D01*
X100196Y177305D01*
X100711Y177092D01*
X101268D01*
X101782Y177305D01*
X102176Y177699D01*
X102389Y178214D01*
Y178414D01*
X102778Y178802D01*
X102782Y178803D01*
X103047Y178980D01*
X103677Y179610D01*
X103677Y179610D01*
X103854Y179874D01*
X103916Y180186D01*
Y181673D01*
X104100D01*
X104646Y181781D01*
X105109Y182091D01*
X105419Y182554D01*
X105527Y183100D01*
Y185100D01*
X105419Y185646D01*
X105109Y186109D01*
X104646Y186419D01*
X104100Y186527D01*
D02*
G37*
G36*
X159302Y166965D02*
X157627D01*
X155985Y166638D01*
X154438Y165997D01*
X153046Y165067D01*
X152808Y164829D01*
X153603Y164034D01*
X152895Y163327D01*
X152101Y164121D01*
X151862Y163883D01*
X150932Y162491D01*
X150291Y160944D01*
X149965Y159302D01*
Y157627D01*
X150291Y155985D01*
X150932Y154438D01*
X151862Y153046D01*
X152101Y152808D01*
X152895Y153603D01*
X153603Y152895D01*
X152808Y152101D01*
X153046Y151862D01*
X154438Y150932D01*
X155985Y150291D01*
X157627Y149965D01*
X159302D01*
X160944Y150291D01*
X162491Y150932D01*
X163883Y151862D01*
X164121Y152101D01*
X163327Y152895D01*
X164034Y153603D01*
X164829Y152808D01*
X165067Y153046D01*
X165997Y154438D01*
X166638Y155985D01*
X166965Y157627D01*
Y159302D01*
X166638Y160944D01*
X165997Y162491D01*
X165067Y163883D01*
X164829Y164121D01*
X164034Y163327D01*
X163327Y164034D01*
X164121Y164829D01*
X163883Y165067D01*
X162491Y165997D01*
X160944Y166638D01*
X159302Y166965D01*
D02*
G37*
G36*
X39223D02*
X37549D01*
X35906Y166638D01*
X34360Y165997D01*
X32967Y165067D01*
X32729Y164829D01*
X33524Y164034D01*
X32817Y163327D01*
X32022Y164121D01*
X31783Y163883D01*
X30853Y162491D01*
X30213Y160944D01*
X29886Y159302D01*
Y157627D01*
X30213Y155985D01*
X30853Y154438D01*
X31783Y153046D01*
X32022Y152808D01*
X32817Y153603D01*
X33524Y152895D01*
X32729Y152101D01*
X32967Y151862D01*
X34360Y150932D01*
X35906Y150291D01*
X37549Y149965D01*
X39223D01*
X40865Y150291D01*
X42412Y150932D01*
X43804Y151862D01*
X44043Y152101D01*
X43248Y152895D01*
X43955Y153603D01*
X44750Y152808D01*
X44988Y153046D01*
X45918Y154438D01*
X46559Y155985D01*
X46886Y157627D01*
Y159302D01*
X46559Y160944D01*
X45918Y162491D01*
X44988Y163883D01*
X44750Y164121D01*
X43955Y163327D01*
X43248Y164034D01*
X44043Y164829D01*
X43804Y165067D01*
X42412Y165997D01*
X40865Y166638D01*
X39223Y166965D01*
D02*
G37*
G36*
X45533Y144451D02*
X44467D01*
X43436Y144175D01*
X42513Y143642D01*
X42489Y143618D01*
X43301Y142806D01*
X42594Y142099D01*
X41782Y142911D01*
X41758Y142887D01*
X41225Y141964D01*
X40949Y140933D01*
Y139867D01*
X41225Y138836D01*
X41758Y137912D01*
X41782Y137889D01*
X42594Y138701D01*
X43301Y137994D01*
X42489Y137182D01*
X42513Y137158D01*
X43436Y136625D01*
X44467Y136349D01*
X45533D01*
X46564Y136625D01*
X47488Y137158D01*
X47511Y137182D01*
X46699Y137994D01*
X47406Y138701D01*
X48218Y137889D01*
X48242Y137912D01*
X48775Y138836D01*
X49051Y139867D01*
Y140933D01*
X48775Y141964D01*
X48242Y142887D01*
X48218Y142911D01*
X47406Y142099D01*
X46699Y142806D01*
X47511Y143618D01*
X47488Y143642D01*
X46564Y144175D01*
X45533Y144451D01*
D02*
G37*
G36*
X10981Y141886D02*
X2799D01*
Y133704D01*
X10981D01*
Y141886D01*
D02*
G37*
G36*
X7507Y132486D02*
X6272D01*
X5079Y132167D01*
X4009Y131549D01*
X3926Y131466D01*
X4733Y130659D01*
X4026Y129952D01*
X3219Y130759D01*
X3136Y130676D01*
X2519Y129606D01*
X2199Y128413D01*
Y127178D01*
X2519Y125985D01*
X3136Y124915D01*
X3219Y124832D01*
X4026Y125639D01*
X4733Y124932D01*
X3926Y124125D01*
X4009Y124042D01*
X5079Y123424D01*
X6272Y123104D01*
X7507D01*
X8700Y123424D01*
X9770Y124042D01*
X9853Y124125D01*
X9046Y124932D01*
X9753Y125639D01*
X10560Y124832D01*
X10643Y124915D01*
X11261Y125985D01*
X11581Y127178D01*
Y128413D01*
X11261Y129606D01*
X10643Y130676D01*
X10560Y130759D01*
X9753Y129952D01*
X9046Y130659D01*
X9853Y131466D01*
X9770Y131549D01*
X8700Y132167D01*
X7507Y132486D01*
D02*
G37*
G36*
X48451Y133851D02*
X41549D01*
Y126949D01*
X48451D01*
Y133851D01*
D02*
G37*
G36*
X7428Y121886D02*
X6351D01*
X5311Y121607D01*
X4378Y121069D01*
X3616Y120307D01*
X3078Y119374D01*
X2799Y118334D01*
Y117257D01*
X3078Y116216D01*
X3616Y115283D01*
X4378Y114522D01*
X5311Y113983D01*
X6351Y113704D01*
X7428D01*
X8469Y113983D01*
X9402Y114522D01*
X10163Y115283D01*
X10702Y116216D01*
X10981Y117257D01*
Y118334D01*
X10702Y119374D01*
X10163Y120307D01*
X9402Y121069D01*
X8469Y121607D01*
X7428Y121886D01*
D02*
G37*
G36*
X123978Y113500D02*
X123422D01*
X122907Y113287D01*
X122513Y112893D01*
X122480Y112814D01*
X113100D01*
X112827Y112759D01*
X112595Y112605D01*
X111758Y111767D01*
X111679Y111800D01*
X111121D01*
X110607Y111587D01*
X110213Y111193D01*
X110000Y110679D01*
Y110122D01*
X110213Y109607D01*
X110607Y109213D01*
X111121Y109000D01*
X111679D01*
X112193Y109213D01*
X112587Y109607D01*
X112800Y110122D01*
Y110679D01*
X112767Y110758D01*
X113396Y111386D01*
X122480D01*
X122513Y111307D01*
X122907Y110913D01*
X123422Y110700D01*
X123978D01*
X124493Y110913D01*
X124887Y111307D01*
X125100Y111821D01*
Y112379D01*
X124887Y112893D01*
X124493Y113287D01*
X123978Y113500D01*
D02*
G37*
G36*
X57078Y142100D02*
X56521D01*
X56007Y141887D01*
X55613Y141493D01*
X55400Y140979D01*
Y140421D01*
X55613Y139907D01*
X55882Y139638D01*
Y137762D01*
X55613Y137493D01*
X55400Y136978D01*
Y136598D01*
X51751Y132949D01*
X51552Y132651D01*
X51482Y132300D01*
Y108969D01*
X51552Y108617D01*
X51751Y108320D01*
X52220Y107851D01*
X52517Y107652D01*
X52869Y107582D01*
X80638D01*
X80907Y107313D01*
X81422Y107100D01*
X81978D01*
X82493Y107313D01*
X82712Y107532D01*
X84188D01*
X84507Y107213D01*
X85022Y107000D01*
X85579D01*
X86093Y107213D01*
X86487Y107607D01*
X86700Y108122D01*
Y108678D01*
X86487Y109193D01*
X86093Y109587D01*
X85579Y109800D01*
X85022D01*
X84507Y109587D01*
X84288Y109368D01*
X82812D01*
X82493Y109687D01*
X81978Y109900D01*
X81422D01*
X80907Y109687D01*
X80638Y109418D01*
X53318D01*
Y131920D01*
X56698Y135300D01*
X57078D01*
X57593Y135513D01*
X57987Y135907D01*
X58200Y136422D01*
Y136978D01*
X57987Y137493D01*
X57718Y137762D01*
Y139638D01*
X57987Y139907D01*
X58200Y140421D01*
Y140979D01*
X57987Y141493D01*
X57593Y141887D01*
X57078Y142100D01*
D02*
G37*
G36*
X7428Y111886D02*
X6351D01*
X5311Y111607D01*
X4378Y111069D01*
X3616Y110307D01*
X3078Y109374D01*
X2799Y108334D01*
Y107257D01*
X3078Y106216D01*
X3616Y105283D01*
X4378Y104522D01*
X5311Y103983D01*
X6351Y103704D01*
X7428D01*
X8469Y103983D01*
X9402Y104522D01*
X10163Y105283D01*
X10702Y106216D01*
X10981Y107257D01*
Y108334D01*
X10702Y109374D01*
X10163Y110307D01*
X9402Y111069D01*
X8469Y111607D01*
X7428Y111886D01*
D02*
G37*
G36*
X94178Y119100D02*
X93621D01*
X93107Y118887D01*
X92713Y118493D01*
X92500Y117979D01*
Y117421D01*
X92713Y116907D01*
X93107Y116513D01*
X93621Y116300D01*
X94147D01*
X96784Y113662D01*
Y104263D01*
X96413Y103892D01*
X96200Y103378D01*
Y102821D01*
X96413Y102306D01*
X96807Y101912D01*
X97321Y101699D01*
X97652D01*
X97751Y101199D01*
X97407Y101057D01*
X98255Y100208D01*
X97548Y99501D01*
X96699Y100349D01*
X96530Y99941D01*
X95989D01*
X95820Y100349D01*
X94972Y99501D01*
X94265Y100208D01*
X95113Y101057D01*
X94489Y101315D01*
X93700D01*
X93076Y101057D01*
X93924Y100208D01*
X93217Y99501D01*
X92369Y100349D01*
X92110Y99725D01*
Y98936D01*
X92369Y98312D01*
X93217Y99161D01*
X93924Y98454D01*
X93076Y97605D01*
X93484Y97436D01*
Y96895D01*
X93076Y96726D01*
X93924Y95877D01*
X93217Y95170D01*
X92369Y96019D01*
X92110Y95395D01*
Y94605D01*
X92369Y93981D01*
X93217Y94830D01*
X93924Y94123D01*
X93076Y93274D01*
X93484Y93105D01*
Y92564D01*
X93076Y92395D01*
X93924Y91546D01*
X93217Y90839D01*
X92369Y91688D01*
X92110Y91064D01*
Y90275D01*
X92369Y89651D01*
X93217Y90499D01*
X93924Y89792D01*
X93076Y88943D01*
X93700Y88685D01*
X94489D01*
X95113Y88943D01*
X94265Y89792D01*
X94972Y90499D01*
X95820Y89651D01*
X95989Y90058D01*
X96530D01*
X96699Y89651D01*
X97548Y90499D01*
X98255Y89792D01*
X97407Y88943D01*
X98031Y88685D01*
X98820D01*
X99444Y88943D01*
X98595Y89792D01*
X99302Y90499D01*
X100151Y89651D01*
X100320Y90058D01*
X100861D01*
X101030Y89651D01*
X101879Y90499D01*
X102586Y89792D01*
X101737Y88943D01*
X102361Y88685D01*
X103151D01*
X103775Y88943D01*
X102926Y89792D01*
X103633Y90499D01*
X104482Y89651D01*
X104740Y90275D01*
Y91064D01*
X104482Y91688D01*
X103633Y90839D01*
X102926Y91546D01*
X103775Y92395D01*
X103367Y92564D01*
Y93105D01*
X103775Y93274D01*
X102926Y94123D01*
X103633Y94830D01*
X104482Y93981D01*
X104740Y94605D01*
Y95395D01*
X104512Y95945D01*
X104681Y96192D01*
X104848Y96367D01*
X123600D01*
X123906Y96494D01*
X132808Y105396D01*
X132821Y105428D01*
X132851Y105445D01*
X132883Y105577D01*
X132935Y105702D01*
X132922Y105734D01*
X132930Y105767D01*
X132855Y106261D01*
X132838Y106290D01*
X132841Y106325D01*
X132754Y106429D01*
X132684Y106545D01*
X132651Y106553D01*
X132629Y106579D01*
X127632Y109213D01*
X127528Y109223D01*
X127430Y109263D01*
X127369Y109238D01*
X127302Y109244D01*
X127221Y109177D01*
X127124Y109137D01*
X125662Y107674D01*
X125200Y107866D01*
Y107998D01*
X124938Y108631D01*
X124090Y107783D01*
X123383Y108490D01*
X124231Y109338D01*
X123598Y109600D01*
X122802D01*
X122169Y109338D01*
X123017Y108490D01*
X122310Y107783D01*
X121462Y108631D01*
X121200Y107998D01*
Y107202D01*
X121462Y106569D01*
X122310Y107417D01*
X123017Y106710D01*
X122169Y105862D01*
X122802Y105600D01*
X122934D01*
X123126Y105138D01*
X120821Y102833D01*
X105100D01*
X104794Y102706D01*
X104494Y102406D01*
X104367Y102100D01*
Y101235D01*
X104400Y101156D01*
X103955Y100938D01*
X103880Y101013D01*
X103151Y101315D01*
X102361D01*
X101737Y101057D01*
X102586Y100208D01*
X101879Y99501D01*
X101030Y100349D01*
X100861Y99941D01*
X100320D01*
X100151Y100349D01*
X99302Y99501D01*
X98595Y100208D01*
X99444Y101057D01*
X98820Y101315D01*
X98257D01*
X98158Y101815D01*
X98393Y101912D01*
X98787Y102306D01*
X99000Y102821D01*
Y103378D01*
X98787Y103892D01*
X98416Y104263D01*
Y114000D01*
X98416Y114000D01*
X98354Y114312D01*
X98177Y114577D01*
X95300Y117454D01*
Y117979D01*
X95087Y118493D01*
X94693Y118887D01*
X94178Y119100D01*
D02*
G37*
G36*
X7428Y101886D02*
X6351D01*
X5311Y101607D01*
X4378Y101069D01*
X3616Y100307D01*
X3078Y99374D01*
X2799Y98334D01*
Y97257D01*
X3078Y96216D01*
X3616Y95283D01*
X4378Y94522D01*
X5311Y93983D01*
X6351Y93704D01*
X7428D01*
X8469Y93983D01*
X9402Y94522D01*
X10163Y95283D01*
X10702Y96216D01*
X10981Y97257D01*
Y98334D01*
X10702Y99374D01*
X10163Y100307D01*
X9402Y101069D01*
X8469Y101607D01*
X7428Y101886D01*
D02*
G37*
G36*
X94198Y78500D02*
X93402D01*
X92769Y78238D01*
X93617Y77390D01*
X92910Y76683D01*
X92062Y77531D01*
X91800Y76898D01*
Y76102D01*
X92062Y75469D01*
X92910Y76317D01*
X93617Y75610D01*
X92769Y74762D01*
X93402Y74500D01*
X94198D01*
X94831Y74762D01*
X93983Y75610D01*
X94690Y76317D01*
X95538Y75469D01*
X95800Y76102D01*
Y76898D01*
X95538Y77531D01*
X94690Y76683D01*
X93983Y77390D01*
X94831Y78238D01*
X94198Y78500D01*
D02*
G37*
G36*
X190499Y83461D02*
X189422D01*
X188382Y83182D01*
X187449Y82644D01*
X186687Y81882D01*
X186149Y80949D01*
X185870Y79909D01*
Y78831D01*
X186149Y77791D01*
X186687Y76858D01*
X187449Y76096D01*
X188382Y75558D01*
X189422Y75279D01*
X190499D01*
X191540Y75558D01*
X192473Y76096D01*
X193234Y76858D01*
X193773Y77791D01*
X194052Y78831D01*
Y79909D01*
X193773Y80949D01*
X193234Y81882D01*
X192473Y82644D01*
X191540Y83182D01*
X190499Y83461D01*
D02*
G37*
G36*
X101903Y88301D02*
X101347D01*
X100832Y88088D01*
X100438Y87694D01*
X100225Y87179D01*
Y86622D01*
X100438Y86108D01*
X100697Y85849D01*
Y77219D01*
X100620Y77187D01*
X100226Y76793D01*
X100013Y76279D01*
Y75722D01*
X100226Y75207D01*
X100620Y74813D01*
X101134Y74600D01*
X101691D01*
X102206Y74813D01*
X102600Y75207D01*
X102813Y75722D01*
Y76279D01*
X102600Y76793D01*
X102328Y77064D01*
Y85677D01*
X102418Y85714D01*
X102812Y86108D01*
X103025Y86622D01*
Y87179D01*
X102812Y87694D01*
X102418Y88088D01*
X101903Y88301D01*
D02*
G37*
G36*
X12578Y81800D02*
X12021D01*
X11507Y81587D01*
X11113Y81193D01*
X10900Y80678D01*
Y80121D01*
X11113Y79607D01*
X11507Y79213D01*
X11586Y79180D01*
Y51500D01*
X11641Y51227D01*
X11795Y50995D01*
X13295Y49495D01*
X13527Y49341D01*
X13800Y49286D01*
X42300D01*
X42573Y49341D01*
X42805Y49495D01*
X67696Y74386D01*
X88580D01*
X88613Y74307D01*
X89007Y73913D01*
X89521Y73700D01*
X90079D01*
X90593Y73913D01*
X90987Y74307D01*
X91200Y74822D01*
Y75379D01*
X90987Y75893D01*
X90593Y76287D01*
X90079Y76500D01*
X89521D01*
X89007Y76287D01*
X88613Y75893D01*
X88580Y75814D01*
X67400D01*
X67127Y75759D01*
X66895Y75605D01*
X42004Y50714D01*
X14096D01*
X13014Y51796D01*
Y79180D01*
X13093Y79213D01*
X13487Y79607D01*
X13700Y80121D01*
Y80678D01*
X13487Y81193D01*
X13093Y81587D01*
X12578Y81800D01*
D02*
G37*
G36*
X190499Y73461D02*
X189422D01*
X188382Y73182D01*
X187449Y72644D01*
X186687Y71882D01*
X186149Y70949D01*
X185870Y69909D01*
Y68831D01*
X186149Y67791D01*
X186687Y66858D01*
X187449Y66097D01*
X188382Y65558D01*
X189422Y65279D01*
X190499D01*
X191540Y65558D01*
X192473Y66097D01*
X193234Y66858D01*
X193773Y67791D01*
X194052Y68831D01*
Y69909D01*
X193773Y70949D01*
X193234Y71882D01*
X192473Y72644D01*
X191540Y73182D01*
X190499Y73461D01*
D02*
G37*
G36*
X190578Y64061D02*
X189343D01*
X188150Y63741D01*
X187080Y63124D01*
X186997Y63041D01*
X187804Y62234D01*
X187097Y61526D01*
X186290Y62334D01*
X186207Y62250D01*
X185589Y61181D01*
X185270Y59988D01*
Y58753D01*
X185589Y57559D01*
X186207Y56490D01*
X186290Y56407D01*
X187097Y57214D01*
X187804Y56507D01*
X186997Y55699D01*
X187080Y55616D01*
X188150Y54999D01*
X189343Y54679D01*
X190578D01*
X191771Y54999D01*
X192841Y55616D01*
X192924Y55699D01*
X192117Y56507D01*
X192824Y57214D01*
X193631Y56407D01*
X193714Y56490D01*
X194332Y57559D01*
X194652Y58753D01*
Y59988D01*
X194332Y61181D01*
X193714Y62250D01*
X193631Y62334D01*
X192824Y61526D01*
X192117Y62234D01*
X192924Y63041D01*
X192841Y63124D01*
X191771Y63741D01*
X190578Y64061D01*
D02*
G37*
G36*
X190499Y53461D02*
X189422D01*
X188382Y53182D01*
X187449Y52644D01*
X186687Y51882D01*
X186149Y50949D01*
X185870Y49909D01*
Y48831D01*
X186149Y47791D01*
X186687Y46858D01*
X187449Y46097D01*
X188382Y45558D01*
X189422Y45279D01*
X190499D01*
X191540Y45558D01*
X192473Y46097D01*
X193234Y46858D01*
X193773Y47791D01*
X194052Y48831D01*
Y49909D01*
X193773Y50949D01*
X193234Y51882D01*
X192473Y52644D01*
X191540Y53182D01*
X190499Y53461D01*
D02*
G37*
G36*
X159302Y46886D02*
X157627D01*
X155985Y46559D01*
X154438Y45918D01*
X153046Y44988D01*
X152808Y44750D01*
X153603Y43955D01*
X152895Y43248D01*
X152101Y44043D01*
X151862Y43804D01*
X150932Y42412D01*
X150291Y40865D01*
X149965Y39223D01*
Y37549D01*
X150291Y35906D01*
X150932Y34360D01*
X151862Y32967D01*
X152101Y32729D01*
X152895Y33524D01*
X153603Y32817D01*
X152808Y32022D01*
X153046Y31783D01*
X154438Y30853D01*
X155985Y30213D01*
X157627Y29886D01*
X159302D01*
X160944Y30213D01*
X162491Y30853D01*
X163883Y31783D01*
X164121Y32022D01*
X163327Y32817D01*
X164034Y33524D01*
X164829Y32729D01*
X165067Y32967D01*
X165997Y34360D01*
X166638Y35906D01*
X166965Y37549D01*
Y39223D01*
X166638Y40865D01*
X165997Y42412D01*
X165067Y43804D01*
X164829Y44043D01*
X164034Y43248D01*
X163327Y43955D01*
X164121Y44750D01*
X163883Y44988D01*
X162491Y45918D01*
X160944Y46559D01*
X159302Y46886D01*
D02*
G37*
G36*
X39223D02*
X37549D01*
X35906Y46559D01*
X34360Y45918D01*
X32967Y44988D01*
X32729Y44750D01*
X33524Y43955D01*
X32817Y43248D01*
X32022Y44043D01*
X31783Y43804D01*
X30853Y42412D01*
X30213Y40865D01*
X29886Y39223D01*
Y37549D01*
X30213Y35906D01*
X30853Y34360D01*
X31783Y32967D01*
X32022Y32729D01*
X32817Y33524D01*
X33524Y32817D01*
X32729Y32022D01*
X32967Y31783D01*
X34360Y30853D01*
X35906Y30213D01*
X37549Y29886D01*
X39223D01*
X40865Y30213D01*
X42412Y30853D01*
X43804Y31783D01*
X44043Y32022D01*
X43248Y32817D01*
X43955Y33524D01*
X44750Y32729D01*
X44988Y32967D01*
X45918Y34360D01*
X46559Y35906D01*
X46886Y37549D01*
Y39223D01*
X46559Y40865D01*
X45918Y42412D01*
X44988Y43804D01*
X44750Y44043D01*
X43955Y43248D01*
X43248Y43955D01*
X44043Y44750D01*
X43804Y44988D01*
X42412Y45918D01*
X40865Y46559D01*
X39223Y46886D01*
D02*
G37*
G36*
X194052Y43461D02*
X185870D01*
Y35279D01*
X194052D01*
Y43461D01*
D02*
G37*
G36*
X99116Y11925D02*
X98049D01*
X97019Y11649D01*
X96095Y11116D01*
X96072Y11092D01*
X96884Y10280D01*
X96177Y9573D01*
X95364Y10385D01*
X95341Y10362D01*
X94808Y9438D01*
X94532Y8407D01*
Y7341D01*
X94808Y6310D01*
X95341Y5387D01*
X95364Y5363D01*
X96177Y6175D01*
X96884Y5468D01*
X96072Y4656D01*
X96095Y4632D01*
X97019Y4099D01*
X98049Y3823D01*
X99116D01*
X100146Y4099D01*
X101070Y4632D01*
X101094Y4656D01*
X100282Y5468D01*
X100989Y6175D01*
X101801Y5363D01*
X101824Y5387D01*
X102358Y6310D01*
X102634Y7341D01*
Y8407D01*
X102358Y9438D01*
X101824Y10362D01*
X101801Y10385D01*
X100989Y9573D01*
X100282Y10280D01*
X101094Y11092D01*
X101070Y11116D01*
X100146Y11649D01*
X99116Y11925D01*
D02*
G37*
G36*
X109037Y11325D02*
X108128D01*
X107251Y11090D01*
X106464Y10636D01*
X105821Y9993D01*
X105367Y9206D01*
X105131Y8328D01*
Y7420D01*
X105367Y6542D01*
X105821Y5755D01*
X106464Y5112D01*
X107251Y4658D01*
X108128Y4423D01*
X109037D01*
X109915Y4658D01*
X110702Y5112D01*
X111344Y5755D01*
X111799Y6542D01*
X112034Y7420D01*
Y8328D01*
X111799Y9206D01*
X111344Y9993D01*
X110702Y10636D01*
X109915Y11090D01*
X109037Y11325D01*
D02*
G37*
G36*
X89037D02*
X88128D01*
X87251Y11090D01*
X86464Y10636D01*
X85821Y9993D01*
X85367Y9206D01*
X85132Y8328D01*
Y7420D01*
X85367Y6542D01*
X85821Y5755D01*
X86464Y5112D01*
X87251Y4658D01*
X88128Y4423D01*
X89037D01*
X89915Y4658D01*
X90702Y5112D01*
X91344Y5755D01*
X91799Y6542D01*
X92034Y7420D01*
Y8328D01*
X91799Y9206D01*
X91344Y9993D01*
X90702Y10636D01*
X89915Y11090D01*
X89037Y11325D01*
D02*
G37*
%LPD*%
G36*
X132427Y106196D02*
X132502Y105702D01*
X123600Y96800D01*
X104800D01*
Y97965D01*
X105300Y98172D01*
X105567Y97904D01*
X106302Y97600D01*
X107098D01*
X107731Y97862D01*
X106883Y98710D01*
X107590Y99417D01*
X108438Y98569D01*
X108569Y98886D01*
X122200D01*
X122473Y98941D01*
X122705Y99095D01*
X126783Y103174D01*
X127202Y103000D01*
X127998D01*
X128631Y103262D01*
X127783Y104110D01*
X128490Y104817D01*
X129338Y103969D01*
X129600Y104602D01*
Y105398D01*
X129338Y106031D01*
X128490Y105183D01*
X127783Y105890D01*
X128631Y106738D01*
X127998Y107000D01*
X127202D01*
X126569Y106738D01*
X127417Y105890D01*
X126710Y105183D01*
X125862Y106031D01*
X125600Y105398D01*
Y104602D01*
X125774Y104183D01*
X121904Y100314D01*
X108569D01*
X108438Y100631D01*
X107590Y99783D01*
X106883Y100490D01*
X107731Y101338D01*
X107098Y101600D01*
X106302D01*
X105567Y101295D01*
X105300Y101028D01*
X104800Y101235D01*
Y102100D01*
X105100Y102400D01*
X121000D01*
X127430Y108830D01*
X132427Y106196D01*
D02*
G37*
G36*
X102586Y98454D02*
X101737Y97605D01*
X102145Y97436D01*
Y96895D01*
X101737Y96726D01*
X102586Y95877D01*
X101879Y95170D01*
X101030Y96019D01*
X100861Y95611D01*
X100320D01*
X100151Y96019D01*
X99302Y95170D01*
X98595Y95877D01*
X99444Y96726D01*
X99036Y96895D01*
Y97436D01*
X99444Y97605D01*
X98595Y98454D01*
X99302Y99161D01*
X100151Y98312D01*
X100320Y98720D01*
X100861D01*
X101030Y98312D01*
X101879Y99161D01*
X102586Y98454D01*
D02*
G37*
G36*
X98255D02*
X97407Y97605D01*
X97814Y97436D01*
Y96895D01*
X97407Y96726D01*
X98255Y95877D01*
X97548Y95170D01*
X96699Y96019D01*
X96530Y95611D01*
X95989D01*
X95820Y96019D01*
X94972Y95170D01*
X94265Y95877D01*
X95113Y96726D01*
X94705Y96895D01*
Y97436D01*
X95113Y97605D01*
X94265Y98454D01*
X94972Y99161D01*
X95820Y98312D01*
X95989Y98720D01*
X96530D01*
X96699Y98312D01*
X97548Y99161D01*
X98255Y98454D01*
D02*
G37*
G36*
X102586Y94123D02*
X101737Y93274D01*
X102145Y93105D01*
Y92564D01*
X101737Y92395D01*
X102586Y91546D01*
X101879Y90839D01*
X101030Y91688D01*
X100861Y91280D01*
X100320D01*
X100151Y91688D01*
X99302Y90839D01*
X98595Y91546D01*
X99444Y92395D01*
X99036Y92564D01*
Y93105D01*
X99444Y93274D01*
X98595Y94123D01*
X99302Y94830D01*
X100151Y93981D01*
X100320Y94389D01*
X100861D01*
X101030Y93981D01*
X101879Y94830D01*
X102586Y94123D01*
D02*
G37*
G36*
X98255D02*
X97407Y93274D01*
X97814Y93105D01*
Y92564D01*
X97407Y92395D01*
X98255Y91546D01*
X97548Y90839D01*
X96699Y91688D01*
X96530Y91280D01*
X95989D01*
X95820Y91688D01*
X94972Y90839D01*
X94265Y91546D01*
X95113Y92395D01*
X94705Y92564D01*
Y93105D01*
X95113Y93274D01*
X94265Y94123D01*
X94972Y94830D01*
X95820Y93981D01*
X95989Y94389D01*
X96530D01*
X96699Y93981D01*
X97548Y94830D01*
X98255Y94123D01*
D02*
G37*
D13*
X85250Y108450D02*
X85300Y108400D01*
X81700Y108500D02*
X81750Y108450D01*
X85250D01*
X52869Y108500D02*
X81700D01*
X56800Y136700D02*
Y140700D01*
X52400Y132300D02*
X56800Y136700D01*
X52400Y108969D02*
Y132300D01*
Y108969D02*
X52869Y108500D01*
D15*
X100989Y178492D02*
X101314D01*
X94600Y178400D02*
X97675D01*
X97800Y178525D01*
X101314Y178492D02*
X102379Y179557D01*
X102470D02*
X103100Y180186D01*
X102379Y179557D02*
X102470D01*
X93800Y179200D02*
X94600Y178400D01*
X103100Y180186D02*
Y184100D01*
X101513Y76100D02*
Y86788D01*
X101413Y76000D02*
X101513Y76100D01*
X97600Y103099D02*
Y114000D01*
X101513Y86788D02*
X101625Y86901D01*
X93900Y117700D02*
X97600Y114000D01*
X93800Y179200D02*
Y184100D01*
D26*
X103100D02*
D03*
X93800D02*
D03*
D65*
X122200Y99600D02*
X127600Y105000D01*
X106700Y99600D02*
X122200D01*
X67400Y75100D02*
X89800D01*
X42300Y50000D02*
X67400Y75100D01*
X12300Y51500D02*
Y80400D01*
Y51500D02*
X13800Y50000D01*
X42300D01*
X111400Y110400D02*
X113100Y112100D01*
X123700D01*
D67*
X45000Y140400D02*
D03*
X137700Y187900D02*
D03*
X108583Y7874D02*
D03*
X98583D02*
D03*
X88583D02*
D03*
D68*
X45000Y130400D02*
D03*
D69*
X147700Y187900D02*
D03*
D70*
X111417Y184232D02*
D03*
X85433D02*
D03*
D71*
X6890Y97795D02*
D03*
Y107795D02*
D03*
Y117795D02*
D03*
Y127795D02*
D03*
X189961Y138425D02*
D03*
Y128425D02*
D03*
Y118425D02*
D03*
Y108425D02*
D03*
Y79370D02*
D03*
Y69370D02*
D03*
Y59370D02*
D03*
Y49370D02*
D03*
D72*
X6890Y137795D02*
D03*
X189961Y98425D02*
D03*
Y39370D02*
D03*
D73*
X158465Y158465D02*
D03*
X38386Y38386D02*
D03*
X158465D02*
D03*
X38386Y158465D02*
D03*
D74*
X100989Y178492D02*
D03*
X97800Y178525D02*
D03*
X19000Y55100D02*
D03*
X106700Y99600D02*
D03*
X127600Y105000D02*
D03*
X85300Y108400D02*
D03*
X93800Y76500D02*
D03*
X123200Y107600D02*
D03*
X101413Y76000D02*
D03*
X89800Y75100D02*
D03*
X12300Y80400D02*
D03*
X25300Y54700D02*
D03*
X81700Y108500D02*
D03*
X56800Y136700D02*
D03*
X97600Y103099D02*
D03*
X101625Y86901D02*
D03*
X123700Y112100D02*
D03*
X111400Y110400D02*
D03*
X93900Y117700D02*
D03*
X56800Y140700D02*
D03*
D75*
X102756Y90669D02*
D03*
X98425D02*
D03*
X94095D02*
D03*
X102756Y95000D02*
D03*
X98425D02*
D03*
X94095D02*
D03*
X102756Y99331D02*
D03*
X98425D02*
D03*
X94095D02*
D03*
D76*
X19400Y54700D02*
X25300D01*
X15500Y58600D02*
X19400Y54700D01*
X15500Y58600D02*
Y79100D01*
X53600Y172000D02*
X75400Y193800D01*
X141800D02*
X147700Y187900D01*
X75400Y193800D02*
X141800D01*
X15500Y79100D02*
X31900Y95500D01*
Y146700D01*
X23800Y154800D02*
X31900Y146700D01*
X23800Y154800D02*
Y163200D01*
X32600Y172000D02*
X53600D01*
X23800Y163200D02*
X32600Y172000D01*
M02*
