G04*
G04 #@! TF.GenerationSoftware,Altium Limited,Altium Designer,24.1.2 (44)*
G04*
G04 Layer_Color=65535*
%FSLAX25Y25*%
%MOIN*%
G70*
G04*
G04 #@! TF.SameCoordinates,2136B1BB-B4C1-48CA-BFD9-A79611692F62*
G04*
G04*
G04 #@! TF.FilePolarity,Positive*
G04*
G01*
G75*
%ADD10C,0.00394*%
%ADD11C,0.00984*%
%ADD12C,0.00787*%
%ADD13C,0.01000*%
%ADD14C,0.00900*%
%ADD15C,0.00800*%
D10*
X67723Y39670D02*
G03*
X67329Y39670I-197J0D01*
G01*
D02*
G03*
X67723Y39670I197J0D01*
G01*
X152542Y175800D02*
G03*
X152936Y175800I197J0D01*
G01*
D02*
G03*
X152542Y175800I-197J0D01*
G01*
X103543Y168898D02*
G03*
X103543Y169291I0J197D01*
G01*
D02*
G03*
X103543Y168898I0J-197D01*
G01*
X83583Y2874D02*
Y12874D01*
Y2874D02*
X113583D01*
Y12874D01*
X83583D02*
X113583D01*
D11*
X173065Y141802D02*
G03*
X173065Y141802I-492J0D01*
G01*
X81988Y108780D02*
G03*
X81988Y108780I-492J0D01*
G01*
D12*
X88583Y984D02*
G03*
X88583Y984I-197J0D01*
G01*
X32914Y59754D02*
X34686D01*
X32914Y54046D02*
X34686D01*
X76384Y30418D02*
Y34158D01*
Y30418D02*
X121266D01*
Y34158D01*
Y45182D02*
Y48922D01*
X76384D02*
X121266D01*
X76384Y45182D02*
Y48922D01*
X134301Y34408D02*
Y40992D01*
X140099Y34408D02*
Y40992D01*
X95395Y59057D02*
X100405D01*
X95395Y53742D02*
X100405D01*
X97543Y116395D02*
Y121405D01*
X102857Y116395D02*
Y121405D01*
X102842Y116395D02*
Y121405D01*
X108158Y116395D02*
Y121405D01*
X109341Y115131D02*
Y119069D01*
X114459Y115131D02*
Y119069D01*
X114441Y115131D02*
Y119069D01*
X119559Y115131D02*
Y119069D01*
X145211Y123298D02*
Y135502D01*
X171589Y123298D02*
Y135502D01*
X145211Y123298D02*
X171589D01*
X145211Y135502D02*
X171589D01*
X84055Y80630D02*
X86221D01*
X84055D02*
Y82795D01*
X110630Y80630D02*
X112795D01*
Y82795D01*
Y107205D02*
Y109370D01*
X110630D02*
X112795D01*
X84055D02*
X86221D01*
X84055Y107205D02*
Y109370D01*
X63599Y34508D02*
Y41092D01*
X57801Y34508D02*
Y41092D01*
X138814Y158954D02*
X140586D01*
X138814Y153246D02*
X140586D01*
X47295Y113657D02*
X52305D01*
X47295Y108343D02*
X52305D01*
X73795Y113558D02*
X78805D01*
X73795Y108242D02*
X78805D01*
X150758Y105995D02*
Y111005D01*
X145442Y105995D02*
Y111005D01*
X142354Y121014D02*
Y122786D01*
X136646Y121014D02*
Y122786D01*
X129341Y106532D02*
Y110468D01*
X134459Y106532D02*
Y110468D01*
X23254Y140614D02*
Y142386D01*
X17546Y140614D02*
Y142386D01*
X141125Y179147D02*
X144275D01*
X141125Y172453D02*
X144275D01*
X40000Y124652D02*
Y146148D01*
Y124652D02*
X50000D01*
Y146148D01*
X40000D02*
X50000D01*
X131952Y182900D02*
X153448D01*
Y192900D01*
X131952D02*
X153448D01*
X131952Y182900D02*
Y192900D01*
X113898Y189370D02*
Y195098D01*
X82953D02*
X113898D01*
X82953Y189370D02*
Y195098D01*
X52606Y123861D02*
Y143939D01*
X73394D01*
Y123861D02*
Y143939D01*
X52606Y123861D02*
X73394D01*
X52842Y116380D02*
Y122483D01*
X6890Y143780D02*
X12106D01*
Y90827D02*
Y143780D01*
X1969Y90827D02*
X12106D01*
X1969D02*
Y137795D01*
X184744Y92441D02*
X189961D01*
X184744D02*
Y145394D01*
X194882D01*
Y98425D02*
Y145394D01*
X184744Y33386D02*
X189961D01*
X184744D02*
Y86339D01*
X194882D01*
Y39370D02*
Y86339D01*
D13*
X24419Y74008D02*
G03*
X24419Y74008I-238J0D01*
G01*
X1969Y57468D02*
Y72465D01*
X21063Y53150D02*
Y57335D01*
Y72720D02*
Y76772D01*
X9331Y53150D02*
X21063D01*
X9331Y76772D02*
X21063D01*
D14*
X5332Y48807D02*
X2500D01*
Y46683D01*
X3916D01*
X2500D01*
Y44558D01*
X6749Y48807D02*
Y44558D01*
X9581D01*
X10997Y48807D02*
X12414D01*
X11705D01*
Y44558D01*
X10997D01*
X12414D01*
X17370Y48099D02*
X16662Y48807D01*
X15246D01*
X14538Y48099D01*
Y45267D01*
X15246Y44558D01*
X16662D01*
X17370Y45267D01*
Y46683D01*
X15954D01*
X18786Y48807D02*
Y44558D01*
Y46683D01*
X21619D01*
Y48807D01*
Y44558D01*
X23035Y48807D02*
X25868D01*
X24451D01*
Y44558D01*
X5332Y40841D02*
X4624Y41549D01*
X3208D01*
X2500Y40841D01*
Y38008D01*
X3208Y37300D01*
X4624D01*
X5332Y38008D01*
X8873Y41549D02*
X7457D01*
X6749Y40841D01*
Y38008D01*
X7457Y37300D01*
X8873D01*
X9581Y38008D01*
Y40841D01*
X8873Y41549D01*
X10997Y37300D02*
Y41549D01*
X13830Y37300D01*
Y41549D01*
X15246D02*
X18078D01*
X16662D01*
Y37300D01*
X19494D02*
Y41549D01*
X21619D01*
X22327Y40841D01*
Y39424D01*
X21619Y38716D01*
X19494D01*
X20911D02*
X22327Y37300D01*
X23743Y41549D02*
Y37300D01*
X26576D01*
X62300Y192799D02*
Y189050D01*
X63050Y188300D01*
X64549D01*
X65299Y189050D01*
Y192799D01*
X69798Y192049D02*
X69048Y192799D01*
X67548D01*
X66799Y192049D01*
Y191299D01*
X67548Y190549D01*
X69048D01*
X69798Y189799D01*
Y189050D01*
X69048Y188300D01*
X67548D01*
X66799Y189050D01*
X71297Y192799D02*
Y188300D01*
X73546D01*
X74296Y189050D01*
Y189799D01*
X73546Y190549D01*
X71297D01*
X73546D01*
X74296Y191299D01*
Y192049D01*
X73546Y192799D01*
X71297D01*
X121099Y194049D02*
X120349Y194799D01*
X118850D01*
X118100Y194049D01*
Y191050D01*
X118850Y190300D01*
X120349D01*
X121099Y191050D01*
Y192549D01*
X119599D01*
X122599Y190300D02*
Y194799D01*
X125598Y190300D01*
Y194799D01*
X127097D02*
Y190300D01*
X129346D01*
X130096Y191050D01*
Y194049D01*
X129346Y194799D01*
X127097D01*
X33501Y116000D02*
X38000D01*
Y118249D01*
X37250Y118999D01*
X36500D01*
X35751Y118249D01*
Y116000D01*
Y118249D01*
X35001Y118999D01*
X34251D01*
X33501Y118249D01*
Y116000D01*
Y122748D02*
Y121248D01*
X34251Y120499D01*
X37250D01*
X38000Y121248D01*
Y122748D01*
X37250Y123498D01*
X34251D01*
X33501Y122748D01*
Y127246D02*
Y125747D01*
X34251Y124997D01*
X37250D01*
X38000Y125747D01*
Y127246D01*
X37250Y127996D01*
X34251D01*
X33501Y127246D01*
Y129496D02*
Y132495D01*
Y130995D01*
X38000D01*
X34251Y136993D02*
X33501Y136243D01*
Y134744D01*
X34251Y133994D01*
X35001D01*
X35751Y134744D01*
Y136243D01*
X36500Y136993D01*
X37250D01*
X38000Y136243D01*
Y134744D01*
X37250Y133994D01*
X33501Y141492D02*
Y138493D01*
X38000D01*
Y141492D01*
X35751Y138493D02*
Y139992D01*
X33501Y142991D02*
X38000D01*
Y145990D01*
X86100Y23400D02*
X87599D01*
X86850D01*
Y27899D01*
X86100Y27149D01*
X92848Y23400D02*
X89849D01*
X92848Y26399D01*
Y27149D01*
X92098Y27899D01*
X90599D01*
X89849Y27149D01*
X98846Y23400D02*
Y27899D01*
X100345Y26399D01*
X101845Y27899D01*
Y23400D01*
X103344Y27899D02*
Y23400D01*
Y25649D01*
X106343D01*
Y27899D01*
Y23400D01*
X107843Y27899D02*
X110842D01*
Y27149D01*
X107843Y24150D01*
Y23400D01*
X110842D01*
X75301Y127166D02*
Y124500D01*
X77301D01*
Y125833D01*
Y124500D01*
X79300D01*
X75301Y128499D02*
X79300D01*
Y131165D01*
Y132497D02*
X76634D01*
X75301Y133830D01*
X76634Y135163D01*
X79300D01*
X77301D01*
Y132497D01*
X75968Y139162D02*
X75301Y138496D01*
Y137163D01*
X75968Y136496D01*
X76634D01*
X77301Y137163D01*
Y138496D01*
X77967Y139162D01*
X78634D01*
X79300Y138496D01*
Y137163D01*
X78634Y136496D01*
X75301Y140495D02*
X79300D01*
X77301D01*
Y143161D01*
X75301D01*
X79300D01*
X152000Y130849D02*
X152750Y131599D01*
X154249D01*
X154999Y130849D01*
Y130099D01*
X154249Y129349D01*
X153499D01*
X154249D01*
X154999Y128600D01*
Y127850D01*
X154249Y127100D01*
X152750D01*
X152000Y127850D01*
X156499Y131599D02*
Y128600D01*
X157998Y127100D01*
X159498Y128600D01*
Y131599D01*
X160997Y130849D02*
X161747Y131599D01*
X163246D01*
X163996Y130849D01*
Y130099D01*
X163246Y129349D01*
X162497D01*
X163246D01*
X163996Y128600D01*
Y127850D01*
X163246Y127100D01*
X161747D01*
X160997Y127850D01*
X155300Y189999D02*
Y186999D01*
X156799Y185500D01*
X158299Y186999D01*
Y189999D01*
X162798Y189249D02*
X162048Y189999D01*
X160548D01*
X159799Y189249D01*
Y188499D01*
X160548Y187749D01*
X162048D01*
X162798Y186999D01*
Y186250D01*
X162048Y185500D01*
X160548D01*
X159799Y186250D01*
X164297Y189999D02*
Y189249D01*
X165797Y187749D01*
X167296Y189249D01*
Y189999D01*
X165797Y187749D02*
Y185500D01*
X171795Y189249D02*
X171045Y189999D01*
X169545D01*
X168796Y189249D01*
Y188499D01*
X169545Y187749D01*
X171045D01*
X171795Y186999D01*
Y186250D01*
X171045Y185500D01*
X169545D01*
X168796Y186250D01*
X178100Y104500D02*
X181099D01*
X182599Y103000D01*
X181099Y101501D01*
X178100D01*
X180349D01*
Y104500D01*
X182599Y100001D02*
X178100D01*
Y97752D01*
X178850Y97002D01*
X181849D01*
X182599Y97752D01*
Y100001D01*
X181849Y92504D02*
X182599Y93254D01*
Y94753D01*
X181849Y95503D01*
X178850D01*
X178100Y94753D01*
Y93254D01*
X178850Y92504D01*
X182049Y46201D02*
X182799Y46951D01*
Y48450D01*
X182049Y49200D01*
X179050D01*
X178300Y48450D01*
Y46951D01*
X179050Y46201D01*
X180549D01*
Y47701D01*
X178300Y44701D02*
X182799D01*
Y42452D01*
X182049Y41702D01*
X180549D01*
X179799Y42452D01*
Y44701D01*
X182799Y40203D02*
Y38703D01*
Y39453D01*
X178300D01*
Y40203D01*
Y38703D01*
X182799Y34205D02*
Y35704D01*
X182049Y36454D01*
X179050D01*
X178300Y35704D01*
Y34205D01*
X179050Y33455D01*
X182049D01*
X182799Y34205D01*
X60100Y10199D02*
Y5700D01*
X62349D01*
X63099Y6450D01*
Y9449D01*
X62349Y10199D01*
X60100D01*
X67598D02*
X64599D01*
Y5700D01*
X67598D01*
X64599Y7949D02*
X66098D01*
X69097Y10199D02*
Y5700D01*
X71346D01*
X72096Y6450D01*
Y7199D01*
X71346Y7949D01*
X69097D01*
X71346D01*
X72096Y8699D01*
Y9449D01*
X71346Y10199D01*
X69097D01*
X73596D02*
Y6450D01*
X74345Y5700D01*
X75845D01*
X76595Y6450D01*
Y10199D01*
X81093Y9449D02*
X80344Y10199D01*
X78844D01*
X78094Y9449D01*
Y6450D01*
X78844Y5700D01*
X80344D01*
X81093Y6450D01*
Y7949D01*
X79594D01*
X5451Y145700D02*
X4701Y146450D01*
Y147949D01*
X5451Y148699D01*
X6201D01*
X6951Y147949D01*
Y147199D01*
Y147949D01*
X7700Y148699D01*
X8450D01*
X9200Y147949D01*
Y146450D01*
X8450Y145700D01*
X4701Y150199D02*
X7700D01*
X9200Y151698D01*
X7700Y153198D01*
X4701D01*
X5451Y154697D02*
X4701Y155447D01*
Y156946D01*
X5451Y157696D01*
X6201D01*
X6951Y156946D01*
Y156197D01*
Y156946D01*
X7700Y157696D01*
X8450D01*
X9200Y156946D01*
Y155447D01*
X8450Y154697D01*
X17599Y129249D02*
X16849Y129999D01*
X15350D01*
X14600Y129249D01*
Y126250D01*
X15350Y125500D01*
X16849D01*
X17599Y126250D01*
Y127749D01*
X16100D01*
X19099Y125500D02*
Y129999D01*
X22098Y125500D01*
Y129999D01*
X23597D02*
Y125500D01*
X25846D01*
X26596Y126250D01*
Y129249D01*
X25846Y129999D01*
X23597D01*
X14400Y120199D02*
X17399D01*
X15900D01*
Y115700D01*
X18899Y120199D02*
X21898Y115700D01*
Y120199D02*
X18899Y115700D01*
X14900Y105500D02*
Y109999D01*
X17149D01*
X17899Y109249D01*
Y107749D01*
X17149Y107000D01*
X14900D01*
X16399D02*
X17899Y105500D01*
X19399Y109999D02*
X22398Y105500D01*
Y109999D02*
X19399Y105500D01*
X17599Y99649D02*
X16849Y100399D01*
X15350D01*
X14600Y99649D01*
Y98899D01*
X15350Y98149D01*
X16849D01*
X17599Y97399D01*
Y96650D01*
X16849Y95900D01*
X15350D01*
X14600Y96650D01*
X22098Y100399D02*
X19099D01*
Y95900D01*
X22098D01*
X19099Y98149D02*
X20598D01*
X23597Y100399D02*
X26596D01*
X25097D01*
Y95900D01*
D15*
X119268Y160999D02*
X121934D01*
X120601D01*
Y157001D01*
X123267D02*
Y160999D01*
X125267D01*
X125933Y160333D01*
Y159000D01*
X125267Y158334D01*
X123267D01*
X129932Y157001D02*
X127266D01*
X129932Y159667D01*
Y160333D01*
X129265Y160999D01*
X127932D01*
X127266Y160333D01*
X115235Y167199D02*
X117901D01*
X116568D01*
Y163201D01*
X119234D02*
Y167199D01*
X121233D01*
X121899Y166533D01*
Y165200D01*
X121233Y164533D01*
X119234D01*
X123232Y163201D02*
X124565D01*
X123899D01*
Y167199D01*
X123232Y166533D01*
X102668Y54401D02*
Y58399D01*
X104667D01*
X105333Y57733D01*
Y56400D01*
X104667Y55734D01*
X102668D01*
X104001D02*
X105333Y54401D01*
X106667Y55067D02*
X107333Y54401D01*
X108666D01*
X109332Y55067D01*
Y57733D01*
X108666Y58399D01*
X107333D01*
X106667Y57733D01*
Y57066D01*
X107333Y56400D01*
X109332D01*
X46568Y102401D02*
Y106399D01*
X48567D01*
X49234Y105733D01*
Y104400D01*
X48567Y103734D01*
X46568D01*
X47901D02*
X49234Y102401D01*
X50567Y105733D02*
X51233Y106399D01*
X52566D01*
X53232Y105733D01*
Y105067D01*
X52566Y104400D01*
X53232Y103734D01*
Y103067D01*
X52566Y102401D01*
X51233D01*
X50567Y103067D01*
Y103734D01*
X51233Y104400D01*
X50567Y105067D01*
Y105733D01*
X51233Y104400D02*
X52566D01*
X65168Y109001D02*
Y112999D01*
X67167D01*
X67834Y112333D01*
Y111000D01*
X67167Y110334D01*
X65168D01*
X66501D02*
X67834Y109001D01*
X69166Y112999D02*
X71832D01*
Y112333D01*
X69166Y109667D01*
Y109001D01*
X106268Y128001D02*
Y131999D01*
X108267D01*
X108933Y131333D01*
Y130000D01*
X108267Y129333D01*
X106268D01*
X107601D02*
X108933Y128001D01*
X112932Y131999D02*
X111599Y131333D01*
X110266Y130000D01*
Y128667D01*
X110933Y128001D01*
X112266D01*
X112932Y128667D01*
Y129333D01*
X112266Y130000D01*
X110266D01*
X97668Y128101D02*
Y132099D01*
X99667D01*
X100334Y131433D01*
Y130100D01*
X99667Y129434D01*
X97668D01*
X99001D02*
X100334Y128101D01*
X104332Y132099D02*
X101666D01*
Y130100D01*
X102999Y130766D01*
X103666D01*
X104332Y130100D01*
Y128767D01*
X103666Y128101D01*
X102333D01*
X101666Y128767D01*
X139868Y98201D02*
Y102199D01*
X141867D01*
X142534Y101533D01*
Y100200D01*
X141867Y99534D01*
X139868D01*
X141201D02*
X142534Y98201D01*
X145866D02*
Y102199D01*
X143867Y100200D01*
X146532D01*
X152668Y106501D02*
Y110499D01*
X154667D01*
X155333Y109833D01*
Y108500D01*
X154667Y107834D01*
X152668D01*
X154001D02*
X155333Y106501D01*
X156667Y109833D02*
X157333Y110499D01*
X158666D01*
X159332Y109833D01*
Y109167D01*
X158666Y108500D01*
X157999D01*
X158666D01*
X159332Y107834D01*
Y107167D01*
X158666Y106501D01*
X157333D01*
X156667Y107167D01*
X173868Y147501D02*
Y151499D01*
X175867D01*
X176533Y150833D01*
Y149500D01*
X175867Y148834D01*
X173868D01*
X175201D02*
X176533Y147501D01*
X180532D02*
X177866D01*
X180532Y150166D01*
Y150833D01*
X179866Y151499D01*
X178533D01*
X177866Y150833D01*
X174534Y122501D02*
Y126499D01*
X176533D01*
X177200Y125833D01*
Y124500D01*
X176533Y123834D01*
X174534D01*
X175867D02*
X177200Y122501D01*
X178533D02*
X179866D01*
X179199D01*
Y126499D01*
X178533Y125833D01*
X125734Y177499D02*
Y173501D01*
X127734D01*
X128400Y174167D01*
Y176833D01*
X127734Y177499D01*
X125734D01*
X129733Y173501D02*
X131066D01*
X130399D01*
Y177499D01*
X129733Y176833D01*
X44267Y58233D02*
X43601Y58899D01*
X42268D01*
X41602Y58233D01*
Y55567D01*
X42268Y54901D01*
X43601D01*
X44267Y55567D01*
X45600Y54901D02*
X46933D01*
X46267D01*
Y58899D01*
X45600Y58233D01*
X48933D02*
X49599Y58899D01*
X50932D01*
X51598Y58233D01*
Y57566D01*
X50932Y56900D01*
X51598Y56234D01*
Y55567D01*
X50932Y54901D01*
X49599D01*
X48933Y55567D01*
Y56234D01*
X49599Y56900D01*
X48933Y57566D01*
Y58233D01*
X49599Y56900D02*
X50932D01*
X135267Y46933D02*
X134601Y47599D01*
X133268D01*
X132602Y46933D01*
Y44267D01*
X133268Y43601D01*
X134601D01*
X135267Y44267D01*
X136600Y43601D02*
X137933D01*
X137267D01*
Y47599D01*
X136600Y46933D01*
X139933Y47599D02*
X142598D01*
Y46933D01*
X139933Y44267D01*
Y43601D01*
X58267Y30633D02*
X57601Y31299D01*
X56268D01*
X55602Y30633D01*
Y27967D01*
X56268Y27301D01*
X57601D01*
X58267Y27967D01*
X59600Y27301D02*
X60933D01*
X60267D01*
Y31299D01*
X59600Y30633D01*
X65598Y31299D02*
X64266Y30633D01*
X62933Y29300D01*
Y27967D01*
X63599Y27301D01*
X64932D01*
X65598Y27967D01*
Y28634D01*
X64932Y29300D01*
X62933D01*
X18267Y152833D02*
X17601Y153499D01*
X16268D01*
X15602Y152833D01*
Y150167D01*
X16268Y149501D01*
X17601D01*
X18267Y150167D01*
X19600Y149501D02*
X20933D01*
X20267D01*
Y153499D01*
X19600Y152833D01*
X25598Y153499D02*
X22933D01*
Y151500D01*
X24265Y152166D01*
X24932D01*
X25598Y151500D01*
Y150167D01*
X24932Y149501D01*
X23599D01*
X22933Y150167D01*
X61267Y164133D02*
X60601Y164799D01*
X59268D01*
X58602Y164133D01*
Y161467D01*
X59268Y160801D01*
X60601D01*
X61267Y161467D01*
X62600Y160801D02*
X63933D01*
X63267D01*
Y164799D01*
X62600Y164133D01*
X67932Y160801D02*
Y164799D01*
X65933Y162800D01*
X68598D01*
X129967Y101433D02*
X129301Y102099D01*
X127968D01*
X127302Y101433D01*
Y98767D01*
X127968Y98101D01*
X129301D01*
X129967Y98767D01*
X131300Y98101D02*
X132633D01*
X131967D01*
Y102099D01*
X131300Y101433D01*
X134633D02*
X135299Y102099D01*
X136632D01*
X137298Y101433D01*
Y100766D01*
X136632Y100100D01*
X135966D01*
X136632D01*
X137298Y99434D01*
Y98767D01*
X136632Y98101D01*
X135299D01*
X134633Y98767D01*
X112267Y125233D02*
X111601Y125899D01*
X110268D01*
X109602Y125233D01*
Y122567D01*
X110268Y121901D01*
X111601D01*
X112267Y122567D01*
X113600Y121901D02*
X114933D01*
X114267D01*
Y125899D01*
X113600Y125233D01*
X119598Y121901D02*
X116933D01*
X119598Y124566D01*
Y125233D01*
X118932Y125899D01*
X117599D01*
X116933Y125233D01*
X124034Y118533D02*
X123367Y119199D01*
X122035D01*
X121368Y118533D01*
Y115867D01*
X122035Y115201D01*
X123367D01*
X124034Y115867D01*
X125367Y115201D02*
X126700D01*
X126033D01*
Y119199D01*
X125367Y118533D01*
X128699Y115201D02*
X130032D01*
X129366D01*
Y119199D01*
X128699Y118533D01*
X108067Y69533D02*
X107401Y70199D01*
X106068D01*
X105402Y69533D01*
Y66867D01*
X106068Y66201D01*
X107401D01*
X108067Y66867D01*
X109400Y66201D02*
X110733D01*
X110067D01*
Y70199D01*
X109400Y69533D01*
X112733D02*
X113399Y70199D01*
X114732D01*
X115398Y69533D01*
Y66867D01*
X114732Y66201D01*
X113399D01*
X112733Y66867D01*
Y69533D01*
X91234Y137633D02*
X90567Y138299D01*
X89234D01*
X88568Y137633D01*
Y134967D01*
X89234Y134301D01*
X90567D01*
X91234Y134967D01*
X92567D02*
X93233Y134301D01*
X94566D01*
X95232Y134967D01*
Y137633D01*
X94566Y138299D01*
X93233D01*
X92567Y137633D01*
Y136967D01*
X93233Y136300D01*
X95232D01*
X75434Y86733D02*
X74767Y87399D01*
X73434D01*
X72768Y86733D01*
Y84067D01*
X73434Y83401D01*
X74767D01*
X75434Y84067D01*
X76767Y86733D02*
X77433Y87399D01*
X78766D01*
X79432Y86733D01*
Y86066D01*
X78766Y85400D01*
X79432Y84734D01*
Y84067D01*
X78766Y83401D01*
X77433D01*
X76767Y84067D01*
Y84734D01*
X77433Y85400D01*
X76767Y86066D01*
Y86733D01*
X77433Y85400D02*
X78766D01*
X121334Y87433D02*
X120667Y88099D01*
X119334D01*
X118668Y87433D01*
Y84767D01*
X119334Y84101D01*
X120667D01*
X121334Y84767D01*
X122667Y88099D02*
X125332D01*
Y87433D01*
X122667Y84767D01*
Y84101D01*
X90847Y69737D02*
X90181Y70404D01*
X88848D01*
X88182Y69737D01*
Y67071D01*
X88848Y66405D01*
X90181D01*
X90847Y67071D01*
X94846Y70404D02*
X93513Y69737D01*
X92180Y68404D01*
Y67071D01*
X92847Y66405D01*
X94179D01*
X94846Y67071D01*
Y67738D01*
X94179Y68404D01*
X92180D01*
X75534Y101833D02*
X74867Y102499D01*
X73534D01*
X72868Y101833D01*
Y99167D01*
X73534Y98501D01*
X74867D01*
X75534Y99167D01*
X79532Y102499D02*
X76867D01*
Y100500D01*
X78199Y101166D01*
X78866D01*
X79532Y100500D01*
Y99167D01*
X78866Y98501D01*
X77533D01*
X76867Y99167D01*
X121133Y101533D02*
X120467Y102199D01*
X119134D01*
X118468Y101533D01*
Y98867D01*
X119134Y98201D01*
X120467D01*
X121133Y98867D01*
X124466Y98201D02*
Y102199D01*
X122467Y100200D01*
X125132D01*
X99734Y137533D02*
X99067Y138199D01*
X97734D01*
X97068Y137533D01*
Y134867D01*
X97734Y134201D01*
X99067D01*
X99734Y134867D01*
X101067Y137533D02*
X101733Y138199D01*
X103066D01*
X103732Y137533D01*
Y136866D01*
X103066Y136200D01*
X102399D01*
X103066D01*
X103732Y135533D01*
Y134867D01*
X103066Y134201D01*
X101733D01*
X101067Y134867D01*
X138634Y132933D02*
X137967Y133599D01*
X136634D01*
X135968Y132933D01*
Y130267D01*
X136634Y129601D01*
X137967D01*
X138634Y130267D01*
X142632Y129601D02*
X139966D01*
X142632Y132266D01*
Y132933D01*
X141966Y133599D01*
X140633D01*
X139966Y132933D01*
X139900Y150433D02*
X139234Y151099D01*
X137901D01*
X137234Y150433D01*
Y147767D01*
X137901Y147101D01*
X139234D01*
X139900Y147767D01*
X141233Y147101D02*
X142566D01*
X141899D01*
Y151099D01*
X141233Y150433D01*
M02*
