G04*
G04 #@! TF.GenerationSoftware,Altium Limited,Altium Designer,24.1.2 (44)*
G04*
G04 Layer_Color=8388736*
%FSLAX25Y25*%
%MOIN*%
G70*
G04*
G04 #@! TF.SameCoordinates,C804618F-CC2D-40EB-8674-F133FD29D43B*
G04*
G04*
G04 #@! TF.FilePolarity,Negative*
G04*
G01*
G75*
%ADD18R,0.02756X0.05118*%
%ADD26R,0.02648X0.02816*%
%ADD27R,0.02029X0.01860*%
%ADD28R,0.01860X0.02029*%
%ADD29R,0.01968X0.01575*%
%ADD35R,0.05118X0.02756*%
%ADD40R,0.04540X0.05721*%
%ADD41R,0.13398X0.05721*%
%ADD42R,0.02375X0.06115*%
%ADD43R,0.07099X0.06312*%
%ADD44R,0.08280X0.08280*%
%ADD45R,0.07887X0.06115*%
%ADD46R,0.02926X0.03084*%
%ADD47R,0.03084X0.02926*%
%ADD48R,0.22847X0.09068*%
G04:AMPARAMS|DCode=49|XSize=48mil|YSize=48mil|CornerRadius=14mil|HoleSize=0mil|Usage=FLASHONLY|Rotation=90.000|XOffset=0mil|YOffset=0mil|HoleType=Round|Shape=RoundedRectangle|*
%AMROUNDEDRECTD49*
21,1,0.04800,0.02000,0,0,90.0*
21,1,0.02000,0.04800,0,0,90.0*
1,1,0.02800,0.01000,0.01000*
1,1,0.02800,0.01000,-0.01000*
1,1,0.02800,-0.01000,-0.01000*
1,1,0.02800,-0.01000,0.01000*
%
%ADD49ROUNDEDRECTD49*%
%ADD50R,0.13398X0.13398*%
%ADD51O,0.01587X0.04245*%
%ADD52O,0.04245X0.01587*%
%ADD53R,0.02965X0.03162*%
%ADD54R,0.05524X0.05524*%
%ADD55R,0.03359X0.06902*%
%ADD56R,0.07887X0.05524*%
%ADD57R,0.06902X0.03162*%
%ADD58C,0.08477*%
%ADD59C,0.06902*%
%ADD60R,0.06902X0.06902*%
%ADD61R,0.06902X0.06902*%
%ADD62C,0.08182*%
%ADD63R,0.08182X0.08182*%
%ADD64C,0.15800*%
%ADD65C,0.02800*%
%ADD66C,0.02769*%
D18*
X40640Y55700D02*
D03*
X33160D02*
D03*
X135960Y156100D02*
D03*
X143440D02*
D03*
D26*
X137200Y39584D02*
D03*
Y35816D02*
D03*
X60700Y35916D02*
D03*
Y39684D02*
D03*
D27*
X99390Y56400D02*
D03*
X96410D02*
D03*
X51290Y111000D02*
D03*
X48310D02*
D03*
X77790Y110900D02*
D03*
X74810D02*
D03*
D28*
X100200Y120390D02*
D03*
Y117410D02*
D03*
X105500Y120390D02*
D03*
Y117410D02*
D03*
X148100Y107010D02*
D03*
Y109990D02*
D03*
D29*
X111900Y115525D02*
D03*
Y118675D02*
D03*
X117000Y115525D02*
D03*
Y118675D02*
D03*
X131900Y106925D02*
D03*
Y110075D02*
D03*
D35*
X137100Y127440D02*
D03*
Y119960D02*
D03*
D40*
X167255Y145486D02*
D03*
X158200D02*
D03*
X149145D02*
D03*
D41*
X158200Y118714D02*
D03*
D42*
X103543Y173701D02*
D03*
X100984D02*
D03*
X98425D02*
D03*
X95866D02*
D03*
X93307D02*
D03*
D43*
X111024Y174587D02*
D03*
X85827D02*
D03*
D44*
X103150Y184232D02*
D03*
X93701D02*
D03*
D45*
X20400Y146913D02*
D03*
Y136087D02*
D03*
D46*
X55500Y156165D02*
D03*
Y159235D02*
D03*
X91300Y121965D02*
D03*
Y125035D02*
D03*
X102100Y66065D02*
D03*
Y69135D02*
D03*
X98000Y66065D02*
D03*
Y69135D02*
D03*
X95200Y125035D02*
D03*
Y121965D02*
D03*
D47*
X77835Y105800D02*
D03*
X74765D02*
D03*
Y91000D02*
D03*
X77835D02*
D03*
X123235Y91100D02*
D03*
X120165D02*
D03*
X123135Y105400D02*
D03*
X120065D02*
D03*
D48*
X117526Y39670D02*
D03*
X80124D02*
D03*
D49*
X137100Y165400D02*
D03*
X143400D02*
D03*
D50*
X98425Y95000D02*
D03*
D51*
X88189Y108534D02*
D03*
X89764D02*
D03*
X91339D02*
D03*
X92913D02*
D03*
X94488D02*
D03*
X96063D02*
D03*
X97638D02*
D03*
X99213D02*
D03*
X100787D02*
D03*
X102362D02*
D03*
X103937D02*
D03*
X105512D02*
D03*
X107087D02*
D03*
X108661D02*
D03*
Y81467D02*
D03*
X107087D02*
D03*
X105512D02*
D03*
X103937D02*
D03*
X102362D02*
D03*
X100787D02*
D03*
X99213D02*
D03*
X97638D02*
D03*
X96063D02*
D03*
X94488D02*
D03*
X92913D02*
D03*
X91339D02*
D03*
X89764D02*
D03*
X88189D02*
D03*
D52*
X111959Y105236D02*
D03*
Y103661D02*
D03*
Y102087D02*
D03*
Y100512D02*
D03*
Y98937D02*
D03*
Y97362D02*
D03*
Y95787D02*
D03*
Y94213D02*
D03*
Y92638D02*
D03*
Y91063D02*
D03*
Y89488D02*
D03*
Y87913D02*
D03*
Y86339D02*
D03*
Y84764D02*
D03*
X84892D02*
D03*
Y86339D02*
D03*
Y87913D02*
D03*
Y89488D02*
D03*
Y91063D02*
D03*
Y92638D02*
D03*
Y94213D02*
D03*
Y95787D02*
D03*
Y97362D02*
D03*
Y98937D02*
D03*
Y100512D02*
D03*
Y102087D02*
D03*
Y103661D02*
D03*
Y105236D02*
D03*
D53*
X177800Y152673D02*
D03*
Y149327D02*
D03*
X172700Y156373D02*
D03*
Y153027D02*
D03*
X139400Y106927D02*
D03*
Y110273D02*
D03*
D54*
X137188Y175800D02*
D03*
X148212D02*
D03*
D55*
X55500Y119431D02*
D03*
X60500D02*
D03*
X65500D02*
D03*
X70500D02*
D03*
Y148369D02*
D03*
X65500D02*
D03*
X60500D02*
D03*
X55500D02*
D03*
D56*
X5063Y53937D02*
D03*
Y75984D02*
D03*
D57*
X20319Y59055D02*
D03*
Y62992D02*
D03*
Y66929D02*
D03*
Y70866D02*
D03*
D58*
X111417Y184232D02*
D03*
X85433D02*
D03*
D59*
X45000Y140400D02*
D03*
X137700Y187900D02*
D03*
X108583Y7874D02*
D03*
X98583D02*
D03*
X88583D02*
D03*
D60*
X45000Y130400D02*
D03*
D61*
X147700Y187900D02*
D03*
D62*
X6890Y97795D02*
D03*
Y107795D02*
D03*
Y117795D02*
D03*
Y127795D02*
D03*
X189600Y98500D02*
D03*
Y108500D02*
D03*
Y118500D02*
D03*
Y128500D02*
D03*
X190000Y79370D02*
D03*
Y69370D02*
D03*
Y59370D02*
D03*
Y49370D02*
D03*
D63*
X6890Y137795D02*
D03*
X189600Y138500D02*
D03*
X190000Y39370D02*
D03*
D64*
X158465Y158465D02*
D03*
X38386Y38386D02*
D03*
X158465D02*
D03*
X38386Y158465D02*
D03*
D65*
X100989Y178492D02*
D03*
X97800Y178525D02*
D03*
X19000Y55100D02*
D03*
X106700Y99600D02*
D03*
X127600Y105000D02*
D03*
X85300Y108400D02*
D03*
X93800Y76500D02*
D03*
X123200Y107600D02*
D03*
X101413Y76000D02*
D03*
X89800Y75100D02*
D03*
X12300Y80400D02*
D03*
X25300Y54700D02*
D03*
X81700Y108500D02*
D03*
X56800Y136700D02*
D03*
X97600Y103099D02*
D03*
X101625Y86901D02*
D03*
X123700Y112100D02*
D03*
X111400Y110400D02*
D03*
X93900Y117700D02*
D03*
X56800Y140700D02*
D03*
D66*
X102756Y90669D02*
D03*
X98425D02*
D03*
X94095D02*
D03*
X102756Y95000D02*
D03*
X98425D02*
D03*
X94095D02*
D03*
X102756Y99331D02*
D03*
X98425D02*
D03*
X94095D02*
D03*
M02*
