G04*
G04 #@! TF.GenerationSoftware,Altium Limited,Altium Designer,24.1.2 (44)*
G04*
G04 Layer_Color=32896*
%FSLAX25Y25*%
%MOIN*%
G70*
G04*
G04 #@! TF.SameCoordinates,1BCE8F51-A4C2-40AC-AABA-45C8E91FA3D2*
G04*
G04*
G04 #@! TF.FilePolarity,Positive*
G04*
G01*
G75*
%ADD14C,0.00900*%
%ADD15C,0.00800*%
D14*
X183100Y135800D02*
Y138799D01*
X181600Y140299D01*
X180101Y138799D01*
Y135800D01*
Y138049D01*
X183100D01*
X175602Y139549D02*
X176352Y140299D01*
X177852D01*
X178601Y139549D01*
Y136550D01*
X177852Y135800D01*
X176352D01*
X175602Y136550D01*
Y138049D01*
X177102D01*
X174103Y135800D02*
Y140299D01*
X171104Y135800D01*
Y140299D01*
X169604D02*
Y135800D01*
X167355D01*
X166605Y136550D01*
Y139549D01*
X167355Y140299D01*
X169604D01*
X183100Y125800D02*
Y128799D01*
X181600Y130299D01*
X180101Y128799D01*
Y125800D01*
Y128049D01*
X183100D01*
X175602Y129549D02*
X176352Y130299D01*
X177852D01*
X178601Y129549D01*
Y126550D01*
X177852Y125800D01*
X176352D01*
X175602Y126550D01*
Y128049D01*
X177102D01*
X174103Y125800D02*
Y130299D01*
X171104Y125800D01*
Y130299D01*
X169604D02*
Y125800D01*
X167355D01*
X166605Y126550D01*
Y129549D01*
X167355Y130299D01*
X169604D01*
X183100Y119599D02*
Y116600D01*
X181600Y115100D01*
X180101Y116600D01*
Y119599D01*
X178601Y115100D02*
Y119599D01*
X176352D01*
X175602Y118849D01*
Y117349D01*
X176352Y116600D01*
X178601D01*
X177102D02*
X175602Y115100D01*
X171104Y119599D02*
X174103D01*
Y115100D01*
X171104D01*
X174103Y117349D02*
X172603D01*
X166605Y119599D02*
X169604D01*
Y117349D01*
X168105D01*
X169604D01*
Y115100D01*
X180101Y109749D02*
X180851Y110499D01*
X182350D01*
X183100Y109749D01*
Y106750D01*
X182350Y106000D01*
X180851D01*
X180101Y106750D01*
Y108249D01*
X181600D01*
X178601Y106000D02*
Y110499D01*
X176352D01*
X175602Y109749D01*
Y108249D01*
X176352Y107500D01*
X178601D01*
X171104Y106000D02*
X174103D01*
X171104Y108999D01*
Y109749D01*
X171854Y110499D01*
X173353D01*
X174103Y109749D01*
X169604Y110499D02*
X166605D01*
Y109749D01*
X169604Y106750D01*
Y106000D01*
X180101Y99949D02*
X180851Y100699D01*
X182350D01*
X183100Y99949D01*
Y96950D01*
X182350Y96200D01*
X180851D01*
X180101Y96950D01*
Y98449D01*
X181600D01*
X178601Y96200D02*
Y100699D01*
X176352D01*
X175602Y99949D01*
Y98449D01*
X176352Y97699D01*
X178601D01*
X171104Y96200D02*
X174103D01*
X171104Y99199D01*
Y99949D01*
X171854Y100699D01*
X173353D01*
X174103Y99949D01*
X166605Y100699D02*
X168105Y99949D01*
X169604Y98449D01*
Y96950D01*
X168855Y96200D01*
X167355D01*
X166605Y96950D01*
Y97699D01*
X167355Y98449D01*
X169604D01*
X188701Y30249D02*
X189451Y30999D01*
X190950D01*
X191700Y30249D01*
Y27250D01*
X190950Y26500D01*
X189451D01*
X188701Y27250D01*
Y28749D01*
X190200D01*
X187201Y26500D02*
Y30999D01*
X184952D01*
X184202Y30249D01*
Y28749D01*
X184952Y27999D01*
X187201D01*
X182703Y26500D02*
X181203D01*
X181953D01*
Y30999D01*
X182703Y30249D01*
X178954D02*
X178204Y30999D01*
X176705D01*
X175955Y30249D01*
Y29499D01*
X176705Y28749D01*
X175955Y27999D01*
Y27250D01*
X176705Y26500D01*
X178204D01*
X178954Y27250D01*
Y27999D01*
X178204Y28749D01*
X178954Y29499D01*
Y30249D01*
X178204Y28749D02*
X176705D01*
X180101Y50749D02*
X180851Y51499D01*
X182350D01*
X183100Y50749D01*
Y47750D01*
X182350Y47000D01*
X180851D01*
X180101Y47750D01*
Y49249D01*
X181600D01*
X178601Y47000D02*
Y51499D01*
X176352D01*
X175602Y50749D01*
Y49249D01*
X176352Y48500D01*
X178601D01*
X174103Y47000D02*
X172603D01*
X173353D01*
Y51499D01*
X174103Y50749D01*
X170354Y47750D02*
X169604Y47000D01*
X168105D01*
X167355Y47750D01*
Y50749D01*
X168105Y51499D01*
X169604D01*
X170354Y50749D01*
Y49999D01*
X169604Y49249D01*
X167355D01*
X180101Y61049D02*
X180851Y61799D01*
X182350D01*
X183100Y61049D01*
Y58050D01*
X182350Y57300D01*
X180851D01*
X180101Y58050D01*
Y59549D01*
X181600D01*
X178601Y57300D02*
Y61799D01*
X175602Y57300D01*
Y61799D01*
X174103D02*
Y57300D01*
X171854D01*
X171104Y58050D01*
Y61049D01*
X171854Y61799D01*
X174103D01*
X180101Y70649D02*
X180851Y71399D01*
X182350D01*
X183100Y70649D01*
Y67650D01*
X182350Y66900D01*
X180851D01*
X180101Y67650D01*
Y69149D01*
X181600D01*
X178601Y66900D02*
Y71399D01*
X176352D01*
X175602Y70649D01*
Y69149D01*
X176352Y68400D01*
X178601D01*
X171104Y66900D02*
X174103D01*
X171104Y69899D01*
Y70649D01*
X171854Y71399D01*
X173353D01*
X174103Y70649D01*
X169604D02*
X168855Y71399D01*
X167355D01*
X166605Y70649D01*
Y67650D01*
X167355Y66900D01*
X168855D01*
X169604Y67650D01*
Y70649D01*
X180101Y80549D02*
X180851Y81299D01*
X182350D01*
X183100Y80549D01*
Y77550D01*
X182350Y76800D01*
X180851D01*
X180101Y77550D01*
Y79049D01*
X181600D01*
X178601Y76800D02*
Y81299D01*
X176352D01*
X175602Y80549D01*
Y79049D01*
X176352Y78299D01*
X178601D01*
X171104Y76800D02*
X174103D01*
X171104Y79799D01*
Y80549D01*
X171854Y81299D01*
X173353D01*
X174103Y80549D01*
X169604Y76800D02*
X168105D01*
X168855D01*
Y81299D01*
X169604Y80549D01*
D15*
X112432Y174599D02*
X109766D01*
X111099D01*
Y170601D01*
X108433D02*
Y174599D01*
X106433D01*
X105767Y173933D01*
Y172600D01*
X106433Y171933D01*
X108433D01*
X102435Y170601D02*
Y174599D01*
X104434Y172600D01*
X101768D01*
X95132Y174499D02*
X92466D01*
X93799D01*
Y170501D01*
X91133D02*
Y174499D01*
X89134D01*
X88467Y173833D01*
Y172500D01*
X89134Y171834D01*
X91133D01*
X87134Y173833D02*
X86468Y174499D01*
X85135D01*
X84468Y173833D01*
Y173167D01*
X85135Y172500D01*
X85801D01*
X85135D01*
X84468Y171834D01*
Y171167D01*
X85135Y170501D01*
X86468D01*
X87134Y171167D01*
M02*
