G04*
G04 #@! TF.GenerationSoftware,Altium Limited,Altium Designer,24.1.2 (44)*
G04*
G04 Layer_Color=8421504*
%FSLAX25Y25*%
%MOIN*%
G70*
G04*
G04 #@! TF.SameCoordinates,4091384A-FFFE-4866-ACBB-491B395F008A*
G04*
G04*
G04 #@! TF.FilePolarity,Positive*
G04*
G01*
G75*
%ADD16R,0.02126X0.02284*%
%ADD17R,0.02284X0.02126*%
%ADD18R,0.02756X0.05118*%
%ADD19R,0.22047X0.08268*%
%ADD20R,0.02648X0.02816*%
%ADD21R,0.02029X0.01860*%
%ADD22R,0.01860X0.02029*%
%ADD23R,0.01968X0.01575*%
%ADD24R,0.14961X0.07874*%
%ADD25R,0.05906X0.07874*%
G04:AMPARAMS|DCode=26|XSize=40mil|YSize=40mil|CornerRadius=10mil|HoleSize=0mil|Usage=FLASHONLY|Rotation=90.000|XOffset=0mil|YOffset=0mil|HoleType=Round|Shape=RoundedRectangle|*
%AMROUNDEDRECTD26*
21,1,0.04000,0.02000,0,0,90.0*
21,1,0.02000,0.04000,0,0,90.0*
1,1,0.02000,0.01000,0.01000*
1,1,0.02000,0.01000,-0.01000*
1,1,0.02000,-0.01000,-0.01000*
1,1,0.02000,-0.01000,0.01000*
%
%ADD26ROUNDEDRECTD26*%
%ADD27R,0.12598X0.12598*%
%ADD28O,0.00787X0.03445*%
%ADD29O,0.03445X0.00787*%
%ADD30R,0.02165X0.02362*%
%ADD31R,0.05118X0.02756*%
%ADD32R,0.04724X0.04724*%
%ADD33R,0.01575X0.05315*%
%ADD34R,0.06299X0.05512*%
%ADD35R,0.07480X0.07480*%
%ADD36R,0.02559X0.06102*%
%ADD37R,0.07087X0.04724*%
%ADD38R,0.06102X0.02362*%
D16*
X55500Y156165D02*
D03*
Y159235D02*
D03*
X91300Y121965D02*
D03*
Y125035D02*
D03*
X102100Y66065D02*
D03*
Y69135D02*
D03*
X98000Y66065D02*
D03*
Y69135D02*
D03*
X95200Y125035D02*
D03*
Y121965D02*
D03*
D17*
X77835Y105800D02*
D03*
X74765D02*
D03*
Y91000D02*
D03*
X77835D02*
D03*
X123235Y91100D02*
D03*
X120165D02*
D03*
X123135Y105400D02*
D03*
X120065D02*
D03*
D18*
X30060Y56900D02*
D03*
X37540D02*
D03*
X135960Y156100D02*
D03*
X143440D02*
D03*
D19*
X117526Y39670D02*
D03*
X80124D02*
D03*
D20*
X137200Y39584D02*
D03*
Y35816D02*
D03*
X60700Y35916D02*
D03*
Y39684D02*
D03*
D21*
X99390Y56400D02*
D03*
X96410D02*
D03*
X51290Y111000D02*
D03*
X48310D02*
D03*
X77790Y110900D02*
D03*
X74810D02*
D03*
D22*
X100200Y120390D02*
D03*
Y117410D02*
D03*
X105500Y120390D02*
D03*
Y117410D02*
D03*
X148100Y107010D02*
D03*
Y109990D02*
D03*
D23*
X111900Y115525D02*
D03*
Y118675D02*
D03*
X117000Y115525D02*
D03*
Y118675D02*
D03*
X131900Y106925D02*
D03*
Y110075D02*
D03*
D24*
X158400Y116998D02*
D03*
D25*
X149345Y141802D02*
D03*
X158400D02*
D03*
X167455D02*
D03*
D26*
X137100Y165400D02*
D03*
X143400D02*
D03*
D27*
X98425Y95000D02*
D03*
D28*
X88189Y108534D02*
D03*
X89764D02*
D03*
X91339D02*
D03*
X92913D02*
D03*
X94488D02*
D03*
X96063D02*
D03*
X97638D02*
D03*
X99213D02*
D03*
X100787D02*
D03*
X102362D02*
D03*
X103937D02*
D03*
X105512D02*
D03*
X107087D02*
D03*
X108661D02*
D03*
Y81467D02*
D03*
X107087D02*
D03*
X105512D02*
D03*
X103937D02*
D03*
X102362D02*
D03*
X100787D02*
D03*
X99213D02*
D03*
X97638D02*
D03*
X96063D02*
D03*
X94488D02*
D03*
X92913D02*
D03*
X91339D02*
D03*
X89764D02*
D03*
X88189D02*
D03*
D29*
X111959Y105236D02*
D03*
Y103661D02*
D03*
Y102087D02*
D03*
Y100512D02*
D03*
Y98937D02*
D03*
Y97362D02*
D03*
Y95787D02*
D03*
Y94213D02*
D03*
Y92638D02*
D03*
Y91063D02*
D03*
Y89488D02*
D03*
Y87913D02*
D03*
Y86339D02*
D03*
Y84764D02*
D03*
X84892D02*
D03*
Y86339D02*
D03*
Y87913D02*
D03*
Y89488D02*
D03*
Y91063D02*
D03*
Y92638D02*
D03*
Y94213D02*
D03*
Y95787D02*
D03*
Y97362D02*
D03*
Y98937D02*
D03*
Y100512D02*
D03*
Y102087D02*
D03*
Y103661D02*
D03*
Y105236D02*
D03*
D30*
X177200Y131327D02*
D03*
Y134673D02*
D03*
Y140027D02*
D03*
Y143373D02*
D03*
X139400Y106927D02*
D03*
Y110273D02*
D03*
D31*
X139500Y125640D02*
D03*
Y118160D02*
D03*
X20400Y145240D02*
D03*
Y137760D02*
D03*
D32*
X137188Y175800D02*
D03*
X148212D02*
D03*
D33*
X103543Y173701D02*
D03*
X100984D02*
D03*
X98425D02*
D03*
X95866D02*
D03*
X93307D02*
D03*
D34*
X111024Y174587D02*
D03*
X85827D02*
D03*
D35*
X103150Y184232D02*
D03*
X93701D02*
D03*
D36*
X55500Y119431D02*
D03*
X60500D02*
D03*
X65500D02*
D03*
X70500D02*
D03*
Y148369D02*
D03*
X65500D02*
D03*
X60500D02*
D03*
X55500D02*
D03*
D37*
X5063Y53937D02*
D03*
Y75984D02*
D03*
D38*
X20319Y59055D02*
D03*
Y62992D02*
D03*
Y66929D02*
D03*
Y70866D02*
D03*
M02*
